<?xml version="1.0" encoding="UTF-8"?>
<!--Generator: Apple Native CoreSVG 175.5-->
<!DOCTYPE svg
PUBLIC "-//W3C//DTD SVG 1.1//EN"
       "http://www.w3.org/Graphics/SVG/1.1/DTD/svg11.dtd">
<svg version="1.1" xmlns="http://www.w3.org/2000/svg" xmlns:xlink="http://www.w3.org/1999/xlink" width="3300" height="2200">
 <!--glyph: "", point size: 100.0, font version: "18.0d12e2", template writer version: "101"-->
 <style>.monochrome-0 {fill:#000000}
.monochrome-1 {fill:#000000}
.monochrome-2 {fill:#000000;-sfsymbols-variable-threshold:0.0}
.monochrome-3 {fill:#000000}

.multicolor-0:tintColor {fill:#007AFF}
.multicolor-1:tintColor {fill:#007AFF}
.multicolor-2:tintColor {fill:#007AFF;-sfsymbols-variable-threshold:0.0}
.multicolor-3:tintColor {fill:#007AFF}

.hierarchical-0:primary {fill:#212121}
.hierarchical-1:secondary {fill:#4D4D4D}
.hierarchical-2:primary {fill:#212121;-sfsymbols-variable-threshold:0.0}
.hierarchical-3:primary {fill:#212121}

.SFSymbolsPreview007AFF {fill:#007AFF;opacity:1.0}
</style>
 <g id="Notes">
  <rect height="2200" id="artboard" style="fill:white;opacity:1" width="3300" x="0" y="0"/>
  <line style="fill:none;stroke:black;opacity:1;stroke-width:0.5;" x1="263" x2="3036" y1="292" y2="292"/>
  <text style="stroke:none;fill:black;font-family:sans-serif;font-size:13;font-weight:bold;" transform="matrix(1 0 0 1 263 322)">Weight/Scale Variations</text>
  <text style="stroke:none;fill:black;font-family:sans-serif;font-size:13;text-anchor:middle;" transform="matrix(1 0 0 1 559.711 322)">Ultralight</text>
  <text style="stroke:none;fill:black;font-family:sans-serif;font-size:13;text-anchor:middle;" transform="matrix(1 0 0 1 856.422 322)">Thin</text>
  <text style="stroke:none;fill:black;font-family:sans-serif;font-size:13;text-anchor:middle;" transform="matrix(1 0 0 1 1153.13 322)">Light</text>
  <text style="stroke:none;fill:black;font-family:sans-serif;font-size:13;text-anchor:middle;" transform="matrix(1 0 0 1 1449.84 322)">Regular</text>
  <text style="stroke:none;fill:black;font-family:sans-serif;font-size:13;text-anchor:middle;" transform="matrix(1 0 0 1 1746.56 322)">Medium</text>
  <text style="stroke:none;fill:black;font-family:sans-serif;font-size:13;text-anchor:middle;" transform="matrix(1 0 0 1 2043.27 322)">Semibold</text>
  <text style="stroke:none;fill:black;font-family:sans-serif;font-size:13;text-anchor:middle;" transform="matrix(1 0 0 1 2339.98 322)">Bold</text>
  <text style="stroke:none;fill:black;font-family:sans-serif;font-size:13;text-anchor:middle;" transform="matrix(1 0 0 1 2636.69 322)">Heavy</text>
  <text style="stroke:none;fill:black;font-family:sans-serif;font-size:13;text-anchor:middle;" transform="matrix(1 0 0 1 2933.4 322)">Black</text>
  <line style="fill:none;stroke:black;opacity:1;stroke-width:0.5;" x1="263" x2="3036" y1="1903" y2="1903"/>
  <g transform="matrix(1 0 0 1 263 1933)">
   <path d="M9.24805 0.830078C13.5547 0.830078 17.1387-2.74414 17.1387-7.05078C17.1387-11.3574 13.5449-14.9316 9.23828-14.9316C4.94141-14.9316 1.36719-11.3574 1.36719-7.05078C1.36719-2.74414 4.95117 0.830078 9.24805 0.830078ZM9.24805-0.654297C5.70312-0.654297 2.87109-3.49609 2.87109-7.05078C2.87109-10.6055 5.69336-13.4473 9.23828-13.4473C12.793-13.4473 15.6445-10.6055 15.6445-7.05078C15.6445-3.49609 12.8027-0.654297 9.24805-0.654297ZM5.6543-7.05078C5.6543-6.62109 5.95703-6.32812 6.40625-6.32812L8.50586-6.32812L8.50586-4.20898C8.50586-3.76953 8.79883-3.4668 9.22852-3.4668C9.67773-3.4668 9.9707-3.76953 9.9707-4.20898L9.9707-6.32812L12.0898-6.32812C12.5293-6.32812 12.832-6.62109 12.832-7.05078C12.832-7.49023 12.5293-7.79297 12.0898-7.79297L9.9707-7.79297L9.9707-9.90234C9.9707-10.3516 9.67773-10.6543 9.22852-10.6543C8.79883-10.6543 8.50586-10.3516 8.50586-9.90234L8.50586-7.79297L6.40625-7.79297C5.95703-7.79297 5.6543-7.49023 5.6543-7.05078Z"/>
  </g>
  <g transform="matrix(1 0 0 1 281.867 1933)">
   <path d="M11.709 2.91016C17.1582 2.91016 21.6699-1.61133 21.6699-7.05078C21.6699-12.5 17.1484-17.0117 11.6992-17.0117C6.25977-17.0117 1.74805-12.5 1.74805-7.05078C1.74805-1.61133 6.26953 2.91016 11.709 2.91016ZM11.709 1.25C7.09961 1.25 3.41797-2.44141 3.41797-7.05078C3.41797-11.6602 7.08984-15.3516 11.6992-15.3516C16.3086-15.3516 20.0098-11.6602 20.0098-7.05078C20.0098-2.44141 16.3184 1.25 11.709 1.25ZM7.17773-7.05078C7.17773-6.57227 7.50977-6.25 8.00781-6.25L10.8789-6.25L10.8789-3.36914C10.8789-2.88086 11.2109-2.53906 11.6895-2.53906C12.1777-2.53906 12.5195-2.87109 12.5195-3.36914L12.5195-6.25L15.4004-6.25C15.8887-6.25 16.2305-6.57227 16.2305-7.05078C16.2305-7.53906 15.8887-7.88086 15.4004-7.88086L12.5195-7.88086L12.5195-10.752C12.5195-11.25 12.1777-11.5918 11.6895-11.5918C11.2109-11.5918 10.8789-11.25 10.8789-10.752L10.8789-7.88086L8.00781-7.88086C7.50977-7.88086 7.17773-7.53906 7.17773-7.05078Z"/>
  </g>
  <g transform="matrix(1 0 0 1 305.646 1933)">
   <path d="M14.9707 5.66406C21.9336 5.66406 27.6953-0.0976562 27.6953-7.05078C27.6953-14.0137 21.9238-19.7754 14.9609-19.7754C8.00781-19.7754 2.25586-14.0137 2.25586-7.05078C2.25586-0.0976562 8.01758 5.66406 14.9707 5.66406ZM14.9707 3.84766C8.93555 3.84766 4.08203-1.01562 4.08203-7.05078C4.08203-13.0957 8.92578-17.9492 14.9609-17.9492C21.0059-17.9492 25.8691-13.0957 25.8691-7.05078C25.8691-1.01562 21.0156 3.84766 14.9707 3.84766ZM9.19922-7.05078C9.19922-6.5332 9.57031-6.17188 10.1172-6.17188L14.0625-6.17188L14.0625-2.2168C14.0625-1.67969 14.4336-1.29883 14.9512-1.29883C15.4883-1.29883 15.8594-1.66992 15.8594-2.2168L15.8594-6.17188L19.8145-6.17188C20.3516-6.17188 20.7324-6.5332 20.7324-7.05078C20.7324-7.59766 20.3613-7.96875 19.8145-7.96875L15.8594-7.96875L15.8594-11.9141C15.8594-12.4609 15.4883-12.8418 14.9512-12.8418C14.4336-12.8418 14.0625-12.4609 14.0625-11.9141L14.0625-7.96875L10.1172-7.96875C9.57031-7.96875 9.19922-7.59766 9.19922-7.05078Z"/>
  </g>
  <text style="stroke:none;fill:black;font-family:sans-serif;font-size:13;font-weight:bold;" transform="matrix(1 0 0 1 263 1953)">Design Variations</text>
  <text style="stroke:none;fill:black;font-family:sans-serif;font-size:13;" transform="matrix(1 0 0 1 263 1971)">Symbols are supported in up to nine weights and three scales.</text>
  <text style="stroke:none;fill:black;font-family:sans-serif;font-size:13;" transform="matrix(1 0 0 1 263 1989)">For optimal layout with text and other symbols, vertically align</text>
  <text style="stroke:none;fill:black;font-family:sans-serif;font-size:13;" transform="matrix(1 0 0 1 263 2007)">symbols with the adjacent text.</text>
  <line style="fill:none;stroke:#00AEEF;stroke-width:0.5;opacity:1.0;" x1="776" x2="776" y1="1919" y2="1933"/>
  <g transform="matrix(1 0 0 1 776 1933)">
   <path d="M3.31055 0.15625C3.82812 0.15625 4.08203-0.0390625 4.26758-0.585938L5.52734-4.0332L11.2891-4.0332L12.5488-0.585938C12.7344-0.0390625 12.9883 0.15625 13.4961 0.15625C14.0137 0.15625 14.3457-0.15625 14.3457-0.644531C14.3457-0.810547 14.3164-0.966797 14.2383-1.17188L9.6582-13.3691C9.43359-13.9648 9.0332-14.2676 8.4082-14.2676C7.80273-14.2676 7.39258-13.9746 7.17773-13.3789L2.59766-1.16211C2.51953-0.957031 2.49023-0.800781 2.49023-0.634766C2.49023-0.146484 2.80273 0.15625 3.31055 0.15625ZM6.00586-5.51758L8.37891-12.0898L8.42773-12.0898L10.8008-5.51758Z"/>
  </g>
  <line style="fill:none;stroke:#00AEEF;stroke-width:0.5;opacity:1.0;" x1="793.197" x2="793.197" y1="1919" y2="1933"/>
  <text style="stroke:none;fill:black;font-family:sans-serif;font-size:13;font-weight:bold;" transform="matrix(1 0 0 1 776 1953)">Margins</text>
  <text style="stroke:none;fill:black;font-family:sans-serif;font-size:13;" transform="matrix(1 0 0 1 776 1971)">Leading and trailing margins on the left and right side of each symbol</text>
  <text style="stroke:none;fill:black;font-family:sans-serif;font-size:13;" transform="matrix(1 0 0 1 776 1989)">can be adjusted by modifying the x-location of the margin guidelines.</text>
  <text style="stroke:none;fill:black;font-family:sans-serif;font-size:13;" transform="matrix(1 0 0 1 776 2007)">Modifications are automatically applied proportionally to all</text>
  <text style="stroke:none;fill:black;font-family:sans-serif;font-size:13;" transform="matrix(1 0 0 1 776 2025)">scales and weights.</text>
  <g transform="matrix(1 0 0 1 1289 1933)">
   <path d="M2.8418 1.86523L4.54102 3.57422C5.40039 4.44336 6.38672 4.38477 7.31445 3.35938L18.0078-8.42773L17.041-9.4043L6.42578 2.27539C6.07422 2.67578 5.74219 2.77344 5.27344 2.30469L4.10156 1.14258C3.63281 0.683594 3.74023 0.341797 4.14062-0.0195312L15.6152-10.8203L14.6387-11.7871L3.04688-0.898438C2.06055 0.0195312 1.98242 0.996094 2.8418 1.86523ZM9.25781-16.3281C8.83789-15.918 8.80859-15.3418 9.04297-14.9512C9.27734-14.5898 9.73633-14.3555 10.3809-14.5215C11.8457-14.8633 13.3691-14.9219 14.7949-13.9844L14.209-12.5293C13.8672-11.6992 14.043-11.1133 14.5801-10.5664L16.875-8.25195C17.3633-7.76367 17.7734-7.74414 18.3398-7.8418L19.4043-8.03711L20.0684-7.36328L20.0293-6.80664C19.9902-6.30859 20.1172-5.92773 20.6055-5.44922L21.3672-4.70703C21.8457-4.22852 22.4609-4.19922 22.9297-4.66797L25.8398-7.58789C26.3086-8.05664 26.2891-8.65234 25.8105-9.13086L25.0391-9.89258C24.5605-10.3711 24.1895-10.5273 23.7109-10.4883L23.1348-10.4395L22.4902-11.0742L22.7344-12.1973C22.8613-12.7637 22.7051-13.2031 22.1191-13.7891L19.9219-15.9766C16.582-19.2969 12.1484-19.2188 9.25781-16.3281ZM10.752-15.957C13.1836-17.7344 16.4746-17.4316 18.7012-15.2051L21.1328-12.793C21.3672-12.5586 21.4062-12.373 21.3379-12.0312L21.0156-10.5469L22.5195-9.0625L23.5059-9.12109C23.7598-9.13086 23.8379-9.11133 24.0332-8.91602L24.6094-8.33984L22.168-5.89844L21.5918-6.47461C21.3965-6.66992 21.3672-6.74805 21.377-7.01172L21.4453-7.98828L19.9512-9.47266L18.4277-9.21875C18.1055-9.15039 17.959-9.17969 17.7148-9.41406L15.7129-11.416C15.459-11.6504 15.4297-11.8164 15.5859-12.1875L16.4648-14.2773C14.9023-15.7324 12.8711-16.3574 10.8398-15.7617C10.6836-15.7227 10.625-15.8496 10.752-15.957Z"/>
  </g>
  <text style="stroke:none;fill:black;font-family:sans-serif;font-size:13;font-weight:bold;" transform="matrix(1 0 0 1 1289 1953)">Exporting</text>
  <text style="stroke:none;fill:black;font-family:sans-serif;font-size:13;" transform="matrix(1 0 0 1 1289 1971)">Symbols should be outlined when exporting to ensure the</text>
  <text style="stroke:none;fill:black;font-family:sans-serif;font-size:13;" transform="matrix(1 0 0 1 1289 1989)">design is preserved when submitting to Xcode.</text>
  <text id="template-version" style="stroke:none;fill:black;font-family:sans-serif;font-size:13;text-anchor:end;" transform="matrix(1 0 0 1 3036 1933)">Template v.4.0</text>
  <text style="stroke:none;fill:black;font-family:sans-serif;font-size:13;text-anchor:end;" transform="matrix(1 0 0 1 3036 1951)">Requires Xcode 14 or greater</text>
  <text id="descriptive-name" style="stroke:none;fill:black;font-family:sans-serif;font-size:13;text-anchor:end;" transform="matrix(1 0 0 1 3036 1969)">Generated from custom.securityrouter</text>
  <text style="stroke:none;fill:black;font-family:sans-serif;font-size:13;text-anchor:end;" transform="matrix(1 0 0 1 3036 1987)">Typeset at 100 points</text>
  <text style="stroke:none;fill:black;font-family:sans-serif;font-size:13;" transform="matrix(1 0 0 1 263 726)">Small</text>
  <text style="stroke:none;fill:black;font-family:sans-serif;font-size:13;" transform="matrix(1 0 0 1 263 1156)">Medium</text>
  <text style="stroke:none;fill:black;font-family:sans-serif;font-size:13;" transform="matrix(1 0 0 1 263 1586)">Large</text>
 </g>
 <g id="Guides">
  <g id="H-reference" style="fill:#27AAE1;stroke:none;" transform="matrix(1 0 0 1 339 696)">
   <path d="M0.993654 0L3.63775 0L29.3281-67.1323L30.0303-67.1323L30.0303-70.459L28.1226-70.459ZM11.6885-24.4799L46.9815-24.4799L46.2315-26.7285L12.4385-26.7285ZM55.1196 0L57.7637 0L30.6382-70.459L29.4326-70.459L29.4326-67.1323Z"/>
  </g>
  <line id="Baseline-S" style="fill:none;stroke:#27AAE1;opacity:1;stroke-width:0.5;" x1="263" x2="3036" y1="696" y2="696"/>
  <line id="Capline-S" style="fill:none;stroke:#27AAE1;opacity:1;stroke-width:0.5;" x1="263" x2="3036" y1="625.541" y2="625.541"/>
  <g id="H-reference" style="fill:#27AAE1;stroke:none;" transform="matrix(1 0 0 1 339 1126)">
   <path d="M0.993654 0L3.63775 0L29.3281-67.1323L30.0303-67.1323L30.0303-70.459L28.1226-70.459ZM11.6885-24.4799L46.9815-24.4799L46.2315-26.7285L12.4385-26.7285ZM55.1196 0L57.7637 0L30.6382-70.459L29.4326-70.459L29.4326-67.1323Z"/>
  </g>
  <line id="Baseline-M" style="fill:none;stroke:#27AAE1;opacity:1;stroke-width:0.5;" x1="263" x2="3036" y1="1126" y2="1126"/>
  <line id="Capline-M" style="fill:none;stroke:#27AAE1;opacity:1;stroke-width:0.5;" x1="263" x2="3036" y1="1055.54" y2="1055.54"/>
  <g id="H-reference" style="fill:#27AAE1;stroke:none;" transform="matrix(1 0 0 1 339 1556)">
   <path d="M0.993654 0L3.63775 0L29.3281-67.1323L30.0303-67.1323L30.0303-70.459L28.1226-70.459ZM11.6885-24.4799L46.9815-24.4799L46.2315-26.7285L12.4385-26.7285ZM55.1196 0L57.7637 0L30.6382-70.459L29.4326-70.459L29.4326-67.1323Z"/>
  </g>
  <line id="Baseline-L" style="fill:none;stroke:#27AAE1;opacity:1;stroke-width:0.5;" x1="263" x2="3036" y1="1556" y2="1556"/>
  <line id="Capline-L" style="fill:none;stroke:#27AAE1;opacity:1;stroke-width:0.5;" x1="263" x2="3036" y1="1485.54" y2="1485.54"/>
  <line id="left-margin-Ultralight-S" style="fill:none;stroke:#00AEEF;stroke-width:0.5;opacity:1.0;" x1="515.649" x2="515.649" y1="600.785" y2="720.121"/>
  <line id="right-margin-Ultralight-S" style="fill:none;stroke:#00AEEF;stroke-width:0.5;opacity:1.0;" x1="603.773" x2="603.773" y1="600.785" y2="720.121"/>
  <line id="left-margin-Regular-S" style="fill:none;stroke:#00AEEF;stroke-width:0.5;opacity:1.0;" x1="1403.58" x2="1403.58" y1="600.785" y2="720.121"/>
  <line id="right-margin-Regular-S" style="fill:none;stroke:#00AEEF;stroke-width:0.5;opacity:1.0;" x1="1496.11" x2="1496.11" y1="600.785" y2="720.121"/>
  <line id="left-margin-Black-S" style="fill:none;stroke:#00AEEF;stroke-width:0.5;opacity:1.0;" x1="2884.57" x2="2884.57" y1="600.785" y2="720.121"/>
  <line id="right-margin-Black-S" style="fill:none;stroke:#00AEEF;stroke-width:0.5;opacity:1.0;" x1="2982.23" x2="2982.23" y1="600.785" y2="720.121"/>
 </g>
 <g id="Symbols">
  <g id="Black-S" transform="matrix(1 0 0 1 2884.57 696)">
   <path class="monochrome-0 multicolor-0:tintColor hierarchical-0:primary SFSymbolsPreview007AFF" d="M48.3359 3.8027C69.5558 3.8027 86.8359-13.4775 86.8359-34.6973C86.8359-55.917 69.5558-73.1973 48.3359-73.1973C27.1162-73.1973 9.83594-55.917 9.83594-34.6973C9.83594-13.4775 27.1162 3.8027 48.3359 3.8027Z"/>
   <path class="monochrome-1 multicolor-1:tintColor hierarchical-1:secondary SFSymbolsPreview007AFF" d="M48.0609 2.2527C68.578 2.2527 85.2859-14.4552 85.2859-34.9723C85.2859-55.4893 68.578-72.1973 48.0609-72.1973C27.5439-72.1973 10.8359-55.4893 10.8359-34.9723C10.8359-14.4552 27.5439 2.2527 48.0609 2.2527Z"/>
   <path class="monochrome-2 multicolor-2:tintColor hierarchical-2:primary SFSymbolsPreview007AFF" d="M10.85-34.7375L85.3-34.7375C85.3-34.9426 85.3-34.972 85.3-35.2375C85.3-35.5045 85.3-35.5945 85.3-35.7375L10.85-35.7375C10.85-35.6126 10.85-35.3995 10.85-35.2375C10.85-35.0755 10.85-34.8907 10.85-34.7375ZM11.7725-26.7375L84.3717-26.7375C84.4064-26.8815 84.4528-27.1211 84.4815-27.2375C84.5101-27.3539 84.5527-27.5939 84.5865-27.7375L11.562-27.7375C11.594-27.569 11.6356-27.3848 11.6651-27.2375C11.6947-27.0901 11.7244-26.9508 11.7725-26.7375ZM11.6633-42.7375L84.4852-42.7375C84.4382-42.9396 84.4096-43.0519 84.3683-43.2375C84.327-43.423 84.2928-43.5702 84.256-43.7375L11.8984-43.7375C11.8637-43.6316 11.8034-43.3501 11.7742-43.2375C11.7449-43.1248 11.7008-42.887 11.6633-42.7375ZM14.3697-50.7375L81.7732-50.7375C81.7098-50.8904 81.6105-51.0759 81.5337-51.2367C81.4569-51.3975 81.3756-51.5744 81.2819-51.7375L14.8572-51.7375C14.7953-51.6153 14.686-51.4069 14.6051-51.2367C14.5243-51.0665 14.4733-50.9712 14.3697-50.7375ZM15.1265-17.7375L81.0166-17.7375C81.114-17.9083 81.2268-18.1163 81.2838-18.2375C81.3401-18.357 81.459-18.585 81.5278-18.7375L14.6145-18.7375C14.6649-18.6312 14.7823-18.3867 14.8558-18.2375C14.9126-18.122 15.0763-17.8114 15.1265-17.7375ZM20.7546-9.73749L75.3395-9.73749C75.4683-9.87543 75.5601-9.9808 75.7971-10.2375C75.9815-10.4371 76.1426-10.6227 76.2384-10.7375L19.8756-10.7375C19.9599-10.6254 20.1766-10.3814 20.3-10.2375C20.3519-10.1769 20.677-9.82025 20.7546-9.73749ZM20.3189-59.7375L75.8031-59.7375C75.6659-59.8905 75.4694-60.1119 75.3495-60.2375C75.2296-60.3631 75.0024-60.6095 74.8749-60.7375L21.2548-60.7375C21.1273-60.6088 20.8393-60.3163 20.7729-60.2375C20.7064-60.1586 20.4179-59.8465 20.3189-59.7375ZM31.3471-1.73749L64.7272-1.73749C64.9985-1.8721 65.5969-2.18399 65.6947-2.23749C65.8155-2.30365 66.3839-2.62034 66.5775-2.73749L29.4883-2.73749C29.664-2.6362 29.894-2.50375 30.4023-2.23749C30.9298-1.9612 31.1297-1.84898 31.3471-1.73749ZM30.0828-67.5505L66.0395-67.5505C65.7421-67.7144 65.4386-67.8847 65.0326-68.0921C64.6265-68.2994 64.4625-68.3799 64.1075-68.5505L32.0177-68.5505C31.9381-68.5119 31.3527-68.2328 31.008-68.0497C30.6632-67.8666 30.1774-67.6006 30.0828-67.5505ZM33.3791-51.5505L34.3499-51.5505C34.3577-51.5505 34.3645-53.6542 34.3645-56.0435C34.3645-58.4468 34.3577-60.5505 34.3499-60.5505L33.3791-60.5505C33.3713-60.5505 33.3645-58.4468 33.3645-56.0435C33.3645-53.6542 33.3713-51.5505 33.3791-51.5505ZM33.3791-18.5505L34.3499-18.5505C34.3577-18.5505 34.3645-20.6542 34.3645-23.0435C34.3645-25.4468 34.3577-27.5505 34.3499-27.5505L33.3791-27.5505C33.3713-27.5505 33.3645-25.4468 33.3645-23.0435C33.3645-20.6542 33.3713-18.5505 33.3791-18.5505ZM61.3784-51.5505L62.3492-51.5505C62.357-51.5505 62.3638-53.6542 62.3638-56.0435C62.3638-58.4468 62.357-60.5505 62.3492-60.5505L61.3784-60.5505C61.3707-60.5505 61.3638-58.4468 61.3638-56.0435C61.3638-53.6542 61.3707-51.5505 61.3784-51.5505ZM61.3784-18.5505L62.3492-18.5505C62.357-18.5505 62.3638-20.6542 62.3638-23.0435C62.3638-25.4468 62.357-27.5505 62.3492-27.5505L61.3784-27.5505C61.3707-27.5505 61.3638-25.4468 61.3638-23.0435C61.3638-20.6542 61.3707-18.5505 61.3784-18.5505ZM33.3791-2.55049L34.3499-2.55049C34.3577-2.55049 34.3645-4.42045 34.3645-6.54427C34.3645-8.68053 34.3577-10.5505 34.3499-10.5505L33.3791-10.5505C33.3713-10.5505 33.3645-8.68053 33.3645-6.54427C33.3645-4.42045 33.3713-2.55049 33.3791-2.55049ZM33.3791-35.5505L34.3499-35.5505C34.3577-35.5505 34.3645-37.4204 34.3645-39.5443C34.3645-41.6805 34.3577-43.5505 34.3499-43.5505L33.3791-43.5505C33.3713-43.5505 33.3645-41.6805 33.3645-39.5443C33.3645-37.4204 33.3713-35.5505 33.3791-35.5505ZM61.3784-35.5505L62.3492-35.5505C62.357-35.5505 62.3638-37.4204 62.3638-39.5443C62.3638-41.6805 62.357-43.5505 62.3492-43.5505L61.3784-43.5505C61.3707-43.5505 61.3638-41.6805 61.3638-39.5443C61.3638-37.4204 61.3707-35.5505 61.3784-35.5505ZM61.3784-2.55049L62.3492-2.55049C62.357-2.55049 62.3638-4.42045 62.3638-6.54427C62.3638-8.68053 62.357-10.5505 62.3492-10.5505L61.3784-10.5505C61.3707-10.5505 61.3638-8.68053 61.3638-6.54427C61.3638-4.42045 61.3707-2.55049 61.3784-2.55049ZM47.3787-60.5505L48.3495-60.5505C48.3573-60.5505 48.3642-62.4204 48.3642-64.5443C48.3642-66.6805 48.3573-68.5505 48.3495-68.5505L47.3787-68.5505C47.371-68.5505 47.3642-66.6805 47.3642-64.5443C47.3642-62.4204 47.371-60.5505 47.3787-60.5505ZM75.3781-10.5505L76.3489-10.5505C76.3567-10.5505 76.3635-12.4204 76.3635-14.5443C76.3635-16.6805 76.3567-18.5505 76.3489-18.5505L75.3781-18.5505C75.3703-18.5505 75.3635-16.6805 75.3635-14.5443C75.3635-12.4204 75.3703-10.5505 75.3781-10.5505ZM75.3781-43.5505L76.3489-43.5505C76.3567-43.5505 76.3635-45.4204 76.3635-47.5443C76.3635-49.6805 76.3567-51.5505 76.3489-51.5505L75.3781-51.5505C75.3703-51.5505 75.3635-49.6805 75.3635-47.5443C75.3635-45.4204 75.3703-43.5505 75.3781-43.5505ZM75.3781-27.5505L76.3489-27.5505C76.3567-27.5505 76.3635-29.4204 76.3635-31.5443C76.3635-33.6805 76.3567-35.5505 76.3489-35.5505L75.3781-35.5505C75.3703-35.5505 75.3635-33.6805 75.3635-31.5443C75.3635-29.4204 75.3703-27.5505 75.3781-27.5505ZM47.3787-10.5505L48.3495-10.5505C48.3573-10.5505 48.3642-12.4204 48.3642-14.5443C48.3642-16.6805 48.3573-18.5505 48.3495-18.5505L47.3787-18.5505C47.371-18.5505 47.3642-16.6805 47.3642-14.5443C47.3642-12.4204 47.371-10.5505 47.3787-10.5505ZM47.3787-43.5505L48.3495-43.5505C48.3573-43.5505 48.3642-45.4204 48.3642-47.5443C48.3642-49.6805 48.3573-51.5505 48.3495-51.5505L47.3787-51.5505C47.371-51.5505 47.3642-49.6805 47.3642-47.5443C47.3642-45.4204 47.371-43.5505 47.3787-43.5505ZM47.3787-27.5505L48.3495-27.5505C48.3573-27.5505 48.3642-29.4204 48.3642-31.5443C48.3642-33.6805 48.3573-35.5505 48.3495-35.5505L47.3787-35.5505C47.371-35.5505 47.3642-33.6805 47.3642-31.5443C47.3642-29.4204 47.371-27.5505 47.3787-27.5505ZM47.3787-27.5505L48.3495-27.5505C48.3573-27.5505 48.3642-29.4204 48.3642-31.5443C48.3642-33.6805 48.3573-35.5505 48.3495-35.5505L47.3787-35.5505C47.371-35.5505 47.3642-33.6805 47.3642-31.5443C47.3642-29.4204 47.371-27.5505 47.3787-27.5505ZM19.3794-43.5505L20.3502-43.5505C20.358-43.5505 20.3648-45.4204 20.3648-47.5443C20.3648-49.6805 20.358-51.5505 20.3502-51.5505L19.3794-51.5505C19.3717-51.5505 19.3649-49.6805 19.3649-47.5443C19.3649-45.4204 19.3717-43.5505 19.3794-43.5505ZM19.3794-10.5505L20.3502-10.5505C20.358-10.5505 20.3648-12.4204 20.3648-14.5443C20.3648-16.6805 20.358-18.5505 20.3502-18.5505L19.3794-18.5505C19.3717-18.5505 19.3649-16.6805 19.3649-14.5443C19.3649-12.4204 19.3717-10.5505 19.3794-10.5505ZM19.3794-27.5505L20.3502-27.5505C20.358-27.5505 20.3648-29.4204 20.3648-31.5443C20.3648-33.6805 20.358-35.5505 20.3502-35.5505L19.3794-35.5505C19.3717-35.5505 19.3649-33.6805 19.3649-31.5443C19.3649-29.4204 19.3717-27.5505 19.3794-27.5505ZM47.3642 2.23323L48.3642 2.23323C48.3719 2.23323 48.3642 1.28079 48.3642-0.0466C48.3642-1.38176 48.3573-2.55049 48.3495-2.55049L47.3787-2.55049C47.371-2.55049 47.3642-1.38176 47.3642-0.0466C47.3642 1.28079 47.3564 2.23323 47.3642 2.23323ZM61.3784-67.5505L62.3492-67.5505C62.357-67.5505 62.3638-68.018 62.3638-68.5489C62.3638-69.083 62.3716-69.3409 62.3638-69.3409L61.3638-69.74C61.3561-69.74 61.3638-69.083 61.3638-68.5489C61.3638-68.018 61.3707-67.5505 61.3784-67.5505ZM33.3791-67.5505L34.3499-67.5505C34.3577-67.5505 34.3645-68.018 34.3645-68.5489C34.3645-69.083 34.3723-69.5875 34.3645-69.5875L33.3645-69.1693C33.3568-69.1693 33.3645-69.083 33.3645-68.5489C33.3645-68.018 33.3713-67.5505 33.3791-67.5505Z"/>
   <path class="monochrome-3 multicolor-3:tintColor hierarchical-3:primary SFSymbolsPreview007AFF" d="M24.4279-24.0563L24.4279-13.8467C24.4279-12.4834 25.3561-11.4682 26.7773-11.4682L37.0159-11.4682C39.3073-11.4682 39.8874-13.9046 38.4082-15.3839L28.3436-25.4485C26.8643-26.9277 24.4279-26.3476 24.4279-24.0563ZM32.2045-37.4682L42.4141-37.4682C43.7774-37.4682 44.7925-38.3964 44.7925-39.8176L44.7925-50.0562C44.7925-52.3476 42.3561-52.9277 40.8769-51.4485L30.8123-41.3839C29.3331-39.9047 29.9131-37.4682 32.2045-37.4682ZM70.7925-45.4099L70.7925-55.6195C70.7925-56.9828 69.8644-57.9979 68.4431-57.9979L58.2045-57.9979C55.9132-57.9979 55.3331-55.5615 56.8123-54.0823L66.8769-44.0177C68.3561-42.5385 70.7925-43.1185 70.7925-45.4099ZM63.016-31.9979L52.8064-31.9979C51.4431-31.9979 50.4279-31.0698 50.4279-29.6485L50.4279-19.4099C50.4279-17.1186 52.8643-16.5385 54.3436-18.0177L64.4082-28.0823C65.8874-29.5615 65.3073-31.9979 63.016-31.9979ZM70.1435-15.3939L59.637-25.8939C58.7308-26.7995 57.2621-26.7991 56.3564-25.8929C56.3544-25.8908 56.3523-25.8888 56.3502-25.8867C55.4436-24.9726 55.4469-23.4975 56.3575-22.5874L66.8494-12.1018C67.7592-11.1926 69.2337-11.1926 70.1435-12.1018C71.0525-13.0103 71.053-14.4838 70.1445-15.3929C70.1441-15.3932 70.1438-15.3935 70.1435-15.3939ZM25.077-54.062L35.5835-43.5619C36.4896-42.6563 37.9584-42.6567 38.864-43.5629C38.8661-43.565 38.8682-43.5671 38.8702-43.5691C39.7769-44.4832 39.7736-45.9583 38.863-46.8684L28.371-57.354C27.4613-58.2632 25.9868-58.2632 25.077-57.354C24.1679-56.4455 24.1675-54.972 25.076-54.063C25.0763-54.0626 25.0767-54.0623 25.077-54.062ZM40.8545-31.3509L30.3544-20.8445C29.4488-19.9383 29.4492-18.4695 30.3554-17.5639C30.3575-17.5618 30.3596-17.5598 30.3617-17.5577C31.2758-16.6511 32.7509-16.6543 33.661-17.565L44.1465-28.0569C45.0557-28.9667 45.0557-30.4411 44.1465-31.3509C43.238-32.26 41.7646-32.2604 40.8555-31.3519C40.8552-31.3516 40.8548-31.3513 40.8545-31.3509ZM54.366-38.1049L64.866-48.6113C65.7717-49.5175 65.7712-50.9863 64.865-51.8919C64.863-51.894 64.8609-51.896 64.8588-51.8981C63.9447-52.8047 62.4696-52.8015 61.5595-51.8908L51.074-41.3989C50.1647-40.4891 50.1647-39.0147 51.074-38.1049C51.9825-37.1958 53.4559-37.1954 54.365-38.1039C54.3653-38.1042 54.3656-38.1046 54.366-38.1049Z"/>
  </g>
  <g id="Regular-S" transform="matrix(1 0 0 1 1403.58 696)">
   <path class="monochrome-0 multicolor-0:tintColor hierarchical-0:primary SFSymbolsPreview007AFF" d="M44.312 3.3418C65.338 3.3418 82.8359-14.1192 82.8359-35.1582C82.8359-56.1972 65.2904-73.6582 44.2644-73.6582C23.2861-73.6582 5.83594-56.1972 5.83594-35.1582C5.83594-14.1192 23.3338 3.3418 44.312 3.3418Z"/>
   <path class="monochrome-1 multicolor-1:tintColor hierarchical-1:secondary SFSymbolsPreview007AFF" d="M44.0378 1.7918C64.3675 1.7918 81.2859-15.0909 81.2859-35.4332C81.2859-55.7755 64.3214-72.6582 43.9918-72.6582C23.7082-72.6582 6.83594-55.7755 6.83594-35.4332C6.83594-15.0909 23.7543 1.7918 44.0378 1.7918Z"/>
   <path class="monochrome-2 multicolor-2:tintColor hierarchical-2:primary SFSymbolsPreview007AFF" d="M6.83594-35.1475L81.2859-35.1475C81.2859-35.3526 81.2859-35.382 81.2859-35.6475C81.2859-35.9145 81.2859-36.0045 81.2859-36.1475L6.83594-36.1475C6.83594-36.0226 6.83594-35.8095 6.83594-35.6475C6.83594-35.4855 6.83594-35.3007 6.83594-35.1475ZM7.75846-27.1475L80.3577-27.1475C80.3924-27.2915 80.4387-27.5311 80.4674-27.6475C80.4961-27.7639 80.5387-28.0039 80.5725-28.1475L7.54791-28.1475C7.57991-27.979 7.62152-27.7948 7.65106-27.6475C7.6806-27.5001 7.71037-27.3608 7.75846-27.1475ZM7.64927-43.1475L80.4712-43.1475C80.4241-43.3496 80.3956-43.4619 80.3543-43.6475C80.313-43.833 80.2787-43.9802 80.242-44.1475L7.88435-44.1475C7.84968-44.0416 7.78938-43.7601 7.7601-43.6475C7.73082-43.5348 7.68673-43.297 7.64927-43.1475ZM10.3556-51.1475L77.7591-51.1475C77.6958-51.3004 77.5965-51.4859 77.5196-51.6467C77.4428-51.8075 77.3616-51.9844 77.2678-52.1475L10.8431-52.1475C10.7813-52.0253 10.6719-51.8169 10.5911-51.6467C10.5103-51.4765 10.4593-51.3812 10.3556-51.1475ZM11.1124-18.1475L77.0026-18.1475C77.0999-18.3183 77.2128-18.5263 77.2698-18.6475C77.326-18.767 77.445-18.995 77.5137-19.1475L10.6004-19.1475C10.6508-19.0412 10.7683-18.7967 10.8417-18.6475C10.8986-18.532 11.0622-18.2214 11.1124-18.1475ZM16.7405-10.1475L71.3254-10.1475C71.4542-10.2854 71.5461-10.3908 71.7831-10.6475C71.9674-10.8471 72.1286-11.0327 72.2243-11.1475L15.8616-11.1475C15.9458-11.0354 16.1625-10.7914 16.2859-10.6475C16.3378-10.5869 16.663-10.2303 16.7405-10.1475ZM16.3049-60.1475L71.789-60.1475C71.6518-60.3005 71.4553-60.5219 71.3354-60.6475C71.2155-60.7731 70.9884-61.0195 70.8609-61.1475L17.2407-61.1475C17.1133-61.0188 16.8253-60.7263 16.7588-60.6475C16.6923-60.5686 16.4039-60.2565 16.3049-60.1475ZM27.333-2.14749L60.7131-2.14749C60.9845-2.2821 61.5829-2.59399 61.6806-2.64749C61.8015-2.71365 62.3698-3.03034 62.5634-3.14749L25.4742-3.14749C25.65-3.0462 25.8799-2.91375 26.3882-2.64749C26.9157-2.3712 27.1156-2.25898 27.333-2.14749ZM26.0688-67.9605L62.0254-67.9605C61.728-68.1244 61.4246-68.2947 61.0185-68.5021C60.6125-68.7094 60.4484-68.7899 60.0934-68.9605L28.0037-68.9605C27.924-68.9219 27.3387-68.6428 26.9939-68.4597C26.6491-68.2766 26.1634-68.0106 26.0688-67.9605ZM29.365-51.9605L30.3358-51.9605C30.3436-51.9605 30.3504-54.0642 30.3504-56.4535C30.3504-58.8568 30.3436-60.9605 30.3358-60.9605L29.365-60.9605C29.3573-60.9605 29.3505-58.8568 29.3505-56.4535C29.3505-54.0642 29.3573-51.9605 29.365-51.9605ZM29.365-18.9605L30.3358-18.9605C30.3436-18.9605 30.3504-21.0642 30.3504-23.4535C30.3504-25.8568 30.3436-27.9605 30.3358-27.9605L29.365-27.9605C29.3573-27.9605 29.3505-25.8568 29.3505-23.4535C29.3505-21.0642 29.3573-18.9605 29.365-18.9605ZM57.3643-51.9605L58.3351-51.9605C58.3429-51.9605 58.3498-54.0642 58.3498-56.4535C58.3498-58.8568 58.3429-60.9605 58.3351-60.9605L57.3643-60.9605C57.3566-60.9605 57.3498-58.8568 57.3498-56.4535C57.3498-54.0642 57.3566-51.9605 57.3643-51.9605ZM57.3643-18.9605L58.3351-18.9605C58.3429-18.9605 58.3498-21.0642 58.3498-23.4535C58.3498-25.8568 58.3429-27.9605 58.3351-27.9605L57.3643-27.9605C57.3566-27.9605 57.3498-25.8568 57.3498-23.4535C57.3498-21.0642 57.3566-18.9605 57.3643-18.9605ZM29.365-2.96049L30.3358-2.96049C30.3436-2.96049 30.3504-4.83045 30.3504-6.95427C30.3504-9.09053 30.3436-10.9605 30.3358-10.9605L29.365-10.9605C29.3573-10.9605 29.3505-9.09053 29.3505-6.95427C29.3505-4.83045 29.3573-2.96049 29.365-2.96049ZM29.365-35.9605L30.3358-35.9605C30.3436-35.9605 30.3504-37.8304 30.3504-39.9543C30.3504-42.0905 30.3436-43.9605 30.3358-43.9605L29.365-43.9605C29.3573-43.9605 29.3505-42.0905 29.3505-39.9543C29.3505-37.8304 29.3573-35.9605 29.365-35.9605ZM57.3643-35.9605L58.3351-35.9605C58.3429-35.9605 58.3498-37.8304 58.3498-39.9543C58.3498-42.0905 58.3429-43.9605 58.3351-43.9605L57.3643-43.9605C57.3566-43.9605 57.3498-42.0905 57.3498-39.9543C57.3498-37.8304 57.3566-35.9605 57.3643-35.9605ZM57.3643-2.96049L58.3351-2.96049C58.3429-2.96049 58.3498-4.83045 58.3498-6.95427C58.3498-9.09053 58.3429-10.9605 58.3351-10.9605L57.3643-10.9605C57.3566-10.9605 57.3498-9.09053 57.3498-6.95427C57.3498-4.83045 57.3566-2.96049 57.3643-2.96049ZM43.3647-60.9605L44.3355-60.9605C44.3433-60.9605 44.3501-62.8304 44.3501-64.9543C44.3501-67.0905 44.3433-68.9605 44.3355-68.9605L43.3647-68.9605C43.3569-68.9605 43.3501-67.0905 43.3501-64.9543C43.3501-62.8304 43.3569-60.9605 43.3647-60.9605ZM71.364-10.9605L72.3348-10.9605C72.3426-10.9605 72.3494-12.8304 72.3494-14.9543C72.3494-17.0905 72.3426-18.9605 72.3348-18.9605L71.364-18.9605C71.3563-18.9605 71.3494-17.0905 71.3494-14.9543C71.3494-12.8304 71.3563-10.9605 71.364-10.9605ZM71.364-43.9605L72.3348-43.9605C72.3426-43.9605 72.3494-45.8304 72.3494-47.9543C72.3494-50.0905 72.3426-51.9605 72.3348-51.9605L71.364-51.9605C71.3563-51.9605 71.3494-50.0905 71.3494-47.9543C71.3494-45.8304 71.3563-43.9605 71.364-43.9605ZM71.364-27.9605L72.3348-27.9605C72.3426-27.9605 72.3494-29.8304 72.3494-31.9543C72.3494-34.0905 72.3426-35.9605 72.3348-35.9605L71.364-35.9605C71.3563-35.9605 71.3494-34.0905 71.3494-31.9543C71.3494-29.8304 71.3563-27.9605 71.364-27.9605ZM43.3647-10.9605L44.3355-10.9605C44.3433-10.9605 44.3501-12.8304 44.3501-14.9543C44.3501-17.0905 44.3433-18.9605 44.3355-18.9605L43.3647-18.9605C43.3569-18.9605 43.3501-17.0905 43.3501-14.9543C43.3501-12.8304 43.3569-10.9605 43.3647-10.9605ZM43.3647-43.9605L44.3355-43.9605C44.3433-43.9605 44.3501-45.8304 44.3501-47.9543C44.3501-50.0905 44.3433-51.9605 44.3355-51.9605L43.3647-51.9605C43.3569-51.9605 43.3501-50.0905 43.3501-47.9543C43.3501-45.8304 43.3569-43.9605 43.3647-43.9605ZM43.3647-27.9605L44.3355-27.9605C44.3433-27.9605 44.3501-29.8304 44.3501-31.9543C44.3501-34.0905 44.3433-35.9605 44.3355-35.9605L43.3647-35.9605C43.3569-35.9605 43.3501-34.0905 43.3501-31.9543C43.3501-29.8304 43.3569-27.9605 43.3647-27.9605ZM43.3647-27.9605L44.3355-27.9605C44.3433-27.9605 44.3501-29.8304 44.3501-31.9543C44.3501-34.0905 44.3433-35.9605 44.3355-35.9605L43.3647-35.9605C43.3569-35.9605 43.3501-34.0905 43.3501-31.9543C43.3501-29.8304 43.3569-27.9605 43.3647-27.9605ZM15.3654-43.9605L16.3362-43.9605C16.344-43.9605 16.3508-45.8304 16.3508-47.9543C16.3508-50.0905 16.344-51.9605 16.3362-51.9605L15.3654-51.9605C15.3576-51.9605 15.3508-50.0905 15.3508-47.9543C15.3508-45.8304 15.3576-43.9605 15.3654-43.9605ZM15.3654-10.9605L16.3362-10.9605C16.344-10.9605 16.3508-12.8304 16.3508-14.9543C16.3508-17.0905 16.344-18.9605 16.3362-18.9605L15.3654-18.9605C15.3576-18.9605 15.3508-17.0905 15.3508-14.9543C15.3508-12.8304 15.3576-10.9605 15.3654-10.9605ZM15.3654-27.9605L16.3362-27.9605C16.344-27.9605 16.3508-29.8304 16.3508-31.9543C16.3508-34.0905 16.344-35.9605 16.3362-35.9605L15.3654-35.9605C15.3576-35.9605 15.3508-34.0905 15.3508-31.9543C15.3508-29.8304 15.3576-27.9605 15.3654-27.9605ZM43.3501 1.82323L44.3501 1.82323C44.3579 1.82323 44.3501 0.870789 44.3501-0.4566C44.3501-1.79176 44.3433-2.96049 44.3355-2.96049L43.3647-2.96049C43.3569-2.96049 43.3501-1.79176 43.3501-0.4566C43.3501 0.870789 43.3424 1.82323 43.3501 1.82323ZM57.3643-67.9605L58.3351-67.9605C58.3429-67.9605 58.3498-68.428 58.3498-68.9589C58.3498-69.493 58.3575-69.7509 58.3498-69.7509L57.3498-70.15C57.342-70.15 57.3498-69.493 57.3498-68.9589C57.3498-68.428 57.3566-67.9605 57.3643-67.9605ZM29.365-67.9605L30.3358-67.9605C30.3436-67.9605 30.3504-68.428 30.3504-68.9589C30.3504-69.493 30.3582-69.9975 30.3504-69.9975L29.3505-69.5793C29.3427-69.5793 29.3505-69.493 29.3505-68.9589C29.3505-68.428 29.3573-67.9605 29.365-67.9605Z"/>
   <path class="monochrome-3 multicolor-3:tintColor hierarchical-3:primary SFSymbolsPreview007AFF" d="M20.0554-25.0584L20.0554-14.8487C20.0554-13.4855 20.9836-12.4703 22.4048-12.4703L32.6434-12.4703C34.9348-12.4703 35.5149-14.9067 34.0357-16.3859L23.971-26.4505C22.4918-27.9298 20.0554-27.3497 20.0554-25.0584ZM27.832-38.4703L38.0416-38.4703C39.4048-38.4703 40.42-39.3985 40.42-40.8197L40.42-51.0583C40.42-53.3497 37.9836-53.9298 36.5044-52.4506L26.4398-42.3859C24.9606-40.9067 25.5406-38.4703 27.832-38.4703ZM66.42-46.4119L66.42-56.6216C66.42-57.9848 65.4919-59 64.0706-59L53.832-59C51.5407-59 50.9605-56.5636 52.4398-55.0844L62.5044-45.0198C63.9836-43.5405 66.42-44.1206 66.42-46.4119ZM58.6434-33L48.4338-33C47.0706-33 46.0554-32.0718 46.0554-30.6506L46.0554-20.412C46.0554-18.1206 48.4918-17.5405 49.971-19.0197L60.0356-29.0844C61.5149-30.5636 60.9348-33 58.6434-33ZM65.7709-16.3959L55.2645-26.896C54.3583-27.8016 52.8895-27.8012 51.9839-26.895C51.9818-26.8929 51.9798-26.8908 51.9777-26.8887C51.0711-25.9747 51.0743-24.4995 51.985-23.5894L62.4769-13.1039C63.3867-12.1947 64.8611-12.1947 65.7709-13.1039C66.68-14.0124 66.6804-15.4858 65.7719-16.3949C65.7716-16.3952 65.7713-16.3956 65.7709-16.3959ZM20.7045-55.064L31.2109-44.564C32.1171-43.6583 33.5859-43.6588 34.4915-44.565C34.4936-44.567 34.4956-44.5691 34.4977-44.5712C35.4043-45.4853 35.4011-46.9604 34.4904-47.8705L23.9985-58.356C23.0887-59.2653 21.6143-59.2653 20.7045-58.356C19.7954-57.4475 19.795-55.9741 20.7035-55.065C20.7038-55.0647 20.7041-55.0644 20.7045-55.064ZM36.482-32.353L25.9819-21.8465C25.0763-20.9404 25.0767-19.4716 25.9829-18.566C25.985-18.5639 25.9871-18.5618 25.9891-18.5598C26.9032-17.6531 28.3783-17.6564 29.2884-18.567L39.774-29.059C40.6832-29.9687 40.6832-31.4432 39.774-32.353C38.8655-33.2621 37.392-33.2625 36.483-32.354C36.4826-32.3537 36.4823-32.3533 36.482-32.353ZM49.9934-39.1069L60.4935-49.6134C61.3991-50.5196 61.3987-51.9883 60.4925-52.894C60.4904-52.896 60.4884-52.8981 60.4863-52.9002C59.5722-53.8068 58.0971-53.8035 57.187-52.8929L46.7014-42.401C45.7922-41.4912 45.7922-40.0167 46.7014-39.1069C47.6099-38.1979 49.0834-38.1974 49.9924-39.1059C49.9928-39.1063 49.9931-39.1066 49.9934-39.1069Z"/>
  </g>
  <g id="Ultralight-S" transform="matrix(1 0 0 1 515.649 696)">
   <path class="monochrome-0 multicolor-0:tintColor hierarchical-0:primary SFSymbolsPreview007AFF" d="M42.8493 3.5215C63.992 3.5215 81.351-13.8347 81.351-34.9785C81.351-56.1223 63.9885-73.4785 42.8457-73.4785C21.6595-73.4785 4.351-56.1223 4.351-34.9785C4.351-13.8347 21.663 3.5215 42.8493 3.5215Z"/>
   <path class="monochrome-1 multicolor-1:tintColor hierarchical-1:secondary SFSymbolsPreview007AFF" d="M42.5757 1.97072C63.019 1.97072 79.8037-14.8105 79.8037-35.2539C79.8037-55.6973 63.0156-72.4785 42.5722-72.4785C22.0869-72.4785 5.351-55.6973 5.351-35.2539C5.351-14.8105 22.0903 1.97072 42.5757 1.97072Z"/>
   <path class="monochrome-2 multicolor-2:tintColor hierarchical-2:primary SFSymbolsPreview007AFF" d="M5.83594-35L80.2877-35C80.2877-35.2051 80.2877-35.2345 80.2877-35.5C80.2877-35.767 80.2877-35.857 80.2877-36L5.83594-36C5.83594-35.8751 5.83594-35.662 5.83594-35.5C5.83594-35.338 5.83594-35.1532 5.83594-35ZM6.75849-27L79.3594-27C79.3942-27.144 79.4405-27.3836 79.4692-27.5C79.4979-27.6164 79.5405-27.8564 79.5742-28L6.54793-28C6.57993-27.8315 6.62154-27.6473 6.65108-27.5C6.68062-27.3527 6.71039-27.2133 6.75849-27ZM6.64929-43L79.4729-43C79.4259-43.2021 79.3973-43.3145 79.356-43.5C79.3147-43.6855 79.2805-43.8327 79.2437-44L6.88437-44C6.8497-43.8941 6.7894-43.6126 6.76012-43.5C6.73084-43.3874 6.68675-43.1495 6.64929-43ZM9.35573-51L76.7608-51C76.6975-51.1529 76.5982-51.3384 76.5213-51.4992C76.4445-51.66 76.3633-51.8369 76.2695-52L9.84319-52C9.78137-51.8779 9.67198-51.6694 9.59117-51.4992C9.51036-51.3291 9.45936-51.2337 9.35573-51ZM10.1125-18L76.0043-18C76.1016-18.1708 76.2145-18.3788 76.2715-18.5C76.3277-18.6195 76.4467-18.8475 76.5154-19L9.60054-19C9.6509-18.8937 9.76837-18.6493 9.84184-18.5C9.89868-18.3845 10.0623-18.0739 10.1125-18ZM15.7408-10L70.327-10C70.4558-10.1379 70.5476-10.2433 70.7847-10.5C70.969-10.6996 71.1301-10.8852 71.2259-11L14.8618-11C14.9461-10.8879 15.1628-10.6439 15.2861-10.5C15.3381-10.4394 15.6632-10.0828 15.7408-10ZM15.3051-60L70.7906-60C70.6534-60.153 70.4569-60.3744 70.337-60.5C70.2171-60.6256 69.9899-60.872 69.8624-61L16.241-61C16.1135-60.8713 15.8255-60.5789 15.759-60.5C15.6926-60.4211 15.4041-60.109 15.3051-60ZM26.3335-2L59.7144-2C59.9858-2.13461 60.5842-2.44651 60.6819-2.5C60.8028-2.56616 61.3712-2.88286 61.5648-3L24.4746-3C24.6504-2.89871 24.8804-2.76626 25.3887-2.5C25.9162-2.22371 26.1161-2.1115 26.3335-2ZM25.0692-67.813L61.0267-67.813C60.7294-67.9769 60.4259-68.1473 60.0198-68.3546C59.6138-68.5619 59.4497-68.6424 59.0947-68.813L27.0042-68.813C26.9245-68.7744 26.3392-68.4953 25.9944-68.3122C25.6496-68.1291 25.1638-67.8631 25.0692-67.813ZM28.3656-51.813L29.3364-51.813C29.3442-51.813 29.351-53.9167 29.351-56.306C29.351-58.7093 29.3442-60.813 29.3364-60.813L28.3656-60.813C28.3578-60.813 28.351-58.7093 28.351-56.306C28.351-53.9167 28.3578-51.813 28.3656-51.813ZM28.3656-18.813L29.3364-18.813C29.3442-18.813 29.351-20.9167 29.351-23.306C29.351-25.7093 29.3442-27.813 29.3364-27.813L28.3656-27.813C28.3578-27.813 28.351-25.7093 28.351-23.306C28.351-20.9167 28.3578-18.813 28.3656-18.813ZM56.3656-51.813L57.3364-51.813C57.3442-51.813 57.351-53.9167 57.351-56.306C57.351-58.7093 57.3442-60.813 57.3364-60.813L56.3656-60.813C56.3578-60.813 56.351-58.7093 56.351-56.306C56.351-53.9167 56.3578-51.813 56.3656-51.813ZM56.3656-18.813L57.3364-18.813C57.3442-18.813 57.351-20.9167 57.351-23.306C57.351-25.7093 57.3442-27.813 57.3364-27.813L56.3656-27.813C56.3578-27.813 56.351-25.7093 56.351-23.306C56.351-20.9167 56.3578-18.813 56.3656-18.813ZM28.3656-2.813L29.3364-2.813C29.3442-2.813 29.351-4.68296 29.351-6.80678C29.351-8.94304 29.3442-10.813 29.3364-10.813L28.3656-10.813C28.3578-10.813 28.351-8.94304 28.351-6.80678C28.351-4.68296 28.3578-2.813 28.3656-2.813ZM28.3656-35.813L29.3364-35.813C29.3442-35.813 29.351-37.683 29.351-39.8068C29.351-41.943 29.3442-43.813 29.3364-43.813L28.3656-43.813C28.3578-43.813 28.351-41.943 28.351-39.8068C28.351-37.683 28.3578-35.813 28.3656-35.813ZM56.3656-35.813L57.3364-35.813C57.3442-35.813 57.351-37.683 57.351-39.8068C57.351-41.943 57.3442-43.813 57.3364-43.813L56.3656-43.813C56.3578-43.813 56.351-41.943 56.351-39.8068C56.351-37.683 56.3578-35.813 56.3656-35.813ZM56.3656-2.813L57.3364-2.813C57.3442-2.813 57.351-4.68296 57.351-6.80678C57.351-8.94304 57.3442-10.813 57.3364-10.813L56.3656-10.813C56.3578-10.813 56.351-8.94304 56.351-6.80678C56.351-4.68296 56.3578-2.813 56.3656-2.813ZM42.3656-60.813L43.3364-60.813C43.3442-60.813 43.351-62.683 43.351-64.8068C43.351-66.943 43.3442-68.813 43.3364-68.813L42.3656-68.813C42.3578-68.813 42.351-66.943 42.351-64.8068C42.351-62.683 42.3578-60.813 42.3656-60.813ZM70.3656-10.813L71.3364-10.813C71.3442-10.813 71.351-12.683 71.351-14.8068C71.351-16.943 71.3442-18.813 71.3364-18.813L70.3656-18.813C70.3578-18.813 70.351-16.943 70.351-14.8068C70.351-12.683 70.3578-10.813 70.3656-10.813ZM70.3656-43.813L71.3364-43.813C71.3442-43.813 71.351-45.683 71.351-47.8068C71.351-49.943 71.3442-51.813 71.3364-51.813L70.3656-51.813C70.3578-51.813 70.351-49.943 70.351-47.8068C70.351-45.683 70.3578-43.813 70.3656-43.813ZM70.3656-27.813L71.3364-27.813C71.3442-27.813 71.351-29.683 71.351-31.8068C71.351-33.943 71.3442-35.813 71.3364-35.813L70.3656-35.813C70.3578-35.813 70.351-33.943 70.351-31.8068C70.351-29.683 70.3578-27.813 70.3656-27.813ZM42.3656-10.813L43.3364-10.813C43.3442-10.813 43.351-12.683 43.351-14.8068C43.351-16.943 43.3442-18.813 43.3364-18.813L42.3656-18.813C42.3578-18.813 42.351-16.943 42.351-14.8068C42.351-12.683 42.3578-10.813 42.3656-10.813ZM42.3656-43.813L43.3364-43.813C43.3442-43.813 43.351-45.683 43.351-47.8068C43.351-49.943 43.3442-51.813 43.3364-51.813L42.3656-51.813C42.3578-51.813 42.351-49.943 42.351-47.8068C42.351-45.683 42.3578-43.813 42.3656-43.813ZM42.3656-27.813L43.3364-27.813C43.3442-27.813 43.351-29.683 43.351-31.8068C43.351-33.943 43.3442-35.813 43.3364-35.813L42.3656-35.813C42.3578-35.813 42.351-33.943 42.351-31.8068C42.351-29.683 42.3578-27.813 42.3656-27.813ZM42.3656-27.813L43.3364-27.813C43.3442-27.813 43.351-29.683 43.351-31.8068C43.351-33.943 43.3442-35.813 43.3364-35.813L42.3656-35.813C42.3578-35.813 42.351-33.943 42.351-31.8068C42.351-29.683 42.3578-27.813 42.3656-27.813ZM14.3656-43.813L15.3364-43.813C15.3442-43.813 15.351-45.683 15.351-47.8068C15.351-49.943 15.3442-51.813 15.3364-51.813L14.3656-51.813C14.3578-51.813 14.351-49.943 14.351-47.8068C14.351-45.683 14.3578-43.813 14.3656-43.813ZM14.3656-10.813L15.3364-10.813C15.3442-10.813 15.351-12.683 15.351-14.8068C15.351-16.943 15.3442-18.813 15.3364-18.813L14.3656-18.813C14.3578-18.813 14.351-16.943 14.351-14.8068C14.351-12.683 14.3578-10.813 14.3656-10.813ZM14.3656-27.813L15.3364-27.813C15.3442-27.813 15.351-29.683 15.351-31.8068C15.351-33.943 15.3442-35.813 15.3364-35.813L14.3656-35.813C14.3578-35.813 14.351-33.943 14.351-31.8068C14.351-29.683 14.3578-27.813 14.3656-27.813ZM42.351 1.97072L43.351 1.97072C43.3588 1.97072 43.351 1.01828 43.351-0.309113C43.351-1.64428 43.3442-2.813 43.3364-2.813L42.3656-2.813C42.3578-2.813 42.351-1.64428 42.351-0.309113C42.351 1.01828 42.3433 1.97072 42.351 1.97072ZM56.3656-67.813L57.3364-67.813C57.3442-67.813 57.351-68.2805 57.351-68.8114C57.351-69.3455 57.3588-69.6034 57.351-69.6034L56.351-70.0025C56.3433-70.0025 56.351-69.3455 56.351-68.8114C56.351-68.2805 56.3578-67.813 56.3656-67.813ZM28.3656-67.813L29.3364-67.813C29.3442-67.813 29.351-68.2805 29.351-68.8114C29.351-69.3455 29.3588-69.85 29.351-69.85L28.351-69.4318C28.3433-69.4318 28.351-69.3455 28.351-68.8114C28.351-68.2805 28.3578-67.813 28.3656-67.813Z"/>
   <path class="monochrome-3 multicolor-3:tintColor hierarchical-3:primary SFSymbolsPreview007AFF" d="M20.3489-25.0563L20.3489-14.8467C20.3489-13.4834 21.2771-12.4682 22.6983-12.4682L32.9369-12.4682C35.2283-12.4682 35.8084-14.9046 34.3292-16.3839L24.2646-26.4485C22.7853-27.9277 20.3489-27.3476 20.3489-25.0563ZM28.1255-38.4682L38.3351-38.4682C39.6984-38.4682 40.7135-39.3964 40.7135-40.8176L40.7135-51.0562C40.7135-53.3476 38.2771-53.9277 36.7979-52.4485L26.7333-42.3839C25.2541-40.9047 25.8341-38.4682 28.1255-38.4682ZM66.7135-46.4099L66.7135-56.6195C66.7135-57.9828 65.7854-58.9979 64.3641-58.9979L54.1255-58.9979C51.8342-58.9979 51.2541-56.5615 52.7333-55.0823L62.7979-45.0177C64.2771-43.5385 66.7135-44.1185 66.7135-46.4099ZM58.937-32.9979L48.7274-32.9979C47.3641-32.9979 46.3489-32.0698 46.3489-30.6485L46.3489-20.4099C46.3489-18.1186 48.7853-17.5385 50.2646-19.0177L60.3292-29.0823C61.8084-30.5615 61.2283-32.9979 58.937-32.9979ZM66.0645-16.3939L55.558-26.8939C54.6518-27.7995 53.1831-27.7991 52.2774-26.8929C52.2754-26.8908 52.2733-26.8888 52.2712-26.8867C51.3646-25.9726 51.3679-24.4975 52.2785-23.5874L62.7704-13.1018C63.6802-12.1926 65.1547-12.1926 66.0645-13.1018C66.9735-14.0103 66.974-15.4838 66.0655-16.3929C66.0651-16.3932 66.0648-16.3935 66.0645-16.3939ZM20.998-55.062L31.5045-44.5619C32.4106-43.6563 33.8794-43.6567 34.785-44.5629C34.7871-44.565 34.7892-44.5671 34.7912-44.5691C35.6979-45.4832 35.6946-46.9583 34.784-47.8684L24.292-58.354C23.3823-59.2632 21.9078-59.2632 20.998-58.354C20.0889-57.4455 20.0885-55.972 20.997-55.063C20.9973-55.0626 20.9977-55.0623 20.998-55.062ZM36.7755-32.3509L26.2754-21.8445C25.3698-20.9383 25.3702-19.4695 26.2764-18.5639C26.2785-18.5618 26.2806-18.5598 26.2827-18.5577C27.1968-17.6511 28.6719-17.6543 29.582-18.565L40.0675-29.0569C40.9767-29.9667 40.9767-31.4411 40.0675-32.3509C39.159-33.26 37.6856-33.2604 36.7765-32.3519C36.7762-32.3516 36.7758-32.3513 36.7755-32.3509ZM50.287-39.1049L60.787-49.6113C61.6927-50.5175 61.6922-51.9863 60.786-52.8919C60.784-52.894 60.7819-52.896 60.7798-52.8981C59.8657-53.8047 58.3906-53.8015 57.4805-52.8908L46.995-42.3989C46.0857-41.4891 46.0857-40.0147 46.995-39.1049C47.9035-38.1958 49.3769-38.1954 50.286-39.1039C50.2863-39.1042 50.2866-39.1046 50.287-39.1049Z"/>
  </g>
 </g>
</svg>
