<?xml version="1.0" encoding="UTF-8"?>
<!--Generator: Apple Native CoreSVG 341-->
<!DOCTYPE svg
PUBLIC "-//W3C//DTD SVG 1.1//EN"
       "http://www.w3.org/Graphics/SVG/1.1/DTD/svg11.dtd">
<svg version="1.1" xmlns="http://www.w3.org/2000/svg" xmlns:xlink="http://www.w3.org/1999/xlink" viewBox="0 0 3300 2200">
 <!--glyph: "", point size: 100.0, font version: "21.0d4e1", template writer version: "138.0.0"-->
 <style>.defaults {-sfsymbols-variable-value-mode:color;-sfsymbols-draw-reverses-motion-groups:true}

.monochrome-0 {-sfsymbols-variable-threshold:0.0;-sfsymbols-motion-group:11;-sfsymbols-layer-tags:56820e428483c6f1}
.monochrome-1 {-sfsymbols-variable-threshold:0.09;-sfsymbols-motion-group:10;-sfsymbols-layer-tags:56820e428483c6f1}
.monochrome-2 {-sfsymbols-variable-threshold:0.18;-sfsymbols-motion-group:9;-sfsymbols-layer-tags:56820e428483c6f1}
.monochrome-3 {-sfsymbols-variable-threshold:0.26;-sfsymbols-motion-group:8;-sfsymbols-layer-tags:56820e428483c6f1}
.monochrome-4 {-sfsymbols-variable-threshold:0.34;-sfsymbols-motion-group:7;-sfsymbols-layer-tags:56820e428483c6f1}
.monochrome-5 {-sfsymbols-variable-threshold:0.43;-sfsymbols-motion-group:6;-sfsymbols-layer-tags:56820e428483c6f1}
.monochrome-6 {-sfsymbols-variable-threshold:0.51;-sfsymbols-motion-group:5;-sfsymbols-layer-tags:56820e428483c6f1}
.monochrome-7 {-sfsymbols-variable-threshold:0.59;-sfsymbols-motion-group:4;-sfsymbols-layer-tags:56820e428483c6f1}
.monochrome-8 {-sfsymbols-variable-threshold:0.68;-sfsymbols-motion-group:3;-sfsymbols-layer-tags:56820e428483c6f1}
.monochrome-9 {-sfsymbols-variable-threshold:0.76;-sfsymbols-motion-group:2;-sfsymbols-layer-tags:56820e428483c6f1}
.monochrome-10 {-sfsymbols-variable-threshold:0.84;-sfsymbols-motion-group:1;-sfsymbols-layer-tags:56820e428483c6f1}
.monochrome-11 {-sfsymbols-variable-threshold:0.93;-sfsymbols-motion-group:0;-sfsymbols-layer-tags:56820e428483c6f1}

.multicolor-0:systemBlueColor {-sfsymbols-variable-threshold:0.0;-sfsymbols-motion-group:11;-sfsymbols-layer-tags:56820e428483c6f1}
.multicolor-1:systemCyanColor {-sfsymbols-variable-threshold:0.09;-sfsymbols-motion-group:10;-sfsymbols-layer-tags:56820e428483c6f1}
.multicolor-2:systemBlueColor {-sfsymbols-variable-threshold:0.18;-sfsymbols-motion-group:9;-sfsymbols-layer-tags:56820e428483c6f1}
.multicolor-3:systemCyanColor {-sfsymbols-variable-threshold:0.26;-sfsymbols-motion-group:8;-sfsymbols-layer-tags:56820e428483c6f1}
.multicolor-4:systemBlueColor {-sfsymbols-variable-threshold:0.34;-sfsymbols-motion-group:7;-sfsymbols-layer-tags:56820e428483c6f1}
.multicolor-5:systemCyanColor {-sfsymbols-variable-threshold:0.43;-sfsymbols-motion-group:6;-sfsymbols-layer-tags:56820e428483c6f1}
.multicolor-6:systemBlueColor {-sfsymbols-variable-threshold:0.51;-sfsymbols-motion-group:5;-sfsymbols-layer-tags:56820e428483c6f1}
.multicolor-7:systemCyanColor {-sfsymbols-variable-threshold:0.59;-sfsymbols-motion-group:4;-sfsymbols-layer-tags:56820e428483c6f1}
.multicolor-8:systemBlueColor {-sfsymbols-variable-threshold:0.68;-sfsymbols-motion-group:3;-sfsymbols-layer-tags:56820e428483c6f1}
.multicolor-9:systemCyanColor {-sfsymbols-variable-threshold:0.76;-sfsymbols-motion-group:2;-sfsymbols-layer-tags:56820e428483c6f1}
.multicolor-10:systemBlueColor {-sfsymbols-variable-threshold:0.84;-sfsymbols-motion-group:1;-sfsymbols-layer-tags:56820e428483c6f1}
.multicolor-11:systemCyanColor {-sfsymbols-variable-threshold:0.93;-sfsymbols-motion-group:0;-sfsymbols-layer-tags:56820e428483c6f1}

.hierarchical-0:primary {-sfsymbols-variable-threshold:0.0;-sfsymbols-motion-group:11;-sfsymbols-layer-tags:56820e428483c6f1}
.hierarchical-1:tertiary {-sfsymbols-variable-threshold:0.09;-sfsymbols-motion-group:10;-sfsymbols-layer-tags:56820e428483c6f1}
.hierarchical-2:secondary {-sfsymbols-variable-threshold:0.18;-sfsymbols-motion-group:9;-sfsymbols-layer-tags:56820e428483c6f1}
.hierarchical-3:primary {-sfsymbols-variable-threshold:0.26;-sfsymbols-motion-group:8;-sfsymbols-layer-tags:56820e428483c6f1}
.hierarchical-4:tertiary {-sfsymbols-variable-threshold:0.34;-sfsymbols-motion-group:7;-sfsymbols-layer-tags:56820e428483c6f1}
.hierarchical-5:secondary {-sfsymbols-variable-threshold:0.43;-sfsymbols-motion-group:6;-sfsymbols-layer-tags:56820e428483c6f1}
.hierarchical-6:primary {-sfsymbols-variable-threshold:0.51;-sfsymbols-motion-group:5;-sfsymbols-layer-tags:56820e428483c6f1}
.hierarchical-7:tertiary {-sfsymbols-variable-threshold:0.59;-sfsymbols-motion-group:4;-sfsymbols-layer-tags:56820e428483c6f1}
.hierarchical-8:secondary {-sfsymbols-variable-threshold:0.68;-sfsymbols-motion-group:3;-sfsymbols-layer-tags:56820e428483c6f1}
.hierarchical-9:primary {-sfsymbols-variable-threshold:0.76;-sfsymbols-motion-group:2;-sfsymbols-layer-tags:56820e428483c6f1}
.hierarchical-10:tertiary {-sfsymbols-variable-threshold:0.84;-sfsymbols-motion-group:1;-sfsymbols-layer-tags:56820e428483c6f1}
.hierarchical-11:secondary {-sfsymbols-variable-threshold:0.93;-sfsymbols-motion-group:0;-sfsymbols-layer-tags:56820e428483c6f1}

.SFSymbolsPreviewWireframe {fill:none;opacity:1.0;stroke:black;stroke-width:0.5}
</style>
 <g id="Notes">
  <rect height="2200" id="artboard" style="fill:white;opacity:1" width="3300" x="0" y="0"/>
  <line style="fill:none;stroke:black;opacity:1;stroke-width:0.5;" x1="263" x2="3036" y1="292" y2="292"/>
  <text style="stroke:none;fill:black;font-family:sans-serif;font-size:13;font-weight:bold;" transform="matrix(1 0 0 1 263 322)">Weight/Scale Variations</text>
  <text style="stroke:none;fill:black;font-family:sans-serif;font-size:13;text-anchor:middle;" transform="matrix(1 0 0 1 559.711 322)">Ultralight</text>
  <text style="stroke:none;fill:black;font-family:sans-serif;font-size:13;text-anchor:middle;" transform="matrix(1 0 0 1 856.422 322)">Thin</text>
  <text style="stroke:none;fill:black;font-family:sans-serif;font-size:13;text-anchor:middle;" transform="matrix(1 0 0 1 1153.13 322)">Light</text>
  <text style="stroke:none;fill:black;font-family:sans-serif;font-size:13;text-anchor:middle;" transform="matrix(1 0 0 1 1449.84 322)">Regular</text>
  <text style="stroke:none;fill:black;font-family:sans-serif;font-size:13;text-anchor:middle;" transform="matrix(1 0 0 1 1746.56 322)">Medium</text>
  <text style="stroke:none;fill:black;font-family:sans-serif;font-size:13;text-anchor:middle;" transform="matrix(1 0 0 1 2043.27 322)">Semibold</text>
  <text style="stroke:none;fill:black;font-family:sans-serif;font-size:13;text-anchor:middle;" transform="matrix(1 0 0 1 2339.98 322)">Bold</text>
  <text style="stroke:none;fill:black;font-family:sans-serif;font-size:13;text-anchor:middle;" transform="matrix(1 0 0 1 2636.69 322)">Heavy</text>
  <text style="stroke:none;fill:black;font-family:sans-serif;font-size:13;text-anchor:middle;" transform="matrix(1 0 0 1 2933.4 322)">Black</text>
  <line style="fill:none;stroke:black;opacity:1;stroke-width:0.5;" x1="263" x2="3036" y1="1903" y2="1903"/>
  <g transform="matrix(0.2 0 0 0.2 263 1933)">
   <path d="m46.2402 4.15039c21.7773 0 39.4531-17.627 39.4531-39.4043s-17.6758-39.4043-39.4531-39.4043c-21.7285 0-39.4043 17.627-39.4043 39.4043s17.6758 39.4043 39.4043 39.4043Zm0-7.42188c-17.6758 0-31.9336-14.3066-31.9336-31.9824s14.2578-31.9824 31.9336-31.9824 31.9824 14.3066 31.9824 31.9824-14.3066 31.9824-31.9824 31.9824Zm3.61328-17.7734v-28.4668c0-2.24609-1.46484-3.75977-3.71094-3.75977-2.14844 0-3.61328 1.51367-3.61328 3.75977v28.4668c0 2.19727 1.46484 3.71094 3.61328 3.71094 2.24609 0 3.71094-1.51367 3.71094-3.71094Zm-17.8223-10.5957h28.418c2.19727 0 3.71094-1.46484 3.71094-3.61328 0-2.19727-1.51367-3.71094-3.71094-3.71094h-28.418c-2.24609 0-3.75977 1.51367-3.75977 3.71094 0 2.14844 1.51367 3.61328 3.75977 3.61328Z"/>
  </g>
  <g transform="matrix(0.2 0 0 0.2 281.506 1933)">
   <path d="m58.5449 14.5508c27.4902 0 49.8047-22.3145 49.8047-49.8047s-22.3145-49.8047-49.8047-49.8047-49.8047 22.3145-49.8047 49.8047 22.3145 49.8047 49.8047 49.8047Zm0-8.30078c-22.9492 0-41.5039-18.5547-41.5039-41.5039s18.5547-41.5039 41.5039-41.5039 41.5039 18.5547 41.5039 41.5039-18.5547 41.5039-41.5039 41.5039Zm4.05273-23.0957v-36.9141c0-2.49023-1.70898-4.19922-4.15039-4.19922-2.39258 0-4.05273 1.70898-4.05273 4.19922v36.9141c0 2.44141 1.66016 4.15039 4.05273 4.15039 2.44141 0 4.15039-1.66016 4.15039-4.15039Zm-22.5586-14.4043h36.9629c2.44141 0 4.15039-1.61133 4.15039-4.00391 0-2.44141-1.70898-4.15039-4.15039-4.15039h-36.9629c-2.49023 0-4.15039 1.70898-4.15039 4.15039 0 2.39258 1.66016 4.00391 4.15039 4.00391Z"/>
  </g>
  <g transform="matrix(0.2 0 0 0.2 304.924 1933)">
   <path d="m74.8535 28.3203c35.1074 0 63.623-28.4668 63.623-63.5742s-28.5156-63.623-63.623-63.623-63.5742 28.5156-63.5742 63.623 28.4668 63.5742 63.5742 63.5742Zm0-9.08203c-30.127 0-54.4922-24.3652-54.4922-54.4922s24.3652-54.4922 54.4922-54.4922 54.4922 24.3652 54.4922 54.4922-24.3652 54.4922-54.4922 54.4922Zm4.44336-30.3223v-48.4863c0-2.73438-1.85547-4.63867-4.54102-4.63867-2.58789 0-4.44336 1.9043-4.44336 4.63867v48.4863c0 2.68555 1.85547 4.58984 4.44336 4.58984 2.68555 0 4.54102-1.85547 4.54102-4.58984Zm-28.7109-19.7754h48.4863c2.68555 0 4.58984-1.80664 4.58984-4.39453 0-2.73438-1.85547-4.58984-4.58984-4.58984h-48.4863c-2.73438 0-4.58984 1.85547-4.58984 4.58984 0 2.58789 1.85547 4.39453 4.58984 4.39453Z"/>
  </g>
  <text style="stroke:none;fill:black;font-family:sans-serif;font-size:13;font-weight:bold;" transform="matrix(1 0 0 1 263 1953)">Design Variations</text>
  <text style="stroke:none;fill:black;font-family:sans-serif;font-size:13;" transform="matrix(1 0 0 1 263 1971)">Symbols are supported in up to nine weights and three scales.</text>
  <text style="stroke:none;fill:black;font-family:sans-serif;font-size:13;" transform="matrix(1 0 0 1 263 1989)">For optimal layout with text and other symbols, vertically align</text>
  <text style="stroke:none;fill:black;font-family:sans-serif;font-size:13;" transform="matrix(1 0 0 1 263 2007)">symbols with the adjacent text.</text>
  <line style="fill:none;stroke:#00AEEF;stroke-width:0.5;opacity:1.0;" x1="776" x2="776" y1="1919" y2="1933"/>
  <g transform="matrix(0.2 0 0 0.2 776 1933)">
   <path d="m16.5527 0.78125c2.58789 0 3.85742-0.976562 4.78516-3.71094l20.5566-57.5195h0.244141l20.6055 57.5195c0.927734 2.73438 2.19727 3.71094 4.73633 3.71094 2.58789 0 4.24805-1.5625 4.24805-4.00391 0-0.830078-0.146484-1.61133-0.537109-2.63672l-22.9004-60.9863c-1.12305-2.97852-3.125-4.49219-6.25-4.49219-3.02734 0-5.07812 1.46484-6.15234 4.44336l-22.9004 61.084c-0.390625 1.02539-0.537109 1.80664-0.537109 2.63672 0 2.44141 1.5625 3.95508 4.10156 3.95508Zm10.2051-20.9473h30.6641c2.00195 0 3.66211-1.66016 3.66211-3.66211 0-2.05078-1.66016-3.66211-3.66211-3.66211h-30.6641c-2.00195 0-3.66211 1.61133-3.66211 3.66211 0 2.00195 1.66016 3.66211 3.66211 3.66211Z"/>
  </g>
  <line style="fill:none;stroke:#00AEEF;stroke-width:0.5;opacity:1.0;" x1="792.836" x2="792.836" y1="1919" y2="1933"/>
  <text style="stroke:none;fill:black;font-family:sans-serif;font-size:13;font-weight:bold;" transform="matrix(1 0 0 1 776 1953)">Margins</text>
  <text style="stroke:none;fill:black;font-family:sans-serif;font-size:13;" transform="matrix(1 0 0 1 776 1971)">Leading and trailing margins on the left and right side of each symbol</text>
  <text style="stroke:none;fill:black;font-family:sans-serif;font-size:13;" transform="matrix(1 0 0 1 776 1989)">can be adjusted by modifying the x-location of the margin guidelines.</text>
  <text style="stroke:none;fill:black;font-family:sans-serif;font-size:13;" transform="matrix(1 0 0 1 776 2007)">Modifications are automatically applied proportionally to all</text>
  <text style="stroke:none;fill:black;font-family:sans-serif;font-size:13;" transform="matrix(1 0 0 1 776 2025)">scales and weights.</text>
  <g transform="matrix(0.2 0 0 0.2 1289 1933)">
   <path d="m14.209 13.1348 7.86133 7.86133c4.29688 4.39453 9.32617 4.10156 13.8672-1.02539l60.6934-68.2129-4.88281-4.88281-60.2539 67.6758c-1.80664 1.95312-3.4668 2.44141-5.81055 0.0976562l-5.17578-5.12695c-2.29492-2.29492-1.80664-3.95508 0.195312-5.81055l67.4805-62.1582-4.88281-4.83398-68.0664 62.5977c-4.98047 4.58984-5.32227 9.47266-1.02539 13.8184Zm44.873-97.4609c-2.05078 2.00195-2.24609 4.88281-1.07422 6.78711 1.12305 1.80664 3.4668 3.02734 6.5918 2.24609 5.85938-1.66016 12.5977-2.39258 18.8965 0.927734l-2.68555 7.12891c-1.61133 4.00391-0.732422 6.88477 1.70898 9.42383l10.2539 10.3027c2.34375 2.39258 4.54102 2.44141 7.08008 1.95312l4.44336-0.732422 2.58789 2.53906-0.195312 2.24609c-0.0976562 2.29492 0.537109 4.29688 2.7832 6.49414l3.36914 3.32031c2.29492 2.29492 5.51758 2.49023 7.8125 0.195312l12.9883-13.0371c2.29492-2.34375 2.14844-5.37109-0.195312-7.66602l-3.41797-3.41797c-2.19727-2.19727-4.05273-3.02734-6.34766-2.88086l-2.34375 0.244141-2.44141-2.44141 1.02539-4.6875c0.634766-2.73438-0.244141-4.98047-2.88086-7.61719l-11.2793-11.1816c-12.9395-12.8418-35.5957-11.0352-46.6797-0.146484Zm7.08008 2.05078c8.78906-6.39648 25.9766-5.66406 33.6914 1.95312l12.3047 12.207c1.02539 1.02539 1.2207 1.80664 0.927734 3.32031l-1.46484 6.64062 6.73828 6.68945 4.39453-0.244141c1.12305-0.0488281 1.51367 0.0488281 2.34375 0.878906l2.53906 2.49023-10.8398 10.8398-2.49023-2.49023c-0.830078-0.878906-0.976562-1.2207-0.927734-2.39258l0.292969-4.3457-6.68945-6.73828-6.83594 1.17188c-1.41602 0.292969-2.05078 0.195312-3.17383-0.878906l-8.93555-8.88672c-1.07422-1.02539-1.17188-1.70898-0.488281-3.36914l4.58984-11.4746c-6.10352-6.34766-17.041-7.51953-25.5859-4.58984-0.683594 0.244141-0.927734-0.390625-0.390625-0.78125Z"/>
  </g>
  <text style="stroke:none;fill:black;font-family:sans-serif;font-size:13;font-weight:bold;" transform="matrix(1 0 0 1 1289 1953)">Exporting</text>
  <text style="stroke:none;fill:black;font-family:sans-serif;font-size:13;" transform="matrix(1 0 0 1 1289 1971)">Symbols should be outlined when exporting to ensure the</text>
  <text style="stroke:none;fill:black;font-family:sans-serif;font-size:13;" transform="matrix(1 0 0 1 1289 1989)">design is preserved when submitting to Xcode.</text>
  <text id="template-version" style="stroke:none;fill:black;font-family:sans-serif;font-size:13;text-anchor:end;" transform="matrix(1 0 0 1 3036 1933)">Template v.7.0</text>
  <text style="stroke:none;fill:black;font-family:sans-serif;font-size:13;text-anchor:end;" transform="matrix(1 0 0 1 3036 1951)">Requires Xcode 17 or greater</text>
  <text id="descriptive-name" style="stroke:none;fill:black;font-family:sans-serif;font-size:13;text-anchor:end;" transform="matrix(1 0 0 1 3036 1969)">Generated from omega-swirl.symbols</text>
  <text style="stroke:none;fill:black;font-family:sans-serif;font-size:13;text-anchor:end;" transform="matrix(1 0 0 1 3036 1987)">Typeset at 100.0 points</text>
  <text style="stroke:none;fill:black;font-family:sans-serif;font-size:13;" transform="matrix(1 0 0 1 263 726)">Small</text>
  <text style="stroke:none;fill:black;font-family:sans-serif;font-size:13;" transform="matrix(1 0 0 1 263 1156)">Medium</text>
  <text style="stroke:none;fill:black;font-family:sans-serif;font-size:13;" transform="matrix(1 0 0 1 263 1586)">Large</text>
 </g>
 <g id="Guides">
  <g id="H-reference" style="fill:#27AAE1;stroke:none;" transform="matrix(1 0 0 1 339 696)">
   <path d="M0.993654 0L3.63775 0L29.3281-67.1323L30.0303-67.1323L30.0303-70.459L28.1226-70.459ZM11.6885-24.4799L46.9815-24.4799L46.2315-26.7285L12.4385-26.7285ZM55.1196 0L57.7637 0L30.6382-70.459L29.4326-70.459L29.4326-67.1323Z"/>
  </g>
  <line id="Baseline-S" style="fill:none;stroke:#27AAE1;opacity:1;stroke-width:0.5;" x1="263" x2="3036" y1="696" y2="696"/>
  <line id="Capline-S" style="fill:none;stroke:#27AAE1;opacity:1;stroke-width:0.5;" x1="263" x2="3036" y1="625.541" y2="625.541"/>
  <g id="H-reference" style="fill:#27AAE1;stroke:none;" transform="matrix(1 0 0 1 339 1126)">
   <path d="M0.993654 0L3.63775 0L29.3281-67.1323L30.0303-67.1323L30.0303-70.459L28.1226-70.459ZM11.6885-24.4799L46.9815-24.4799L46.2315-26.7285L12.4385-26.7285ZM55.1196 0L57.7637 0L30.6382-70.459L29.4326-70.459L29.4326-67.1323Z"/>
  </g>
  <line id="Baseline-M" style="fill:none;stroke:#27AAE1;opacity:1;stroke-width:0.5;" x1="263" x2="3036" y1="1126" y2="1126"/>
  <line id="Capline-M" style="fill:none;stroke:#27AAE1;opacity:1;stroke-width:0.5;" x1="263" x2="3036" y1="1055.54" y2="1055.54"/>
  <g id="H-reference" style="fill:#27AAE1;stroke:none;" transform="matrix(1 0 0 1 339 1556)">
   <path d="M0.993654 0L3.63775 0L29.3281-67.1323L30.0303-67.1323L30.0303-70.459L28.1226-70.459ZM11.6885-24.4799L46.9815-24.4799L46.2315-26.7285L12.4385-26.7285ZM55.1196 0L57.7637 0L30.6382-70.459L29.4326-70.459L29.4326-67.1323Z"/>
  </g>
  <line id="Baseline-L" style="fill:none;stroke:#27AAE1;opacity:1;stroke-width:0.5;" x1="263" x2="3036" y1="1556" y2="1556"/>
  <line id="Capline-L" style="fill:none;stroke:#27AAE1;opacity:1;stroke-width:0.5;" x1="263" x2="3036" y1="1485.54" y2="1485.54"/>
  <line id="right-margin-Black-S" style="fill:none;stroke:#00AEEF;stroke-width:0.5;opacity:1.0;" x1="2978.98" x2="2978.98" y1="600.785" y2="720.121"/>
  <line id="left-margin-Black-S" style="fill:none;stroke:#00AEEF;stroke-width:0.5;opacity:1.0;" x1="2887.82" x2="2887.82" y1="600.785" y2="720.121"/>
  <line id="right-margin-Regular-S" style="fill:none;stroke:#00AEEF;stroke-width:0.5;opacity:1.0;" x1="1495.43" x2="1495.43" y1="600.785" y2="720.121"/>
  <line id="left-margin-Regular-S" style="fill:none;stroke:#00AEEF;stroke-width:0.5;opacity:1.0;" x1="1404.26" x2="1404.26" y1="600.785" y2="720.121"/>
  <line id="right-margin-Ultralight-S" style="fill:none;stroke:#00AEEF;stroke-width:0.5;opacity:1.0;" x1="605.295" x2="605.295" y1="600.785" y2="720.121"/>
  <line id="left-margin-Ultralight-S" style="fill:none;stroke:#00AEEF;stroke-width:0.5;opacity:1.0;" x1="514.127" x2="514.127" y1="600.785" y2="720.121"/>
 </g>
 <g id="Symbols">
  <g id="Black-S" transform="matrix(1.00656 0 0 1.00656 2887.82 696)">
   <path class="monochrome-0 multicolor-0:systemBlueColor hierarchical-0:primary SFSymbolsPreviewWireframe" d="M36.065-69.985C37.709-69.688 38.942-68.255 40.406-67.297C46.029-63.869 51.743-60.537 57.497-57.338C60.274-56.048 63.033-55.565 62.526-51.853C61.864-45.76 62.472-39.512 62.334-33.399C62.3-32.526 62.234-30.45 61.42-30.27C61.211-30.29 61.004-30.596 60.844-31.12C60.589-31.926 60.523-33.01 60.52-33.91C60.48-38.342 60.448-42.786 60.397-47.215C60.417-50.026 59.935-53.049 57.54-54.841C56.78-55.47 55.918-56.034 55.052-56.543C49.995-59.465 44.985-62.487 39.887-65.335C38.314-66.185 36.48-66.579 35.251-67.78C34.328-68.612 34.635-70.134 36.03-69.991L36.067-69.991Z" data-clipstroke-keyframes="0 0 0 0.4854133 0.5197866 0 0.07423366 0.45015645 0.55256915 0 0.30331478 0.34553313 0.65762615 0 0.44013464 0.27229428 0.7103548 0 0.5492895 0.21790266 0.7561841 0 0.89694595 0.058878183 0.91539025 0 1 0.010942221 0.96184015"/>
   <path class="monochrome-1 multicolor-1:systemCyanColor hierarchical-1:tertiary SFSymbolsPreviewWireframe" d="M44.971-69.988C46.685-69.768 48.092-68.235 49.579-67.354C54.058-64.681 58.643-62.153 63.154-59.534C65.059-58.507 66.721-56.946 66.965-54.698C67.269-48.402 66.965-42.048 67.002-35.732C66.948-34.794 66.928-32.618 66.022-32.423C65.088-33.075 65.231-35.074 65.185-36.209C65.231-41.328 65.254-46.478 65.277-51.607C65.283-52.931 65.191-54.35 64.578-55.516C63.902-56.86 62.569-57.767 61.265-58.51C57.116-60.846 53.029-63.311 48.84-65.564C47.103-66.519 44.856-66.639 43.759-68.309C43.3-69.17 44.028-70.096 44.934-69.991L44.971-69.991Z" data-clipstroke-keyframes="0 0 0 0.47951293 0.51564217 0 0.060205214 0.45056963 0.54197526 0 0.4112818 0.28936315 0.70263577 0 0.56072855 0.21030116 0.76123285 0 0.9060427 0.052423716 0.91989684 0 1 0.006007433 0.95982313"/>
   <path class="monochrome-2 multicolor-2:systemBlueColor hierarchical-2:secondary SFSymbolsPreviewWireframe" d="M48.55-18.392C46.728-19.396 55.972-23.731 56.915-24.431C58.374-25.249 59.835-26.07 61.294-26.888C63.861-28.4 67.045-29.718 68.421-32.429C69.071-33.733 69.229-35.26 69.28-36.73C69.286-42.389 69.235-48.045 69.209-53.678C69.432-55.656 67.747-60.443 70.103-61.149C72.711-61.035 71.094-56.528 71.152-54.821C71.132-47.281 70.945-39.666 71.513-32.143C71.65-28.952 68.126-28.409 65.842-27.262C61.122-24.752 56.474-22.021 51.814-19.447C50.903-18.941 49.49-18.246 48.57-18.387Z" data-clipstroke-keyframes="0 0 0 0.9885235 0.014214039 0 0.0661401 0.04550028 0.95883703 0 0.37260568 0.8188009 0.18811798 0 0.45684293 0.77319527 0.22058964 0 0.5501839 0.7197175 0.2555089 0 0.90692616 0.42006302 0.55534554 0 1 0.51339483 0.46299505"/>
   <path class="monochrome-3 multicolor-3:systemCyanColor hierarchical-3:primary SFSymbolsPreviewWireframe" d="M53.104-15.69C51.932-16.253 55.012-18.126 55.608-18.429C60.256-21.014 64.922-23.591 69.573-26.17C72.544-27.668 73.845-29.864 73.673-33.184C73.625-37.954 73.662-42.732 73.559-47.498C73.608-49.306 72.421-53.106 74.611-53.832C77.158-53.732 75.611-49.609 75.573-47.959C75.35-42.4 75.622-36.804 75.533-31.243C75.596-28.355 73.908-26.321 71.398-25.072C66.26-22.221 61.113-19.33 55.926-16.494C55.133-16.068 53.814-15.556 53.13-15.684L53.107-15.69Z" data-clipstroke-keyframes="0 0 0 0.9856849 0.023317814 0 0.047048252 0.96269417 0.043053627 0 0.40399802 0.80087996 0.20473766 0 0.5630409 0.717731 0.2663107 0 0.9128786 0.5596447 0.42525005 0 1 0.5199113 0.46448565"/>
   <path class="monochrome-4 multicolor-4:systemBlueColor hierarchical-4:tertiary SFSymbolsPreviewWireframe" d="M80.525-26.296C80.296-25.418 79.17-24.717 78.273-24.311C77.029-23.745 75.622-23.196 74.407-22.453C69.249-19.336 64.019-16.299 58.915-13.122C56.204-11.324 54.485-8.367 51.21-11.118C45.988-15.238 39.913-18.281 34.428-22.029C33.829-22.458 32.124-23.988 33.259-24.211C34.09-24.374 36.234-23.148 37.308-22.424C39.22-21.235 41.14-20.036 43.054-18.844C44.212-18.124 45.367-17.403 46.524-16.682C48.805-15.313 51.212-13.428 53.935-13.534C55.465-13.588 56.944-14.298 58.293-15.041C63.406-18.061 68.49-21.152 73.582-24.2C75-25.023 76.33-26.259 77.597-27.119C78.198-27.5 78.703-27.757 79.31-27.8C80.107-27.874 80.749-27.128 80.531-26.324L80.522-26.29Z" data-clipstroke-keyframes="0 0 0 0.5178447 0.49311638 0 0.033645906 0.47951078 0.5351052 0 0.37535638 0.322793 0.6928358 0 0.44787213 0.71765137 0.28040075 0 0.51572543 0.23689127 0.74312305 0 0.9211291 0.054171562 0.9296694 0 1 0.014093876 0.96596146"/>
   <path class="monochrome-5 multicolor-5:systemCyanColor hierarchical-5:secondary SFSymbolsPreviewWireframe" d="M32.964-18.641C32.852-19.971 36.079-18.206 36.612-17.815C41.206-14.958 45.848-12.064 50.464-9.191C53.347-7.283 55.623-7.363 58.457-9.314C62.52-11.999 66.727-14.492 70.708-17.291C72.046-18.195 74.398-21.289 75.954-19.954C77.488-17.569 72.802-16.211 71.246-15.201C66.681-12.385 62.231-9.357 57.672-6.529C55.124-4.919 52.803-5.333 50.384-6.949C45.272-10.149 40.134-13.311 35.036-16.528C34.274-17.014 33.167-17.946 32.973-18.621L32.967-18.644Z" data-clipstroke-keyframes="0 0 0 0.9835911 0.025249481 0 0.05952033 0.9548764 0.050740242 0 0.42251092 0.21468258 0.78871536 0 0.5762982 0.27456665 0.70821047 0 0.93890834 0.54448366 0.44047832 0 1 0.4678445 0.51628065"/>
   <path class="monochrome-6 multicolor-6:systemBlueColor hierarchical-6:primary SFSymbolsPreviewWireframe" d="M28.78-39.798C29.66-40.438 29.952-37.673 29.944-36.693C29.958-32.892 29.944-29.067 29.949-25.263C30.009-22.481 29.623-19.279 31.193-16.883C31.998-15.65 33.273-14.735 34.537-13.954C39.635-10.981 44.765-8.058 49.877-5.116C51.402-3.998 56.686-2.914 55.972-0.684C54.686 1.449 51.35-2.159 49.886-2.946C44.349-6.194 38.784-9.417 33.188-12.559C30.35-14.003 27.198-14.243 27.748-18.204C28.456-24.246 27.963-30.436 28.104-36.515C28.11-37.533 28.196-39.072 28.766-39.784Z" data-clipstroke-keyframes="0 0 0 0.988677 0.020589828 0 0.04149096 0.037508965 0.9673729 0 0.332809 0.83432674 0.17172623 0 0.4321968 0.7824335 0.21145058 0 0.5040606 0.73720646 0.23644352 0 0.9372689 0.4351921 0.53824043 0 1 0.51087475 0.46397305"/>
   <path class="monochrome-7 multicolor-7:systemCyanColor hierarchical-7:tertiary SFSymbolsPreviewWireframe" d="M24.315-37.187C25.336-37.822 25.476-34.365 25.453-33.707C25.453-28.6 25.442-23.485 25.404-18.401C25.261-15.121 26.551-13.045 29.451-11.547C33.557-9.231 37.609-6.812 41.75-4.561C43.252-3.661 47.212-2.92 46.733-0.707C45.447 1.492 42.323-2.071 40.865-2.857C36.265-5.628 31.517-8.178 26.895-10.918C24.373-12.339 23.456-14.681 23.576-17.489C23.608-23.153 23.59-28.826 23.645-34.488C23.665-35.34 23.854-36.687 24.298-37.176L24.313-37.19Z" data-clipstroke-keyframes="0 0 0 0.98509216 0.023356438 0 0.03600219 0.9669142 0.03806877 0 0.40257168 0.8002348 0.20522499 0 0.5558158 0.7194567 0.2646351 0 0.93468565 0.5481405 0.438303 0 1 0.51607037 0.46584988"/>
   <path class="monochrome-8 multicolor-8:systemBlueColor hierarchical-8:secondary SFSymbolsPreviewWireframe" d="M41.793-51.442C42.805-51.013 40.509-49.377 39.658-48.902C36.237-46.952 32.749-45.002 29.31-43.058C26.78-41.565 23.685-40.27 22.304-37.602C21.607-36.244 21.444-34.64 21.378-33.107C21.329-27.431 21.37-21.749 21.361-16.079C21.149-14.192 22.805-9.214 20.559-8.63C17.991-8.602 19.458-13.397 19.418-15.038C19.504-20.88 19.424-26.73 19.45-32.572C19.484-34.242 19.114-36.055 19.1-37.639C18.934-40.796 22.421-41.434 24.679-42.603C29.577-45.239 34.362-48.113 39.251-50.755C39.982-51.13 41.143-51.567 41.773-51.444L41.796-51.439Z" data-clipstroke-keyframes="0 0 0 0.021195412 0.98287964 0 0.027704325 0.034205437 0.97075653 0 0.34180364 0.17628765 0.82753754 0 0.45081717 0.21918774 0.77100754 0 0.5441938 0.25539207 0.72200966 0 0.9310417 0.5463562 0.4310732 0 1 0.5142307 0.4616251"/>
   <path class="monochrome-9 multicolor-9:systemCyanColor hierarchical-9:primary SFSymbolsPreviewWireframe" d="M37.171-54.021C38.285-53.437 35.214-51.536 34.615-51.23C30.064-48.656 25.493-46.086 20.94-43.512C18.02-42.011 16.721-39.832 16.885-36.552C16.931-31.88 16.879-27.205 16.994-22.547C16.954-20.76 18.252-17.037 16.105-16.259C13.546-16.291 14.953-20.491 14.985-22.15C15.168-27.351 14.985-32.598 14.999-37.782C14.839-41.048 16.254-43.155 19.134-44.63C24.229-47.493 29.307-50.401 34.411-53.24C35.185-53.66 36.483-54.175 37.151-54.032L37.174-54.026Z" data-clipstroke-keyframes="0 0 0 0.019999504 0.98376274 0 0.044845935 0.041023254 0.9642086 0 0.42332247 0.21141434 0.79182816 0 0.5752422 0.27128124 0.7137289 0 0.91369337 0.42358398 0.5595064 0 1 0.46316528 0.52095604 0 0.03994863 0.0033044815 0.94858456"/>
   <path class="monochrome-10 multicolor-10:systemBlueColor hierarchical-10:tertiary SFSymbolsPreviewWireframe" d="M10.05-43.661C10.216-44.447 11.248-45.182 12.056-45.557C13.374-46.18 14.922-46.743 16.234-47.561C21.066-50.444 25.912-53.343 30.743-56.234C32.121-57.026 33.402-58.178 34.635-59.033C35.778-59.837 36.982-60.117 38.24-59.388C39.475-58.707 40.512-57.689 41.721-56.88C46.143-54.106 50.702-51.507 55.15-48.788C55.818-48.433 58.494-46.42 57.116-46.112C56.288-45.951 54.17-47.095 53.104-47.787C51.187-48.934 49.267-50.083 47.35-51.23C46.198-51.919 45.048-52.608 43.899-53.297C41.59-54.638 39.148-56.425 36.426-56.288C34.913-56.217 33.448-55.533 32.11-54.798C27.052-51.822 22.023-48.771 16.988-45.768C15.085-44.753 13.595-42.84 11.606-42.226C10.727-41.948 9.798-42.655 10.039-43.621L10.047-43.655Z" data-clipstroke-keyframes="0 0 0 0.51992583 0.4915007 0 0.029190935 0.5336328 0.47853127 0 0.36284125 0.6858328 0.3255348 0 0.44027355 0.7155104 0.28402185 0 0.5163773 0.7438946 0.24238668 0 0.93592834 0.9341758 0.04664504 0 1 0.96347725 0.019454187"/>
   <path class="monochrome-11 multicolor-11:systemCyanColor hierarchical-11:secondary SFSymbolsPreviewWireframe" d="M57.589-51.473C57.683-50.172 54.562-51.902 54.044-52.291C49.662-55.096 45.226-57.941 40.813-60.766C38.303-62.47 36.019-62.728 33.397-61.066C29.029-58.336 24.611-55.668 20.298-52.86C18.839-51.993 16.24-48.622 14.644-50.006C13.108-52.365 17.876-53.726 19.418-54.687C24.189-57.541 28.852-60.606 33.617-63.477C36.151-65.024 38.455-64.638 40.836-63.025C45.736-59.914 50.671-56.78 55.557-53.612C56.308-53.117 57.399-52.174 57.583-51.499L57.589-51.476Z" data-clipstroke-keyframes="0 0 0 0.014445424 0.9860792 0 0.03343596 0.031692028 0.97289824 0 0.41294906 0.20475388 0.7996166 0 0.574964 0.26789355 0.7144383 0 0.9317097 0.42912126 0.5500374 0 1 0.46130657 0.5199461"/>
  </g>
  <g id="Regular-S" transform="matrix(1.00656 0 0 1.00656 1404.26 696)">
   <path class="monochrome-0 multicolor-0:systemBlueColor hierarchical-0:primary SFSymbolsPreviewWireframe" d="M36.065-69.985C37.709-69.688 38.942-68.255 40.406-67.297C46.028-63.869 51.743-60.537 57.497-57.338C60.274-56.048 63.033-55.565 62.526-51.853C61.864-45.76 62.472-39.512 62.334-33.399C62.3-32.526 62.234-30.45 61.42-30.27C61.211-30.29 61.004-30.596 60.844-31.12C60.589-31.926 60.523-33.01 60.52-33.91C60.48-38.342 60.448-42.786 60.397-47.215C60.417-50.026 59.935-53.049 57.54-54.841C56.78-55.47 55.918-56.034 55.052-56.543C49.995-59.465 44.985-62.487 39.887-65.335C38.314-66.185 36.48-66.579 35.251-67.78C34.328-68.612 34.635-70.134 36.03-69.991L36.067-69.991Z" data-clipstroke-keyframes="0 0 0 0.486557 0.5185728 0 0.07664112 0.4501567 0.55256915 0 0.30520847 0.34553313 0.65762615 0 0.44226775 0.2717862 0.7103548 0 0.5506482 0.21790266 0.7561841 0 0.8975266 0.058876753 0.91539025 0 1 0.010587454 0.96184015"/>
   <path class="monochrome-1 multicolor-1:systemCyanColor hierarchical-1:tertiary SFSymbolsPreviewWireframe" d="M44.971-69.988C46.685-69.768 48.092-68.235 49.579-67.354C54.058-64.681 58.643-62.153 63.154-59.534C65.059-58.507 66.721-56.946 66.965-54.698C67.269-48.402 66.965-42.048 67.002-35.732C66.948-34.794 66.928-32.618 66.022-32.423C65.088-33.075 65.231-35.074 65.185-36.209C65.231-41.328 65.254-46.478 65.277-51.607C65.283-52.931 65.191-54.35 64.578-55.516C63.902-56.86 62.569-57.767 61.265-58.51C57.116-60.846 53.029-63.311 48.84-65.564C47.103-66.519 44.856-66.639 43.759-68.309C43.3-69.17 44.028-70.096 44.934-69.991L44.971-69.991Z" data-clipstroke-keyframes="0 0 0 0.48048997 0.51564217 0 0.061171718 0.45056963 0.54197526 0 0.41151103 0.28973007 0.70263577 0 0.56117266 0.21030116 0.76123285 0 0.9061436 0.052423716 0.91989684 0 1 0.006007433 0.95982313"/>
   <path class="monochrome-2 multicolor-2:systemBlueColor hierarchical-2:secondary SFSymbolsPreviewWireframe" d="M48.55-18.392C46.728-19.396 55.972-23.731 56.915-24.431C58.374-25.249 59.835-26.07 61.294-26.888C63.861-28.4 67.045-29.718 68.421-32.429C69.071-33.733 69.229-35.26 69.28-36.73C69.286-42.389 69.235-48.045 69.209-53.678C69.432-55.656 67.747-60.443 70.103-61.149C72.711-61.035 71.094-56.528 71.152-54.821C71.132-47.281 70.945-39.666 71.513-32.143C71.65-28.952 68.126-28.409 65.842-27.262C61.122-24.752 56.474-22.021 51.814-19.447C50.903-18.941 49.49-18.246 48.57-18.387Z" data-clipstroke-keyframes="0 0 0 0.9895301 0.014192104 0 0.05366887 0.039121628 0.9649763 0 0.37382683 0.8188009 0.18811798 0 0.45811126 0.77319527 0.22058964 0 0.5493821 0.7197175 0.2555089 0 0.9041005 0.41906834 0.5565305 0 1 0.51123285 0.46328735"/>
   <path class="monochrome-3 multicolor-3:systemCyanColor hierarchical-3:primary SFSymbolsPreviewWireframe" d="M53.104-15.69C51.932-16.253 55.012-18.126 55.608-18.429C60.256-21.014 64.922-23.591 69.573-26.17C72.544-27.668 73.845-29.864 73.673-33.184C73.625-37.954 73.662-42.732 73.559-47.498C73.608-49.306 72.421-53.106 74.611-53.832C77.158-53.732 75.611-49.609 75.573-47.959C75.35-42.4 75.622-36.804 75.533-31.243C75.596-28.355 73.908-26.321 71.398-25.072C66.26-22.221 61.113-19.33 55.926-16.494C55.133-16.068 53.814-15.556 53.13-15.684L53.107-15.69Z" data-clipstroke-keyframes="0 0 0 0.98667765 0.022034645 0 0.049233913 0.96269417 0.043053627 0 0.4037799 0.80087996 0.20473766 0 0.56174856 0.717731 0.2663107 0 0.9092305 0.5596447 0.42525005 0 1 0.51768064 0.46613503"/>
   <path class="monochrome-4 multicolor-4:systemBlueColor hierarchical-4:tertiary SFSymbolsPreviewWireframe" d="M80.525-26.296C80.296-25.418 79.17-24.717 78.273-24.311C77.029-23.745 75.622-23.196 74.407-22.453C69.249-19.336 64.019-16.299 58.915-13.122C56.204-11.324 54.485-8.367 51.21-11.118C45.988-15.238 39.913-18.281 34.428-22.029C33.829-22.458 32.124-23.988 33.259-24.211C34.09-24.374 36.234-23.148 37.308-22.424C39.22-21.235 41.14-20.036 43.054-18.844C44.212-18.124 45.367-17.403 46.524-16.682C48.805-15.313 51.212-13.428 53.935-13.534C55.465-13.588 56.944-14.298 58.293-15.041C63.406-18.061 68.489-21.152 73.582-24.2C75-25.023 76.33-26.259 77.597-27.119C78.198-27.5 78.703-27.757 79.31-27.8C80.107-27.874 80.749-27.128 80.531-26.324L80.522-26.29Z" data-clipstroke-keyframes="0 0 0 0.51629686 0.49417305 0 0.03645275 0.47951078 0.5351052 0 0.37818754 0.322793 0.6930685 0 0.45044917 0.71765137 0.28040075 0 0.51534617 0.23755503 0.7427974 0 0.9211826 0.054171562 0.9296694 0 1 0.013642311 0.96596146"/>
   <path class="monochrome-5 multicolor-5:systemCyanColor hierarchical-5:secondary SFSymbolsPreviewWireframe" d="M32.964-18.641C32.852-19.971 36.079-18.206 36.612-17.815C41.206-14.958 45.848-12.064 50.465-9.191C53.347-7.283 55.623-7.363 58.457-9.314C62.52-11.999 66.727-14.492 70.708-17.291C72.046-18.195 74.398-21.289 75.955-19.954C77.488-17.569 72.802-16.211 71.246-15.201C66.681-12.385 62.231-9.357 57.672-6.529C55.124-4.919 52.803-5.333 50.384-6.949C45.272-10.149 40.134-13.311 35.036-16.528C34.274-17.014 33.167-17.946 32.973-18.621L32.967-18.644Z" data-clipstroke-keyframes="0 0 0 0.9840975 0.024818897 0 0.060334124 0.9548769 0.050739765 0 0.42598587 0.2163949 0.786808 0 0.57171345 0.27313423 0.7100506 0 0.9362404 0.5448084 0.44047308 0 1 0.46953964 0.51569223"/>
   <path class="monochrome-6 multicolor-6:systemBlueColor hierarchical-6:primary SFSymbolsPreviewWireframe" d="M28.78-39.798C29.66-40.438 29.952-37.673 29.944-36.693C29.958-32.892 29.944-29.067 29.949-25.263C30.009-22.481 29.623-19.279 31.193-16.883C31.998-15.65 33.273-14.735 34.537-13.954C39.635-10.981 44.765-8.058 49.877-5.116C51.402-3.998 56.686-2.914 55.972-0.684C54.686 1.449 51.35-2.159 49.886-2.946C44.349-6.194 38.784-9.417 33.187-12.559C30.35-14.003 27.198-14.243 27.748-18.204C28.456-24.246 27.963-30.436 28.104-36.515C28.11-37.533 28.196-39.072 28.766-39.784Z" data-clipstroke-keyframes="0 0 0 0.98942375 0.018883705 0 0.044042356 0.037508965 0.9673729 0 0.33425525 0.83432674 0.17172623 0 0.4337407 0.78201866 0.21145058 0 0.5013063 0.7381897 0.23548889 0 0.934948 0.4351921 0.53824043 0 1 0.50795746 0.46515083"/>
   <path class="monochrome-7 multicolor-7:systemCyanColor hierarchical-7:tertiary SFSymbolsPreviewWireframe" d="M24.315-37.187C25.336-37.822 25.476-34.365 25.453-33.707C25.453-28.6 25.442-23.485 25.404-18.401C25.261-15.121 26.551-13.045 29.451-11.547C33.557-9.231 37.609-6.812 41.75-4.561C43.252-3.661 47.212-2.92 46.733-0.707C45.447 1.492 42.323-2.071 40.865-2.857C36.265-5.628 31.517-8.178 26.895-10.918C24.373-12.339 23.456-14.681 23.576-17.489C23.608-23.153 23.59-28.826 23.645-34.488C23.665-35.34 23.854-36.687 24.298-37.176L24.313-37.19Z" data-clipstroke-keyframes="0 0 0 0.9855814 0.022504807 0 0.037259374 0.9669142 0.03806877 0 0.40164676 0.8002348 0.20522499 0 0.55356914 0.7194567 0.26429272 0 0.92835534 0.54930973 0.43743324 0 1 0.5132551 0.4672079"/>
   <path class="monochrome-8 multicolor-8:systemBlueColor hierarchical-8:secondary SFSymbolsPreviewWireframe" d="M41.793-51.442C42.805-51.013 40.509-49.377 39.658-48.902C36.237-46.952 32.749-45.002 29.31-43.058C26.78-41.565 23.685-40.27 22.304-37.602C21.607-36.244 21.444-34.64 21.378-33.107C21.329-27.431 21.37-21.749 21.361-16.079C21.149-14.192 22.805-9.214 20.559-8.63C17.991-8.602 19.458-13.397 19.418-15.038C19.504-20.88 19.424-26.73 19.45-32.572C19.484-34.242 19.114-36.055 19.1-37.639C18.934-40.796 22.421-41.434 24.679-42.603C29.577-45.239 34.362-48.113 39.251-50.755C39.982-51.13 41.143-51.567 41.773-51.444L41.796-51.439Z" data-clipstroke-keyframes="0 0 0 0.019145966 0.98287964 0 0.029806126 0.034205437 0.97075653 0 0.34196272 0.17660809 0.82753754 0 0.44927844 0.21918774 0.77153206 0 0.5425449 0.25539207 0.72200966 0 0.9240719 0.5477123 0.43014622 0 1 0.5114212 0.46341228"/>
   <path class="monochrome-9 multicolor-9:systemCyanColor hierarchical-9:primary SFSymbolsPreviewWireframe" d="M37.171-54.021C38.285-53.437 35.214-51.536 34.615-51.23C30.064-48.656 25.493-46.086 20.94-43.512C18.02-42.011 16.721-39.832 16.885-36.552C16.931-31.88 16.879-27.205 16.994-22.547C16.954-20.76 18.252-17.037 16.105-16.259C13.546-16.291 14.953-20.491 14.985-22.15C15.168-27.351 14.985-32.598 14.999-37.782C14.839-41.048 16.254-43.155 19.134-44.63C24.229-47.493 29.307-50.401 34.411-53.24C35.185-53.66 36.483-54.175 37.151-54.032L37.174-54.026Z" data-clipstroke-keyframes="0 0 0 0.017876625 0.98376274 0 0.046994194 0.041023254 0.9642086 0 0.4263339 0.21245384 0.7903795 0 0.57287186 0.2702341 0.71447754 0 0.91163814 0.42358398 0.5595064 0 1 0.46482563 0.5203743 0 0.03742007 0.0024709702 0.12734699"/>
   <path class="monochrome-10 multicolor-10:systemBlueColor hierarchical-10:tertiary SFSymbolsPreviewWireframe" d="M10.05-43.661C10.216-44.447 11.248-45.182 12.056-45.557C13.374-46.18 14.922-46.743 16.234-47.561C21.066-50.444 25.912-53.343 30.743-56.234C32.121-57.026 33.402-58.178 34.635-59.033C35.778-59.837 36.982-60.117 38.24-59.388C39.475-58.707 40.512-57.689 41.721-56.88C46.143-54.106 50.702-51.507 55.15-48.788C55.818-48.433 58.494-46.42 57.116-46.112C56.288-45.951 54.17-47.095 53.104-47.787C51.187-48.934 49.267-50.083 47.35-51.23C46.198-51.919 45.048-52.608 43.899-53.297C41.59-54.638 39.148-56.425 36.426-56.288C34.913-56.217 33.448-55.533 32.11-54.798C27.052-51.822 22.023-48.771 16.988-45.768C15.085-44.753 13.595-42.84 11.606-42.226C10.726-41.948 9.798-42.655 10.039-43.621L10.047-43.655Z" data-clipstroke-keyframes="0 0 0 0.5175549 0.49294394 0 0.029721228 0.5321898 0.48038983 0 0.3665464 0.68612003 0.3255341 0 0.44299117 0.71550894 0.2845361 0 0.51953334 0.743893 0.24238618 0 0.9351006 0.9341738 0.046644945 0 1 0.9639199 0.019454146"/>
   <path class="monochrome-11 multicolor-11:systemCyanColor hierarchical-11:secondary SFSymbolsPreviewWireframe" d="M57.589-51.473C57.683-50.172 54.562-51.902 54.044-52.291C49.662-55.096 45.226-57.941 40.813-60.766C38.303-62.47 36.019-62.728 33.397-61.066C29.029-58.336 24.611-55.668 20.298-52.86C18.839-51.993 16.24-48.622 14.644-50.006C13.108-52.365 17.876-53.726 19.418-54.687C24.189-57.541 28.852-60.606 33.617-63.477C36.151-65.024 38.455-64.638 40.836-63.025C45.736-59.914 50.671-56.78 55.557-53.612C56.308-53.117 57.399-52.174 57.583-51.499L57.589-51.476Z" data-clipstroke-keyframes="0 0 0 0.011555672 0.9890921 0 0.040164918 0.031879663 0.972456 0 0.41546273 0.205073 0.7996166 0 0.5737197 0.26720858 0.71539295 0 0.9283091 0.42887223 0.5500374 0 1 0.46357036 0.5187006"/>
  </g>
  <g id="Ultralight-S" transform="matrix(1.00656 0 0 1.00656 514.127 696)">
   <path class="monochrome-0 multicolor-0:systemBlueColor hierarchical-0:primary SFSymbolsPreviewWireframe" d="M36.065-69.985C37.709-69.688 38.942-68.255 40.406-67.297C46.028-63.869 51.743-60.537 57.497-57.338C60.274-56.048 63.033-55.565 62.526-51.853C61.864-45.76 62.472-39.512 62.334-33.399C62.3-32.526 62.234-30.45 61.42-30.27C61.211-30.29 61.004-30.596 60.844-31.12C60.589-31.926 60.523-33.01 60.52-33.91C60.48-38.342 60.448-42.786 60.397-47.215C60.417-50.026 59.935-53.049 57.54-54.841C56.78-55.47 55.918-56.034 55.052-56.543C49.995-59.465 44.985-62.487 39.887-65.335C38.314-66.185 36.48-66.579 35.251-67.78C34.328-68.612 34.635-70.134 36.03-69.991L36.067-69.991Z" data-clipstroke-keyframes="0 0 0 0.4854133 0.5197866 0 0.07423365 0.4501567 0.55256915 0 0.30331475 0.34553313 0.65762615 0 0.44013464 0.27229428 0.7103548 0 0.5492895 0.21790266 0.7561841 0 0.8969474 0.058876753 0.91539025 0 1 0.010942221 0.96184015"/>
   <path class="monochrome-1 multicolor-1:systemCyanColor hierarchical-1:tertiary SFSymbolsPreviewWireframe" d="M44.971-69.988C46.685-69.768 48.092-68.235 49.579-67.354C54.058-64.681 58.643-62.153 63.154-59.534C65.059-58.507 66.721-56.946 66.965-54.698C67.269-48.402 66.965-42.048 67.002-35.732C66.948-34.794 66.928-32.618 66.022-32.423C65.088-33.075 65.231-35.074 65.185-36.209C65.231-41.328 65.254-46.478 65.277-51.607C65.283-52.931 65.191-54.35 64.578-55.516C63.902-56.86 62.569-57.767 61.265-58.51C57.116-60.846 53.029-63.311 48.84-65.564C47.103-66.519 44.856-66.639 43.759-68.309C43.3-69.17 44.028-70.096 44.934-69.991L44.971-69.991Z" data-clipstroke-keyframes="0 0 0 0.47951293 0.51564217 0 0.060205214 0.45056963 0.54197526 0 0.4112818 0.28936315 0.70263577 0 0.56072855 0.21030116 0.76123285 0 0.9060427 0.052423716 0.91989684 0 1 0.006007433 0.95982313"/>
   <path class="monochrome-2 multicolor-2:systemBlueColor hierarchical-2:secondary SFSymbolsPreviewWireframe" d="M48.55-18.392C46.728-19.396 55.972-23.731 56.915-24.431C58.374-25.249 59.835-26.07 61.294-26.888C63.861-28.4 67.045-29.718 68.421-32.429C69.071-33.733 69.229-35.26 69.28-36.73C69.286-42.389 69.235-48.045 69.209-53.678C69.432-55.656 67.747-60.443 70.103-61.149C72.711-61.035 71.094-56.528 71.152-54.821C71.132-47.281 70.945-39.666 71.513-32.143C71.65-28.952 68.126-28.409 65.842-27.262C61.122-24.752 56.474-22.021 51.814-19.447C50.903-18.941 49.49-18.246 48.57-18.387Z" data-clipstroke-keyframes="0 0 0 0.9885235 0.014214039 0 0.0661401 0.04550028 0.95883703 0 0.37260568 0.8188009 0.18811798 0 0.45684293 0.77319527 0.22058964 0 0.5501839 0.7197175 0.2555089 0 0.90692616 0.42006302 0.55534554 0 1 0.51339483 0.46299505"/>
   <path class="monochrome-3 multicolor-3:systemCyanColor hierarchical-3:primary SFSymbolsPreviewWireframe" d="M53.104-15.69C51.932-16.253 55.012-18.126 55.608-18.429C60.256-21.014 64.922-23.591 69.573-26.17C72.544-27.668 73.845-29.864 73.673-33.184C73.625-37.954 73.662-42.732 73.559-47.498C73.608-49.306 72.421-53.106 74.611-53.832C77.158-53.732 75.611-49.609 75.573-47.959C75.35-42.4 75.622-36.804 75.533-31.243C75.596-28.355 73.908-26.321 71.398-25.072C66.26-22.221 61.113-19.33 55.926-16.494C55.133-16.068 53.814-15.556 53.13-15.684L53.107-15.69Z" data-clipstroke-keyframes="0 0 0 0.9856849 0.023317814 0 0.047048252 0.96269417 0.043053627 0 0.40399802 0.80087996 0.20473766 0 0.5630409 0.717731 0.2663107 0 0.9128786 0.5596447 0.42525005 0 1 0.5199113 0.46448565"/>
   <path class="monochrome-4 multicolor-4:systemBlueColor hierarchical-4:tertiary SFSymbolsPreviewWireframe" d="M80.525-26.296C80.296-25.418 79.17-24.717 78.273-24.311C77.029-23.745 75.622-23.196 74.407-22.453C69.249-19.336 64.019-16.299 58.915-13.122C56.204-11.324 54.485-8.367 51.21-11.118C45.988-15.238 39.913-18.281 34.428-22.029C33.829-22.458 32.124-23.988 33.259-24.211C34.09-24.374 36.234-23.148 37.308-22.424C39.22-21.235 41.14-20.036 43.054-18.844C44.212-18.124 45.367-17.403 46.524-16.682C48.805-15.313 51.212-13.428 53.935-13.534C55.465-13.588 56.944-14.298 58.293-15.041C63.406-18.061 68.489-21.152 73.582-24.2C75-25.023 76.33-26.259 77.597-27.119C78.198-27.5 78.703-27.757 79.31-27.8C80.107-27.874 80.749-27.128 80.531-26.324L80.522-26.29Z" data-clipstroke-keyframes="0 0 0 0.5178447 0.49311638 0 0.0336459 0.47951078 0.5351052 0 0.37535635 0.322793 0.6928358 0 0.4478721 0.71765137 0.28040075 0 0.51572543 0.23689127 0.74312305 0 0.9211291 0.054171562 0.9296694 0 1 0.014093876 0.96596146"/>
   <path class="monochrome-5 multicolor-5:systemCyanColor hierarchical-5:secondary SFSymbolsPreviewWireframe" d="M32.964-18.641C32.852-19.971 36.079-18.206 36.612-17.815C41.206-14.958 45.848-12.064 50.465-9.191C53.347-7.283 55.623-7.363 58.457-9.314C62.52-11.999 66.727-14.492 70.708-17.291C72.046-18.195 74.398-21.289 75.955-19.954C77.488-17.569 72.802-16.211 71.246-15.201C66.681-12.385 62.231-9.357 57.672-6.529C55.124-4.919 52.803-5.333 50.384-6.949C45.272-10.149 40.134-13.311 35.036-16.528C34.274-17.014 33.167-17.946 32.973-18.621L32.967-18.644Z" data-clipstroke-keyframes="0 0 0 0.9835911 0.025249481 0 0.059520144 0.9548769 0.050739765 0 0.4225152 0.21468544 0.78871727 0 0.57629555 0.2745633 0.7082133 0 0.93890476 0.54448843 0.44047308 0 1 0.46784067 0.516284"/>
   <path class="monochrome-6 multicolor-6:systemBlueColor hierarchical-6:primary SFSymbolsPreviewWireframe" d="M28.78-39.798C29.66-40.438 29.952-37.673 29.944-36.693C29.958-32.892 29.944-29.067 29.949-25.263C30.009-22.481 29.623-19.279 31.193-16.883C31.998-15.65 33.273-14.735 34.537-13.954C39.635-10.981 44.765-8.058 49.877-5.116C51.402-3.998 56.686-2.914 55.972-0.684C54.686 1.449 51.35-2.159 49.886-2.946C44.349-6.194 38.784-9.417 33.187-12.559C30.35-14.003 27.198-14.243 27.748-18.204C28.456-24.246 27.963-30.436 28.104-36.515C28.11-37.533 28.196-39.072 28.766-39.784Z" data-clipstroke-keyframes="0 0 0 0.988677 0.020589828 0 0.04149096 0.037508965 0.9673729 0 0.332809 0.83432674 0.17172623 0 0.43219677 0.7824335 0.21145058 0 0.5040606 0.7372112 0.23644352 0 0.9372689 0.4351921 0.53824043 0 1 0.51087475 0.46397305"/>
   <path class="monochrome-7 multicolor-7:systemCyanColor hierarchical-7:tertiary SFSymbolsPreviewWireframe" d="M24.315-37.187C25.336-37.822 25.476-34.365 25.453-33.707C25.453-28.6 25.442-23.485 25.404-18.401C25.261-15.121 26.551-13.045 29.451-11.547C33.557-9.231 37.609-6.812 41.75-4.561C43.252-3.661 47.212-2.92 46.733-0.707C45.447 1.492 42.323-2.071 40.865-2.857C36.265-5.628 31.517-8.178 26.895-10.918C24.373-12.339 23.456-14.681 23.576-17.489C23.608-23.153 23.59-28.826 23.645-34.488C23.665-35.34 23.854-36.687 24.298-37.176L24.313-37.19Z" data-clipstroke-keyframes="0 0 0 0.98509216 0.023356438 0 0.03600219 0.9669142 0.03806877 0 0.40257168 0.8002348 0.20522499 0 0.5558158 0.7194567 0.2646351 0 0.93468565 0.5481405 0.438303 0 1 0.51607037 0.46584988"/>
   <path class="monochrome-8 multicolor-8:systemBlueColor hierarchical-8:secondary SFSymbolsPreviewWireframe" d="M41.793-51.442C42.805-51.013 40.509-49.377 39.658-48.902C36.237-46.952 32.749-45.002 29.31-43.058C26.78-41.565 23.685-40.27 22.304-37.602C21.607-36.244 21.444-34.64 21.378-33.107C21.329-27.431 21.37-21.749 21.361-16.079C21.149-14.192 22.805-9.214 20.559-8.63C17.991-8.602 19.458-13.397 19.418-15.038C19.504-20.88 19.424-26.73 19.45-32.572C19.484-34.242 19.114-36.055 19.1-37.639C18.934-40.796 22.421-41.434 24.679-42.603C29.577-45.239 34.362-48.113 39.251-50.755C39.982-51.13 41.143-51.567 41.773-51.444L41.796-51.439Z" data-clipstroke-keyframes="0 0 0 0.021195412 0.98287964 0 0.027704325 0.034205437 0.97075653 0 0.34180364 0.17628765 0.82753754 0 0.45081717 0.21918774 0.77100754 0 0.5441938 0.25539207 0.72200966 0 0.9310417 0.5463562 0.4310732 0 1 0.5142307 0.4616251"/>
   <path class="monochrome-9 multicolor-9:systemCyanColor hierarchical-9:primary SFSymbolsPreviewWireframe" d="M37.171-54.021C38.285-53.437 35.214-51.536 34.615-51.23C30.064-48.656 25.493-46.086 20.94-43.512C18.02-42.011 16.721-39.832 16.885-36.552C16.931-31.88 16.879-27.205 16.994-22.547C16.954-20.76 18.252-17.037 16.105-16.259C13.546-16.291 14.953-20.491 14.985-22.15C15.168-27.351 14.985-32.598 14.999-37.782C14.839-41.048 16.254-43.155 19.134-44.63C24.229-47.493 29.307-50.401 34.411-53.24C35.185-53.66 36.483-54.175 37.151-54.032L37.174-54.026Z" data-clipstroke-keyframes="0 0 0 0.019999504 0.98376274 0 0.044845935 0.041023254 0.9642086 0 0.42332247 0.21141434 0.79182816 0 0.5752422 0.27128124 0.7137289 0 0.91369337 0.42358398 0.5595064 0 1 0.46316528 0.52095604 0 0.03994863 0.0033044815 0.94858456"/>
   <path class="monochrome-10 multicolor-10:systemBlueColor hierarchical-10:tertiary SFSymbolsPreviewWireframe" d="M10.05-43.661C10.216-44.447 11.248-45.182 12.056-45.557C13.374-46.18 14.922-46.743 16.234-47.561C21.066-50.444 25.912-53.343 30.743-56.234C32.121-57.026 33.402-58.178 34.635-59.033C35.778-59.837 36.982-60.117 38.24-59.388C39.475-58.707 40.512-57.689 41.721-56.88C46.143-54.106 50.702-51.507 55.15-48.788C55.818-48.433 58.494-46.42 57.116-46.112C56.288-45.951 54.17-47.095 53.104-47.787C51.187-48.934 49.267-50.083 47.35-51.23C46.198-51.919 45.048-52.608 43.899-53.297C41.59-54.638 39.148-56.425 36.426-56.288C34.913-56.217 33.448-55.533 32.11-54.798C27.052-51.822 22.023-48.771 16.988-45.768C15.085-44.753 13.595-42.84 11.606-42.226C10.726-41.948 9.798-42.655 10.039-43.621L10.047-43.655Z" data-clipstroke-keyframes="0 0 0 0.5199247 0.4914997 0 0.029190935 0.5336317 0.47853026 0 0.36284125 0.68583137 0.3255341 0 0.44027355 0.71550894 0.28402126 0 0.5163773 0.743893 0.24238618 0 0.93592834 0.9341738 0.046644945 0 1 0.9634752 0.019454146"/>
   <path class="monochrome-11 multicolor-11:systemCyanColor hierarchical-11:secondary SFSymbolsPreviewWireframe" d="M57.589-51.473C57.683-50.172 54.562-51.902 54.044-52.291C49.662-55.096 45.226-57.941 40.813-60.766C38.303-62.47 36.019-62.728 33.397-61.066C29.029-58.336 24.611-55.668 20.298-52.86C18.839-51.993 16.24-48.622 14.644-50.006C13.108-52.365 17.876-53.726 19.418-54.687C24.189-57.541 28.852-60.606 33.617-63.477C36.151-65.024 38.455-64.638 40.836-63.025C45.736-59.914 50.671-56.78 55.557-53.612C56.308-53.117 57.399-52.174 57.583-51.499L57.589-51.476Z" data-clipstroke-keyframes="0 0 0 0.014445424 0.9860792 0 0.03343596 0.031692028 0.97289824 0 0.41294906 0.20475388 0.7996166 0 0.574964 0.26789355 0.7144383 0 0.9317097 0.42912126 0.5500374 0 1 0.46130657 0.5199461"/>
  </g>
 </g>
</svg>
