<?xml version="1.0" encoding="UTF-8"?>
<!--Generator: Apple Native CoreSVG 175.5-->
<!DOCTYPE svg
PUBLIC "-//W3C//DTD SVG 1.1//EN"
       "http://www.w3.org/Graphics/SVG/1.1/DTD/svg11.dtd">
<svg version="1.1" xmlns="http://www.w3.org/2000/svg" xmlns:xlink="http://www.w3.org/1999/xlink" width="3300" height="2200">
 <!--glyph: "", point size: 100.0, font version: "18.0d12e2", template writer version: "101"-->
 <style>.monochrome-0 {fill:#000000}
.monochrome-1 {fill:#000000}
.monochrome-2 {fill:#000000;-sfsymbols-variable-threshold:0.0}
.monochrome-3 {fill:#000000}

.multicolor-0:tintColor {fill:#007AFF}
.multicolor-1:tintColor {fill:#007AFF}
.multicolor-2:tintColor {fill:#007AFF;-sfsymbols-variable-threshold:0.0}
.multicolor-3:tintColor {fill:#007AFF}

.hierarchical-0:primary {fill:#212121}
.hierarchical-1:secondary {fill:#4D4D4D}
.hierarchical-2:primary {fill:#212121;-sfsymbols-variable-threshold:0.0}
.hierarchical-3:primary {fill:#212121}

.SFSymbolsPreview007AFF {fill:#007AFF;opacity:1.0}
</style>
 <g id="Notes">
  <rect height="2200" id="artboard" style="fill:white;opacity:1" width="3300" x="0" y="0"/>
  <line style="fill:none;stroke:black;opacity:1;stroke-width:0.5;" x1="263" x2="3036" y1="292" y2="292"/>
  <text style="stroke:none;fill:black;font-family:sans-serif;font-size:13;font-weight:bold;" transform="matrix(1 0 0 1 263 322)">Weight/Scale Variations</text>
  <text style="stroke:none;fill:black;font-family:sans-serif;font-size:13;text-anchor:middle;" transform="matrix(1 0 0 1 559.711 322)">Ultralight</text>
  <text style="stroke:none;fill:black;font-family:sans-serif;font-size:13;text-anchor:middle;" transform="matrix(1 0 0 1 856.422 322)">Thin</text>
  <text style="stroke:none;fill:black;font-family:sans-serif;font-size:13;text-anchor:middle;" transform="matrix(1 0 0 1 1153.13 322)">Light</text>
  <text style="stroke:none;fill:black;font-family:sans-serif;font-size:13;text-anchor:middle;" transform="matrix(1 0 0 1 1449.84 322)">Regular</text>
  <text style="stroke:none;fill:black;font-family:sans-serif;font-size:13;text-anchor:middle;" transform="matrix(1 0 0 1 1746.56 322)">Medium</text>
  <text style="stroke:none;fill:black;font-family:sans-serif;font-size:13;text-anchor:middle;" transform="matrix(1 0 0 1 2043.27 322)">Semibold</text>
  <text style="stroke:none;fill:black;font-family:sans-serif;font-size:13;text-anchor:middle;" transform="matrix(1 0 0 1 2339.98 322)">Bold</text>
  <text style="stroke:none;fill:black;font-family:sans-serif;font-size:13;text-anchor:middle;" transform="matrix(1 0 0 1 2636.69 322)">Heavy</text>
  <text style="stroke:none;fill:black;font-family:sans-serif;font-size:13;text-anchor:middle;" transform="matrix(1 0 0 1 2933.4 322)">Black</text>
  <line style="fill:none;stroke:black;opacity:1;stroke-width:0.5;" x1="263" x2="3036" y1="1903" y2="1903"/>
  <g transform="matrix(1 0 0 1 263 1933)">
   <path d="M9.24805 0.830078C13.5547 0.830078 17.1387-2.74414 17.1387-7.05078C17.1387-11.3574 13.5449-14.9316 9.23828-14.9316C4.94141-14.9316 1.36719-11.3574 1.36719-7.05078C1.36719-2.74414 4.95117 0.830078 9.24805 0.830078ZM9.24805-0.654297C5.70312-0.654297 2.87109-3.49609 2.87109-7.05078C2.87109-10.6055 5.69336-13.4473 9.23828-13.4473C12.793-13.4473 15.6445-10.6055 15.6445-7.05078C15.6445-3.49609 12.8027-0.654297 9.24805-0.654297ZM5.6543-7.05078C5.6543-6.62109 5.95703-6.32812 6.40625-6.32812L8.50586-6.32812L8.50586-4.20898C8.50586-3.76953 8.79883-3.4668 9.22852-3.4668C9.67773-3.4668 9.9707-3.76953 9.9707-4.20898L9.9707-6.32812L12.0898-6.32812C12.5293-6.32812 12.832-6.62109 12.832-7.05078C12.832-7.49023 12.5293-7.79297 12.0898-7.79297L9.9707-7.79297L9.9707-9.90234C9.9707-10.3516 9.67773-10.6543 9.22852-10.6543C8.79883-10.6543 8.50586-10.3516 8.50586-9.90234L8.50586-7.79297L6.40625-7.79297C5.95703-7.79297 5.6543-7.49023 5.6543-7.05078Z"/>
  </g>
  <g transform="matrix(1 0 0 1 281.867 1933)">
   <path d="M11.709 2.91016C17.1582 2.91016 21.6699-1.61133 21.6699-7.05078C21.6699-12.5 17.1484-17.0117 11.6992-17.0117C6.25977-17.0117 1.74805-12.5 1.74805-7.05078C1.74805-1.61133 6.26953 2.91016 11.709 2.91016ZM11.709 1.25C7.09961 1.25 3.41797-2.44141 3.41797-7.05078C3.41797-11.6602 7.08984-15.3516 11.6992-15.3516C16.3086-15.3516 20.0098-11.6602 20.0098-7.05078C20.0098-2.44141 16.3184 1.25 11.709 1.25ZM7.17773-7.05078C7.17773-6.57227 7.50977-6.25 8.00781-6.25L10.8789-6.25L10.8789-3.36914C10.8789-2.88086 11.2109-2.53906 11.6895-2.53906C12.1777-2.53906 12.5195-2.87109 12.5195-3.36914L12.5195-6.25L15.4004-6.25C15.8887-6.25 16.2305-6.57227 16.2305-7.05078C16.2305-7.53906 15.8887-7.88086 15.4004-7.88086L12.5195-7.88086L12.5195-10.752C12.5195-11.25 12.1777-11.5918 11.6895-11.5918C11.2109-11.5918 10.8789-11.25 10.8789-10.752L10.8789-7.88086L8.00781-7.88086C7.50977-7.88086 7.17773-7.53906 7.17773-7.05078Z"/>
  </g>
  <g transform="matrix(1 0 0 1 305.646 1933)">
   <path d="M14.9707 5.66406C21.9336 5.66406 27.6953-0.0976562 27.6953-7.05078C27.6953-14.0137 21.9238-19.7754 14.9609-19.7754C8.00781-19.7754 2.25586-14.0137 2.25586-7.05078C2.25586-0.0976562 8.01758 5.66406 14.9707 5.66406ZM14.9707 3.84766C8.93555 3.84766 4.08203-1.01562 4.08203-7.05078C4.08203-13.0957 8.92578-17.9492 14.9609-17.9492C21.0059-17.9492 25.8691-13.0957 25.8691-7.05078C25.8691-1.01562 21.0156 3.84766 14.9707 3.84766ZM9.19922-7.05078C9.19922-6.5332 9.57031-6.17188 10.1172-6.17188L14.0625-6.17188L14.0625-2.2168C14.0625-1.67969 14.4336-1.29883 14.9512-1.29883C15.4883-1.29883 15.8594-1.66992 15.8594-2.2168L15.8594-6.17188L19.8145-6.17188C20.3516-6.17188 20.7324-6.5332 20.7324-7.05078C20.7324-7.59766 20.3613-7.96875 19.8145-7.96875L15.8594-7.96875L15.8594-11.9141C15.8594-12.4609 15.4883-12.8418 14.9512-12.8418C14.4336-12.8418 14.0625-12.4609 14.0625-11.9141L14.0625-7.96875L10.1172-7.96875C9.57031-7.96875 9.19922-7.59766 9.19922-7.05078Z"/>
  </g>
  <text style="stroke:none;fill:black;font-family:sans-serif;font-size:13;font-weight:bold;" transform="matrix(1 0 0 1 263 1953)">Design Variations</text>
  <text style="stroke:none;fill:black;font-family:sans-serif;font-size:13;" transform="matrix(1 0 0 1 263 1971)">Symbols are supported in up to nine weights and three scales.</text>
  <text style="stroke:none;fill:black;font-family:sans-serif;font-size:13;" transform="matrix(1 0 0 1 263 1989)">For optimal layout with text and other symbols, vertically align</text>
  <text style="stroke:none;fill:black;font-family:sans-serif;font-size:13;" transform="matrix(1 0 0 1 263 2007)">symbols with the adjacent text.</text>
  <line style="fill:none;stroke:#00AEEF;stroke-width:0.5;opacity:1.0;" x1="776" x2="776" y1="1919" y2="1933"/>
  <g transform="matrix(1 0 0 1 776 1933)">
   <path d="M3.31055 0.15625C3.82812 0.15625 4.08203-0.0390625 4.26758-0.585938L5.52734-4.0332L11.2891-4.0332L12.5488-0.585938C12.7344-0.0390625 12.9883 0.15625 13.4961 0.15625C14.0137 0.15625 14.3457-0.15625 14.3457-0.644531C14.3457-0.810547 14.3164-0.966797 14.2383-1.17188L9.6582-13.3691C9.43359-13.9648 9.0332-14.2676 8.4082-14.2676C7.80273-14.2676 7.39258-13.9746 7.17773-13.3789L2.59766-1.16211C2.51953-0.957031 2.49023-0.800781 2.49023-0.634766C2.49023-0.146484 2.80273 0.15625 3.31055 0.15625ZM6.00586-5.51758L8.37891-12.0898L8.42773-12.0898L10.8008-5.51758Z"/>
  </g>
  <line style="fill:none;stroke:#00AEEF;stroke-width:0.5;opacity:1.0;" x1="793.197" x2="793.197" y1="1919" y2="1933"/>
  <text style="stroke:none;fill:black;font-family:sans-serif;font-size:13;font-weight:bold;" transform="matrix(1 0 0 1 776 1953)">Margins</text>
  <text style="stroke:none;fill:black;font-family:sans-serif;font-size:13;" transform="matrix(1 0 0 1 776 1971)">Leading and trailing margins on the left and right side of each symbol</text>
  <text style="stroke:none;fill:black;font-family:sans-serif;font-size:13;" transform="matrix(1 0 0 1 776 1989)">can be adjusted by modifying the x-location of the margin guidelines.</text>
  <text style="stroke:none;fill:black;font-family:sans-serif;font-size:13;" transform="matrix(1 0 0 1 776 2007)">Modifications are automatically applied proportionally to all</text>
  <text style="stroke:none;fill:black;font-family:sans-serif;font-size:13;" transform="matrix(1 0 0 1 776 2025)">scales and weights.</text>
  <g transform="matrix(1 0 0 1 1289 1933)">
   <path d="M2.8418 1.86523L4.54102 3.57422C5.40039 4.44336 6.38672 4.38477 7.31445 3.35938L18.0078-8.42773L17.041-9.4043L6.42578 2.27539C6.07422 2.67578 5.74219 2.77344 5.27344 2.30469L4.10156 1.14258C3.63281 0.683594 3.74023 0.341797 4.14062-0.0195312L15.6152-10.8203L14.6387-11.7871L3.04688-0.898438C2.06055 0.0195312 1.98242 0.996094 2.8418 1.86523ZM9.25781-16.3281C8.83789-15.918 8.80859-15.3418 9.04297-14.9512C9.27734-14.5898 9.73633-14.3555 10.3809-14.5215C11.8457-14.8633 13.3691-14.9219 14.7949-13.9844L14.209-12.5293C13.8672-11.6992 14.043-11.1133 14.5801-10.5664L16.875-8.25195C17.3633-7.76367 17.7734-7.74414 18.3398-7.8418L19.4043-8.03711L20.0684-7.36328L20.0293-6.80664C19.9902-6.30859 20.1172-5.92773 20.6055-5.44922L21.3672-4.70703C21.8457-4.22852 22.4609-4.19922 22.9297-4.66797L25.8398-7.58789C26.3086-8.05664 26.2891-8.65234 25.8105-9.13086L25.0391-9.89258C24.5605-10.3711 24.1895-10.5273 23.7109-10.4883L23.1348-10.4395L22.4902-11.0742L22.7344-12.1973C22.8613-12.7637 22.7051-13.2031 22.1191-13.7891L19.9219-15.9766C16.582-19.2969 12.1484-19.2188 9.25781-16.3281ZM10.752-15.957C13.1836-17.7344 16.4746-17.4316 18.7012-15.2051L21.1328-12.793C21.3672-12.5586 21.4062-12.373 21.3379-12.0312L21.0156-10.5469L22.5195-9.0625L23.5059-9.12109C23.7598-9.13086 23.8379-9.11133 24.0332-8.91602L24.6094-8.33984L22.168-5.89844L21.5918-6.47461C21.3965-6.66992 21.3672-6.74805 21.377-7.01172L21.4453-7.98828L19.9512-9.47266L18.4277-9.21875C18.1055-9.15039 17.959-9.17969 17.7148-9.41406L15.7129-11.416C15.459-11.6504 15.4297-11.8164 15.5859-12.1875L16.4648-14.2773C14.9023-15.7324 12.8711-16.3574 10.8398-15.7617C10.6836-15.7227 10.625-15.8496 10.752-15.957Z"/>
  </g>
  <text style="stroke:none;fill:black;font-family:sans-serif;font-size:13;font-weight:bold;" transform="matrix(1 0 0 1 1289 1953)">Exporting</text>
  <text style="stroke:none;fill:black;font-family:sans-serif;font-size:13;" transform="matrix(1 0 0 1 1289 1971)">Symbols should be outlined when exporting to ensure the</text>
  <text style="stroke:none;fill:black;font-family:sans-serif;font-size:13;" transform="matrix(1 0 0 1 1289 1989)">design is preserved when submitting to Xcode.</text>
  <text id="template-version" style="stroke:none;fill:black;font-family:sans-serif;font-size:13;text-anchor:end;" transform="matrix(1 0 0 1 3036 1933)">Template v.4.0</text>
  <text style="stroke:none;fill:black;font-family:sans-serif;font-size:13;text-anchor:end;" transform="matrix(1 0 0 1 3036 1951)">Requires Xcode 14 or greater</text>
  <text id="descriptive-name" style="stroke:none;fill:black;font-family:sans-serif;font-size:13;text-anchor:end;" transform="matrix(1 0 0 1 3036 1969)">Generated from custom.coreswitch</text>
  <text style="stroke:none;fill:black;font-family:sans-serif;font-size:13;text-anchor:end;" transform="matrix(1 0 0 1 3036 1987)">Typeset at 100 points</text>
  <text style="stroke:none;fill:black;font-family:sans-serif;font-size:13;" transform="matrix(1 0 0 1 263 726)">Small</text>
  <text style="stroke:none;fill:black;font-family:sans-serif;font-size:13;" transform="matrix(1 0 0 1 263 1156)">Medium</text>
  <text style="stroke:none;fill:black;font-family:sans-serif;font-size:13;" transform="matrix(1 0 0 1 263 1586)">Large</text>
 </g>
 <g id="Guides">
  <g id="H-reference" style="fill:#27AAE1;stroke:none;" transform="matrix(1 0 0 1 339 696)">
   <path d="M0.993654 0L3.63775 0L29.3281-67.1323L30.0303-67.1323L30.0303-70.459L28.1226-70.459ZM11.6885-24.4799L46.9815-24.4799L46.2315-26.7285L12.4385-26.7285ZM55.1196 0L57.7637 0L30.6382-70.459L29.4326-70.459L29.4326-67.1323Z"/>
  </g>
  <line id="Baseline-S" style="fill:none;stroke:#27AAE1;opacity:1;stroke-width:0.5;" x1="263" x2="3036" y1="696" y2="696"/>
  <line id="Capline-S" style="fill:none;stroke:#27AAE1;opacity:1;stroke-width:0.5;" x1="263" x2="3036" y1="625.541" y2="625.541"/>
  <g id="H-reference" style="fill:#27AAE1;stroke:none;" transform="matrix(1 0 0 1 339 1126)">
   <path d="M0.993654 0L3.63775 0L29.3281-67.1323L30.0303-67.1323L30.0303-70.459L28.1226-70.459ZM11.6885-24.4799L46.9815-24.4799L46.2315-26.7285L12.4385-26.7285ZM55.1196 0L57.7637 0L30.6382-70.459L29.4326-70.459L29.4326-67.1323Z"/>
  </g>
  <line id="Baseline-M" style="fill:none;stroke:#27AAE1;opacity:1;stroke-width:0.5;" x1="263" x2="3036" y1="1126" y2="1126"/>
  <line id="Capline-M" style="fill:none;stroke:#27AAE1;opacity:1;stroke-width:0.5;" x1="263" x2="3036" y1="1055.54" y2="1055.54"/>
  <g id="H-reference" style="fill:#27AAE1;stroke:none;" transform="matrix(1 0 0 1 339 1556)">
   <path d="M0.993654 0L3.63775 0L29.3281-67.1323L30.0303-67.1323L30.0303-70.459L28.1226-70.459ZM11.6885-24.4799L46.9815-24.4799L46.2315-26.7285L12.4385-26.7285ZM55.1196 0L57.7637 0L30.6382-70.459L29.4326-70.459L29.4326-67.1323Z"/>
  </g>
  <line id="Baseline-L" style="fill:none;stroke:#27AAE1;opacity:1;stroke-width:0.5;" x1="263" x2="3036" y1="1556" y2="1556"/>
  <line id="Capline-L" style="fill:none;stroke:#27AAE1;opacity:1;stroke-width:0.5;" x1="263" x2="3036" y1="1485.54" y2="1485.54"/>
  <line id="left-margin-Ultralight-S" style="fill:none;stroke:#00AEEF;stroke-width:0.5;opacity:1.0;" x1="516.35" x2="516.35" y1="600.785" y2="720.121"/>
  <line id="right-margin-Ultralight-S" style="fill:none;stroke:#00AEEF;stroke-width:0.5;opacity:1.0;" x1="603.073" x2="603.073" y1="600.785" y2="720.121"/>
  <line id="left-margin-Regular-S" style="fill:none;stroke:#00AEEF;stroke-width:0.5;opacity:1.0;" x1="1404.51" x2="1404.51" y1="600.785" y2="720.121"/>
  <line id="right-margin-Regular-S" style="fill:none;stroke:#00AEEF;stroke-width:0.5;opacity:1.0;" x1="1495.18" x2="1495.18" y1="600.785" y2="720.121"/>
  <line id="left-margin-Black-S" style="fill:none;stroke:#00AEEF;stroke-width:0.5;opacity:1.0;" x1="2885.5" x2="2885.5" y1="600.785" y2="720.121"/>
  <line id="right-margin-Black-S" style="fill:none;stroke:#00AEEF;stroke-width:0.5;opacity:1.0;" x1="2981.3" x2="2981.3" y1="600.785" y2="720.121"/>
 </g>
 <g id="Symbols">
  <g id="Black-S" transform="matrix(1 0 0 1 2885.5 696)">
   <path class="monochrome-0 multicolor-0:tintColor hierarchical-0:primary SFSymbolsPreview007AFF" d="M19.9921 10.6602L75.2392 10.6602C86.7833 10.6602 93.6156 3.82792 93.6156-7.71627L93.6156-62.9634C93.6156-74.5076 86.7833-81.3398 75.2392-81.3398L19.9921-81.3398C8.4479-81.3398 1.61562-74.5076 1.61562-62.9634L1.61562-7.71627C1.61562 3.82792 8.4479 10.6602 19.9921 10.6602Z"/>
   <path class="monochrome-1 multicolor-1:tintColor hierarchical-1:secondary SFSymbolsPreview007AFF" d="M21.1931 8.6602L74.0381 8.6602C85.0804 8.6602 91.6156 2.12498 91.6156-8.91729L91.6156-61.7624C91.6156-72.8047 85.0804-79.3398 74.0381-79.3398L21.1931-79.3398C10.1508-79.3398 3.61562-72.8047 3.61562-61.7624L3.61562-8.91729C3.61562 2.12498 10.1508 8.6602 21.1931 8.6602Z"/>
   <path class="monochrome-2 multicolor-2:tintColor hierarchical-2:primary SFSymbolsPreview007AFF" d="M31.7445-46.2892L59.5391-18.4687L64.4608-23.3645L36.6662-51.185L31.7445-46.2892ZM36.6662-18.4687L64.4608-46.2892L59.5391-51.185L31.7445-23.3645L36.6662-18.4687ZM26.6156-44.0615C26.6156-40.7976 30.2421-39.4766 32.5735-41.8079L41.1217-50.3561C43.453-52.6874 42.1319-56.3398 38.868-56.3398L30.1644-56.3398C28.1181-56.3398 26.6156-54.7856 26.6156-52.7392L26.6156-44.0615ZM26.6156-25.5922L26.6156-16.9145C26.6156-14.8681 28.1181-13.3398 30.1644-13.3398L38.868-13.3398C42.1319-13.3398 43.453-16.9663 41.1217-19.2976L32.5735-27.8458C30.2421-30.1772 26.6156-28.856 26.6156-25.5922ZM69.6156-44.0615L69.6156-52.7392C69.6156-54.7856 68.0873-56.3398 66.0409-56.3398L57.3373-56.3398C54.0734-56.3398 52.7524-52.6874 55.0837-50.3561L63.6319-41.8079C65.9632-39.4766 69.6156-40.7976 69.6156-44.0615ZM69.6156-25.5922C69.6156-28.856 65.9632-30.1772 63.6319-27.8458L55.0837-19.2976C52.7524-16.9663 54.0734-13.3398 57.3373-13.3398L66.0409-13.3398C68.0873-13.3398 69.6156-14.8681 69.6156-16.9145L69.6156-25.5922Z"/>
   <path class="monochrome-3 multicolor-3:tintColor hierarchical-3:primary SFSymbolsPreview007AFF" d="M48.4995-24C54.5403-24 59.5-28.9589 59.5-35C59.5-41.0411 54.5393-46 48.4985-46C42.4453-46 37.5-41.0411 37.5-35C37.5-28.9589 42.4463-24 48.4995-24ZM42.6966-62.7734L42.6706-6.98559L52.5185-6.95964L52.5445-62.7474L42.6966-62.7734ZM19.7266-29.9295L75.5144-29.9555L75.4884-39.8034L19.7007-39.7775L19.7266-29.9295ZM35.317-65.6835C32.0431-62.4096 34.3557-57.4466 39.0328-57.4466L56.1823-57.4466C60.8594-57.4466 63.198-62.4355 59.924-65.7096L51.1933-74.4402C49.1406-76.4929 46.0745-76.441 44.0217-74.3882L35.317-65.6835ZM16.7905-47.1569L8.0858-38.4523C6.03306-36.3995 6.0071-33.3594 8.05983-31.3067L16.7904-22.576C20.0645-19.302 25.0274-21.6146 25.0274-26.2917L25.0274-43.4412C25.0274-48.1183 20.0644-50.4309 16.7905-47.1569ZM78.4506-22.55L87.1553-31.2547C89.208-33.3074 89.234-36.3995 87.1812-38.4523L78.4506-47.1829C75.1766-50.4569 70.1877-48.1183 70.1877-43.4412L70.1877-26.2917C70.1877-21.6147 75.1766-19.2761 78.4506-22.55ZM59.924-4.02343C63.1979-7.29739 60.8594-12.2864 56.1822-12.2863L39.0328-12.2864C34.3557-12.2863 32.0431-7.32341 35.3171-4.04939L44.0477 4.68122C46.1005 6.734 49.1666 6.73397 51.2193 4.68123L59.924-4.02343Z"/>
  </g>
  <g id="Regular-S" transform="matrix(1 0 0 1 1404.51 696)">
   <path class="monochrome-0 multicolor-0:tintColor hierarchical-0:primary SFSymbolsPreview007AFF" d="M18.3071 6.6602L72.9041 6.6602C82.7627 6.6602 87.6056 1.82069 87.6056-7.85836L87.6056-62.8213C87.6056-72.5003 82.7627-77.3398 72.9041-77.3398L18.3071-77.3398C8.50609-77.3398 3.60562-72.5003 3.60562-62.8213L3.60562-7.85836C3.60562 1.82069 8.50609 6.6602 18.3071 6.6602Z"/>
   <path class="monochrome-1 multicolor-1:tintColor hierarchical-1:secondary SFSymbolsPreview007AFF" d="M18.957 5.6602L72.2542 5.6602C81.8781 5.6602 86.6056 0.935919 86.6056-8.51268L86.6056-62.1669C86.6056-71.6155 81.8781-76.3398 72.2542-76.3398L18.957-76.3398C9.38941-76.3398 4.60562-71.6155 4.60562-62.1669L4.60562-8.51268C4.60562 0.935919 9.38941 5.6602 18.957 5.6602Z"/>
   <path class="monochrome-2 multicolor-2:tintColor hierarchical-2:primary SFSymbolsPreview007AFF" d="M32.1587-45.8816L57.1218-20.8929L60.0525-23.7979L35.0895-48.7867L32.1587-45.8816ZM35.0895-20.8929L60.0525-45.8816L57.1218-48.7867L32.1587-23.7979L35.0895-20.8929ZM26.6056-43.1822C26.6056-41.1512 28.7652-40.6371 30.0763-41.9482L38.9972-50.8691C40.3083-52.1803 39.7684-54.3398 37.7632-54.3398L28.688-54.3398C27.4283-54.3398 26.6056-53.44 26.6056-52.2316L26.6056-43.1822ZM26.6056-26.4973L26.6056-17.4479C26.6056-16.2396 27.4283-15.3398 28.688-15.3398L37.7632-15.3398C39.7684-15.3398 40.3083-17.4993 38.9972-18.8105L30.0763-27.7313C28.7652-29.0425 26.6056-28.5283 26.6056-26.4973ZM65.6056-43.1822L65.6056-52.2316C65.6056-53.44 64.7829-54.3398 63.5232-54.3398L54.4481-54.3398C52.4171-54.3398 51.9029-52.1803 53.214-50.8691L62.135-41.9482C63.4461-40.6371 65.6056-41.1512 65.6056-43.1822ZM65.6056-26.4973C65.6056-28.5283 63.4461-29.0425 62.135-27.7313L53.214-18.8105C51.9029-17.4993 52.4171-15.3398 54.4481-15.3398L63.5232-15.3398C64.7829-15.3398 65.6056-16.2396 65.6056-17.4479L65.6056-26.4973Z"/>
   <path class="monochrome-3 multicolor-3:tintColor hierarchical-3:primary SFSymbolsPreview007AFF" d="M45.9895-24C52.0303-24 56.99-28.9589 56.99-35C56.99-41.0411 52.0293-46 45.9885-46C39.9353-46 34.99-41.0411 34.99-35C34.99-28.9589 39.9363-24 45.9895-24ZM43.0051-60.0273L42.979-9.30953L48.9043-9.28341L48.9304-60.0012L43.0051-60.0273ZM20.6089-31.6796L71.3266-31.7057L71.3006-37.6311L20.5828-37.605L20.6089-31.6796ZM34.6261-62.9247C32.564-60.8626 34.2346-58.1479 36.897-58.1479L55.0124-58.1479C57.6749-58.1479 59.3194-60.8887 57.2833-62.9247L48.0691-72.139C46.79-73.4181 45.0411-73.3397 43.8143-72.1129L34.6261-62.9247ZM17.6854-45.984L8.49718-36.7958C7.27036-35.569 7.19204-33.8201 8.47109-32.541L17.6854-23.3268C19.7214-21.2907 22.4622-22.9352 22.4622-25.5977L22.4622-43.713C22.4622-46.3755 19.7475-48.0461 17.6854-45.984ZM74.224-23.3267L83.4122-32.5149C84.6391-33.7418 84.7174-35.4907 83.4384-36.7697L74.2241-45.984C72.162-48.0461 69.4473-46.3755 69.4473-43.7131L69.4473-25.5977C69.4473-22.9352 72.1619-21.2646 74.224-23.3267ZM57.2834-6.38601C59.3455-8.44812 57.6749-11.1628 55.0124-11.1628L36.897-11.1628C34.2346-11.1628 32.564-8.44812 34.6261-6.38601L43.8404 2.82827C45.1194 4.10732 46.8683 4.02902 48.0952 2.80219L57.2834-6.38601Z"/>
  </g>
  <g id="Ultralight-S" transform="matrix(1 0 0 1 516.35 696)">
   <path class="monochrome-0 multicolor-0:tintColor hierarchical-0:primary SFSymbolsPreview007AFF" d="M15.5219 4.6602L71.0093 4.6602C78.6906 4.6602 82.7656 0.478739 82.7656-7.08341L82.7656-62.5963C82.7656-70.1584 78.6906-74.3398 71.0093-74.3398L15.5219-74.3398C7.84458-74.3398 3.76562-70.2651 3.76562-62.5963L3.76562-7.08341C3.76562 0.585514 7.84458 4.6602 15.5219 4.6602Z"/>
   <path class="monochrome-1 multicolor-1:tintColor hierarchical-1:secondary SFSymbolsPreview007AFF" d="M16.2243 3.6602L70.307 3.6602C77.7938 3.6602 81.7656-0.415402 81.7656-7.7861L81.7656-61.8936C81.7656-69.2642 77.7938-73.3398 70.307-73.3398L16.2243-73.3398C8.74131-73.3398 4.76562-69.3683 4.76562-61.8936L4.76562-7.7861C4.76562-0.31133 8.74131 3.6602 16.2243 3.6602Z"/>
   <path class="monochrome-2 multicolor-2:tintColor hierarchical-2:primary SFSymbolsPreview007AFF" d="M29.4094-48.8786L57.2759-20.9811L58.1219-21.801L30.2553-49.6985L29.4094-48.8786ZM30.2078-21.0049L58.1457-48.8311L57.3235-49.6747L29.3856-21.8485L30.2078-21.0049ZM25.7656-43.7489C25.7656-43.0849 26.4866-43.0016 26.8632-43.3779L35.7341-52.243C36.2058-52.7143 35.9542-53.3398 35.3867-53.3398L26.4574-53.3398C25.9893-53.3398 25.7656-53.0871 25.7656-52.6229L25.7656-43.7489ZM25.7656-26.9307L25.7656-18.0567C25.7656-17.5925 25.9893-17.3398 26.4574-17.3398L35.3867-17.3398C35.9542-17.3398 36.2058-17.9652 35.7341-18.4366L26.8632-27.3017C26.4866-27.678 25.7656-27.5947 25.7656-26.9307ZM61.7656-43.7489L61.7656-52.6229C61.7656-53.0871 61.542-53.3398 61.0976-53.3398L52.1684-53.3398C51.5753-53.3398 51.3255-52.7143 51.821-52.243L60.6919-43.3779C61.0685-43.0016 61.7656-43.0849 61.7656-43.7489ZM61.7656-26.9307C61.7656-27.5947 61.0685-27.678 60.6919-27.3017L51.821-18.4366C51.3255-17.9652 51.5753-17.3398 52.1684-17.3398L61.0976-17.3398C61.542-17.3398 61.7656-17.5925 61.7656-18.0567L61.7656-26.9307Z"/>
   <path class="monochrome-3 multicolor-3:tintColor hierarchical-3:primary SFSymbolsPreview007AFF" d="M43.4997-27.3398C47.6184-27.3398 51-30.7209 51-34.8398C51-38.9587 47.6177-42.3398 43.499-42.3398C39.3718-42.3398 36-38.9587 36-34.8398C36-30.7209 39.3725-27.3398 43.4997-27.3398ZM42.5846-63.7218L42.5531-6.76574L44.2545-6.7391L44.2861-63.6951L42.5846-63.7218ZM14.9306-34.4368L71.8867-34.3226L71.9086-36.0241L14.9525-36.1382L14.9306-34.4368ZM33.6236-62.204C32.9454-61.5258 33.5967-60.7044 34.3657-60.7042L52.4809-60.6982C53.4441-60.6978 53.8259-61.5936 53.2462-62.1733L44.1261-71.2934C43.648-71.7715 43.1615-71.7419 42.6873-71.2678L33.6236-62.204ZM16.4459-45.0264L7.38221-35.9627C6.90808-35.4885 6.87849-35.002 7.35657-34.5239L16.4767-25.4038C17.0564-24.8241 17.9521-25.2059 17.9518-26.1691L17.9458-44.2843C17.9456-45.0533 17.1241-45.7046 16.4459-45.0264ZM70.3932-25.4345L79.4569-34.4982C79.931-34.9724 79.9607-35.4589 79.5068-35.9127L70.3867-45.0328C69.7809-45.6387 68.887-45.2549 68.9116-44.2675L68.9176-26.1523C68.9178-25.3832 69.7149-24.7563 70.3932-25.4345ZM53.2155-8.25682C53.8937-8.93503 53.2667-9.73214 52.4977-9.73239L34.3825-9.73837C33.3951-9.76297 33.0114-8.8691 33.6172-8.26327L42.7373 0.856808C43.1911 1.31066 43.6776 1.28103 44.1518 0.8069L53.2155-8.25682Z"/>
  </g>
 </g>
</svg>
