<?xml version="1.0" encoding="UTF-8" standalone="no"?>
<svg
   width="246.27"
   height="244.8"
   viewBox="0 0 246.27 244.8"
   version="1.1"
   id="svg168"
   sodipodi:docname="omega-swirl.svg"
   inkscape:version="1.2.1 (9c6d41e, 2022-07-14)"
   xmlns:inkscape="http://www.inkscape.org/namespaces/inkscape"
   xmlns:sodipodi="http://sodipodi.sourceforge.net/DTD/sodipodi-0.dtd"
   xmlns="http://www.w3.org/2000/svg"
   xmlns:svg="http://www.w3.org/2000/svg">
  <defs
     id="defs172" />
  <sodipodi:namedview
     id="namedview170"
     pagecolor="#ffffff"
     bordercolor="#666666"
     borderopacity="1.0"
     inkscape:showpageshadow="2"
     inkscape:pageopacity="0.0"
     inkscape:pagecheckerboard="0"
     inkscape:deskcolor="#d1d1d1"
     showgrid="false"
     inkscape:zoom="0.96405228"
     inkscape:cx="130.17966"
     inkscape:cy="126.03051"
     inkscape:window-width="1662"
     inkscape:window-height="1121"
     inkscape:window-x="55"
     inkscape:window-y="25"
     inkscape:window-maximized="0"
     inkscape:current-layer="svg168" />
  <path
     d="m 0.16,92.11 c 0.58,-2.75 4.18,-5.32 7,-6.63 4.6,-2.18 10,-4.15 14.58,-7.01 16.86,-10.08 33.77,-20.22 50.63,-30.33 4.81,-2.77 9.28,-6.8 13.58,-9.79 3.99,-2.81 8.19,-3.79 12.58,-1.24 4.31,2.38 7.93,5.94 12.15,8.77 15.43,9.7 31.34,18.79 46.86,28.3 2.33,1.24 11.67,8.28 6.86,9.36 -2.89,0.56 -10.28,-3.44 -14,-5.86 -6.69,-4.01 -13.39,-8.03 -20.08,-12.04 -4.02,-2.41 -8.03,-4.82 -12.04,-7.23 C 110.22,53.72 101.7,47.47 92.2,47.95 86.92,48.2 81.81,50.59 77.14,53.16 59.49,63.57 41.94,74.24 24.37,84.74 17.73,88.29 12.53,94.98 5.59,97.13 2.52,98.1 -0.72,95.63 0.12,92.25 l 0.03,-0.12 z"
     id="path135"
     style="display:inline"
     inkscape:label="path135" />
  <path
     d="m 166.05,64.79 c 0.33,4.55 -10.56,-1.5 -12.37,-2.86 C 138.39,52.12 122.91,42.17 107.51,32.29 98.75,26.33 90.78,25.43 81.63,31.24 66.39,40.79 50.97,50.12 35.92,59.94 30.83,62.97 21.76,74.76 16.19,69.92 10.83,61.67 27.47,56.91 32.85,53.55 49.5,43.57 65.77,32.85 82.4,22.81 c 8.84,-5.41 16.88,-4.06 25.19,1.58 17.1,10.88 34.32,21.84 51.37,32.92 2.62,1.73 6.43,5.03 7.07,7.39 l 0.02,0.08 z"
     id="path132"
     style="display:inline" />
  <path
     d="m 90.94,0.05 c 5.74,1.04 10.04,6.05 15.15,9.4 19.62,11.99 39.56,23.64 59.64,34.83 9.69,4.51 19.32,6.2 17.55,19.18 -2.31,21.31 -0.19,43.16 -0.67,64.54 -0.12,3.05 -0.35,10.31 -3.19,10.94 -0.73,-0.07 -1.45,-1.14 -2.01,-2.97 -0.89,-2.82 -1.12,-6.61 -1.13,-9.76 -0.14,-15.5 -0.25,-31.04 -0.43,-46.53 0.07,-9.83 -1.61,-20.4 -9.97,-26.67 -2.65,-2.2 -5.66,-4.17 -8.68,-5.95 C 139.55,36.84 122.07,26.27 104.28,16.31 98.79,13.34 92.39,11.96 88.1,7.76 84.88,4.85 85.95,-0.47 90.82,0.03 h 0.13 z"
     id="path165"
     style="display:inline" />
  <path
     d="m 122.02,0.04 c 5.98,0.77 10.89,6.13 16.08,9.21 15.63,9.35 31.63,18.19 47.37,27.35 6.65,3.59 12.45,9.05 13.3,16.91 1.06,22.02 0,44.24 0.13,66.33 -0.19,3.28 -0.26,10.89 -3.42,11.57 -3.26,-2.28 -2.76,-9.27 -2.92,-13.24 0.16,-17.9 0.24,-35.91 0.32,-53.85 0.02,-4.63 -0.3,-9.59 -2.44,-13.67 -2.36,-4.7 -7.01,-7.87 -11.56,-10.47 -14.48,-8.17 -28.74,-16.79 -43.36,-24.67 -6.06,-3.34 -13.9,-3.76 -17.73,-9.6 -1.6,-3.01 0.94,-6.25 4.1,-5.88 h 0.13 z"
     id="path162"
     inkscape:label="path162"
     style="display:inline" />
  <path
     d="m 134.51,180.48 c -6.36,-3.51 25.9,-18.67 29.19,-21.12 5.09,-2.86 10.19,-5.73 15.28,-8.59 8.96,-5.29 20.07,-9.9 24.87,-19.38 2.27,-4.56 2.82,-9.9 3,-15.04 0.02,-19.79 -0.16,-39.57 -0.25,-59.27 0.78,-6.92 -5.1,-23.66 3.12,-26.13 9.1,0.4 3.46,16.16 3.66,22.13 -0.07,26.37 -0.72,53 1.26,79.31 0.48,11.16 -11.82,13.06 -19.79,17.07 -16.47,8.78 -32.69,18.33 -48.95,27.33 -3.18,1.77 -8.11,4.2 -11.32,3.71 z"
     id="path159"
     style="display:inline" />
  <path
     d="m 150.4,189.93 c -4.09,-1.97 6.66,-8.52 8.74,-9.58 16.22,-9.04 32.5,-18.05 48.73,-27.07 10.37,-5.24 14.91,-12.92 14.31,-24.53 -0.17,-16.68 -0.04,-33.39 -0.4,-50.06 0.17,-6.32 -3.97,-19.61 3.67,-22.15 8.89,0.35 3.49,14.77 3.36,20.54 -0.78,19.44 0.17,39.01 -0.14,58.46 0.22,10.1 -5.67,17.21 -14.43,21.58 -17.93,9.97 -35.89,20.08 -53.99,30 -2.77,1.49 -7.37,3.28 -9.76,2.83 l -0.08,-0.02 z"
     id="path156"
     style="display:inline" />
  <path
     d="m 246.09,152.84 c -0.8,3.07 -4.73,5.52 -7.86,6.94 -4.34,1.98 -9.25,3.9 -13.49,6.5 -18,10.9 -36.25,21.52 -54.06,32.63 -9.46,6.29 -15.46,16.63 -26.89,7.01 -18.22,-14.41 -39.42,-25.05 -58.56,-38.16 -2.09,-1.5 -8.04,-6.85 -4.08,-7.63 2.9,-0.57 10.38,3.72 14.13,6.25 6.67,4.16 13.37,8.35 20.05,12.52 4.04,2.52 8.07,5.04 12.11,7.56 7.96,4.79 16.36,11.38 25.86,11.01 5.34,-0.19 10.5,-2.67 15.21,-5.27 17.84,-10.56 35.58,-21.37 53.35,-32.03 4.95,-2.88 9.59,-7.2 14.01,-10.21 2.1,-1.33 3.86,-2.23 5.98,-2.38 2.78,-0.26 5.02,2.35 4.26,5.16 l -0.03,0.12 z"
     id="path153"
     style="display:inline" />
  <path
     d="m 80.12,179.61 c -0.39,-4.65 10.87,1.52 12.73,2.89 16.03,9.99 32.23,20.11 48.34,30.16 10.06,6.67 18,6.39 27.89,-0.43 14.18,-9.39 28.86,-18.11 42.75,-27.9 4.67,-3.16 12.88,-13.98 18.31,-9.31 5.35,8.34 -11,13.09 -16.43,16.62 -15.93,9.85 -31.46,20.44 -47.37,30.33 -8.89,5.63 -16.99,4.18 -25.43,-1.47 -17.84,-11.19 -35.77,-22.25 -53.56,-33.5 -2.66,-1.7 -6.52,-4.96 -7.2,-7.32 l -0.02,-0.08 z"
     id="path150"
     style="display:inline" />
  <path
     d="m 65.52,105.62 c 3.07,-2.24 4.09,7.43 4.06,10.86 0.05,13.29 0,26.67 0.02,39.97 0.21,9.73 -1.14,20.93 4.34,29.31 2.81,4.31 7.26,7.51 11.67,10.24 17.79,10.4 35.69,20.62 53.53,30.91 5.32,3.91 23.76,7.7 21.27,15.5 -4.49,7.46 -16.13,-5.16 -21.24,-7.91 C 119.85,223.14 100.43,211.87 80.9,200.88 71,195.83 60,194.99 61.92,181.14 c 2.47,-21.13 0.75,-42.78 1.24,-64.04 0.02,-3.56 0.32,-8.94 2.31,-11.43 z"
     id="path147"
     style="display:inline" />
  <path
     d="m 49.94,114.75 c 3.56,-2.22 4.05,9.87 3.97,12.17 0,17.86 -0.04,35.75 -0.17,53.53 -0.5,11.47 4,18.73 14.12,23.97 14.33,8.1 28.47,16.56 42.92,24.43 5.24,3.15 19.06,5.74 17.39,13.48 -4.49,7.69 -15.39,-4.77 -20.48,-7.52 -16.05,-9.69 -32.62,-18.61 -48.75,-28.19 -8.8,-4.97 -12,-13.16 -11.58,-22.98 0.11,-19.81 0.05,-39.65 0.24,-59.45 0.07,-2.98 0.73,-7.69 2.28,-9.4 l 0.05,-0.05 z"
     id="path144"
     style="display:inline" />
  <path
     d="m 110.93,64.9 c 3.53,1.5 -4.48,7.22 -7.45,8.88 -11.94,6.82 -24.11,13.64 -36.11,20.44 -8.83,5.22 -19.63,9.75 -24.45,19.08 -2.43,4.75 -3,10.36 -3.23,15.72 -0.17,19.85 -0.03,39.72 -0.06,59.55 -0.74,6.6 5.04,24.01 -2.8,26.05 -8.96,0.1 -3.84,-16.67 -3.98,-22.41 0.3,-20.43 0.02,-40.89 0.11,-61.32 0.12,-5.84 -1.17,-12.18 -1.22,-17.72 C 31.16,102.13 43.33,99.9 51.21,95.81 68.3,86.59 85,76.54 102.06,67.3 c 2.55,-1.31 6.6,-2.84 8.8,-2.41 l 0.08,0.02 z"
     id="path141"
     style="display:inline" />
  <path
     d="m 94.8,55.88 c 3.89,2.04 -6.83,8.69 -8.92,9.76 -15.88,9 -31.83,17.99 -47.72,26.99 -10.19,5.25 -14.72,12.87 -14.15,24.34 0.16,16.34 -0.02,32.69 0.38,48.98 -0.14,6.25 4.39,19.27 -3.1,21.99 -8.93,-0.11 -4.02,-14.8 -3.91,-20.6 0.64,-18.19 0,-36.54 0.05,-54.67 -0.56,-11.42 4.38,-18.79 14.43,-23.95 17.78,-10.01 35.5,-20.18 53.31,-30.11 2.7,-1.47 7.23,-3.27 9.56,-2.77 l 0.08,0.02 z"
     id="path138"
     style="display:inline" />
</svg>
