<?xml version="1.0" encoding="UTF-8"?>
<!--Generator: Apple Native CoreSVG 175.5-->
<!DOCTYPE svg
PUBLIC "-//W3C//DTD SVG 1.1//EN"
       "http://www.w3.org/Graphics/SVG/1.1/DTD/svg11.dtd">
<svg version="1.1" xmlns="http://www.w3.org/2000/svg" xmlns:xlink="http://www.w3.org/1999/xlink" width="3300" height="2200">
 <!--glyph: "", point size: 100.0, font version: "18.0d12e2", template writer version: "101"-->
 <style>.monochrome-0 {fill:#000000}
.monochrome-1 {fill:#000000}
.monochrome-2 {fill:#000000}

.hierarchical-0:primary {fill:#212121}
.hierarchical-1:secondary {fill:#4D4D4D}
.hierarchical-2:primary {fill:#212121}

.SFSymbolsPreview212121 {fill:#212121;opacity:1.0}
.SFSymbolsPreview4D4D4D {fill:#4D4D4D;opacity:1.0}
</style>
 <g id="Notes">
  <rect height="2200" id="artboard" style="fill:white;opacity:1" width="3300" x="0" y="0"/>
  <line style="fill:none;stroke:black;opacity:1;stroke-width:0.5;" x1="263" x2="3036" y1="292" y2="292"/>
  <text style="stroke:none;fill:black;font-family:sans-serif;font-size:13;font-weight:bold;" transform="matrix(1 0 0 1 263 322)">Weight/Scale Variations</text>
  <text style="stroke:none;fill:black;font-family:sans-serif;font-size:13;text-anchor:middle;" transform="matrix(1 0 0 1 559.711 322)">Ultralight</text>
  <text style="stroke:none;fill:black;font-family:sans-serif;font-size:13;text-anchor:middle;" transform="matrix(1 0 0 1 856.422 322)">Thin</text>
  <text style="stroke:none;fill:black;font-family:sans-serif;font-size:13;text-anchor:middle;" transform="matrix(1 0 0 1 1153.13 322)">Light</text>
  <text style="stroke:none;fill:black;font-family:sans-serif;font-size:13;text-anchor:middle;" transform="matrix(1 0 0 1 1449.84 322)">Regular</text>
  <text style="stroke:none;fill:black;font-family:sans-serif;font-size:13;text-anchor:middle;" transform="matrix(1 0 0 1 1746.56 322)">Medium</text>
  <text style="stroke:none;fill:black;font-family:sans-serif;font-size:13;text-anchor:middle;" transform="matrix(1 0 0 1 2043.27 322)">Semibold</text>
  <text style="stroke:none;fill:black;font-family:sans-serif;font-size:13;text-anchor:middle;" transform="matrix(1 0 0 1 2339.98 322)">Bold</text>
  <text style="stroke:none;fill:black;font-family:sans-serif;font-size:13;text-anchor:middle;" transform="matrix(1 0 0 1 2636.69 322)">Heavy</text>
  <text style="stroke:none;fill:black;font-family:sans-serif;font-size:13;text-anchor:middle;" transform="matrix(1 0 0 1 2933.4 322)">Black</text>
  <line style="fill:none;stroke:black;opacity:1;stroke-width:0.5;" x1="263" x2="3036" y1="1903" y2="1903"/>
  <g transform="matrix(1 0 0 1 263 1933)">
   <path d="M9.24805 0.830078C13.5547 0.830078 17.1387-2.74414 17.1387-7.05078C17.1387-11.3574 13.5449-14.9316 9.23828-14.9316C4.94141-14.9316 1.36719-11.3574 1.36719-7.05078C1.36719-2.74414 4.95117 0.830078 9.24805 0.830078ZM9.24805-0.654297C5.70312-0.654297 2.87109-3.49609 2.87109-7.05078C2.87109-10.6055 5.69336-13.4473 9.23828-13.4473C12.793-13.4473 15.6445-10.6055 15.6445-7.05078C15.6445-3.49609 12.8027-0.654297 9.24805-0.654297ZM5.6543-7.05078C5.6543-6.62109 5.95703-6.32812 6.40625-6.32812L8.50586-6.32812L8.50586-4.20898C8.50586-3.76953 8.79883-3.4668 9.22852-3.4668C9.67773-3.4668 9.9707-3.76953 9.9707-4.20898L9.9707-6.32812L12.0898-6.32812C12.5293-6.32812 12.832-6.62109 12.832-7.05078C12.832-7.49023 12.5293-7.79297 12.0898-7.79297L9.9707-7.79297L9.9707-9.90234C9.9707-10.3516 9.67773-10.6543 9.22852-10.6543C8.79883-10.6543 8.50586-10.3516 8.50586-9.90234L8.50586-7.79297L6.40625-7.79297C5.95703-7.79297 5.6543-7.49023 5.6543-7.05078Z"/>
  </g>
  <g transform="matrix(1 0 0 1 281.867 1933)">
   <path d="M11.709 2.91016C17.1582 2.91016 21.6699-1.61133 21.6699-7.05078C21.6699-12.5 17.1484-17.0117 11.6992-17.0117C6.25977-17.0117 1.74805-12.5 1.74805-7.05078C1.74805-1.61133 6.26953 2.91016 11.709 2.91016ZM11.709 1.25C7.09961 1.25 3.41797-2.44141 3.41797-7.05078C3.41797-11.6602 7.08984-15.3516 11.6992-15.3516C16.3086-15.3516 20.0098-11.6602 20.0098-7.05078C20.0098-2.44141 16.3184 1.25 11.709 1.25ZM7.17773-7.05078C7.17773-6.57227 7.50977-6.25 8.00781-6.25L10.8789-6.25L10.8789-3.36914C10.8789-2.88086 11.2109-2.53906 11.6895-2.53906C12.1777-2.53906 12.5195-2.87109 12.5195-3.36914L12.5195-6.25L15.4004-6.25C15.8887-6.25 16.2305-6.57227 16.2305-7.05078C16.2305-7.53906 15.8887-7.88086 15.4004-7.88086L12.5195-7.88086L12.5195-10.752C12.5195-11.25 12.1777-11.5918 11.6895-11.5918C11.2109-11.5918 10.8789-11.25 10.8789-10.752L10.8789-7.88086L8.00781-7.88086C7.50977-7.88086 7.17773-7.53906 7.17773-7.05078Z"/>
  </g>
  <g transform="matrix(1 0 0 1 305.646 1933)">
   <path d="M14.9707 5.66406C21.9336 5.66406 27.6953-0.0976562 27.6953-7.05078C27.6953-14.0137 21.9238-19.7754 14.9609-19.7754C8.00781-19.7754 2.25586-14.0137 2.25586-7.05078C2.25586-0.0976562 8.01758 5.66406 14.9707 5.66406ZM14.9707 3.84766C8.93555 3.84766 4.08203-1.01562 4.08203-7.05078C4.08203-13.0957 8.92578-17.9492 14.9609-17.9492C21.0059-17.9492 25.8691-13.0957 25.8691-7.05078C25.8691-1.01562 21.0156 3.84766 14.9707 3.84766ZM9.19922-7.05078C9.19922-6.5332 9.57031-6.17188 10.1172-6.17188L14.0625-6.17188L14.0625-2.2168C14.0625-1.67969 14.4336-1.29883 14.9512-1.29883C15.4883-1.29883 15.8594-1.66992 15.8594-2.2168L15.8594-6.17188L19.8145-6.17188C20.3516-6.17188 20.7324-6.5332 20.7324-7.05078C20.7324-7.59766 20.3613-7.96875 19.8145-7.96875L15.8594-7.96875L15.8594-11.9141C15.8594-12.4609 15.4883-12.8418 14.9512-12.8418C14.4336-12.8418 14.0625-12.4609 14.0625-11.9141L14.0625-7.96875L10.1172-7.96875C9.57031-7.96875 9.19922-7.59766 9.19922-7.05078Z"/>
  </g>
  <text style="stroke:none;fill:black;font-family:sans-serif;font-size:13;font-weight:bold;" transform="matrix(1 0 0 1 263 1953)">Design Variations</text>
  <text style="stroke:none;fill:black;font-family:sans-serif;font-size:13;" transform="matrix(1 0 0 1 263 1971)">Symbols are supported in up to nine weights and three scales.</text>
  <text style="stroke:none;fill:black;font-family:sans-serif;font-size:13;" transform="matrix(1 0 0 1 263 1989)">For optimal layout with text and other symbols, vertically align</text>
  <text style="stroke:none;fill:black;font-family:sans-serif;font-size:13;" transform="matrix(1 0 0 1 263 2007)">symbols with the adjacent text.</text>
  <line style="fill:none;stroke:#00AEEF;stroke-width:0.5;opacity:1.0;" x1="776" x2="776" y1="1919" y2="1933"/>
  <g transform="matrix(1 0 0 1 776 1933)">
   <path d="M3.31055 0.15625C3.82812 0.15625 4.08203-0.0390625 4.26758-0.585938L5.52734-4.0332L11.2891-4.0332L12.5488-0.585938C12.7344-0.0390625 12.9883 0.15625 13.4961 0.15625C14.0137 0.15625 14.3457-0.15625 14.3457-0.644531C14.3457-0.810547 14.3164-0.966797 14.2383-1.17188L9.6582-13.3691C9.43359-13.9648 9.0332-14.2676 8.4082-14.2676C7.80273-14.2676 7.39258-13.9746 7.17773-13.3789L2.59766-1.16211C2.51953-0.957031 2.49023-0.800781 2.49023-0.634766C2.49023-0.146484 2.80273 0.15625 3.31055 0.15625ZM6.00586-5.51758L8.37891-12.0898L8.42773-12.0898L10.8008-5.51758Z"/>
  </g>
  <line style="fill:none;stroke:#00AEEF;stroke-width:0.5;opacity:1.0;" x1="793.197" x2="793.197" y1="1919" y2="1933"/>
  <text style="stroke:none;fill:black;font-family:sans-serif;font-size:13;font-weight:bold;" transform="matrix(1 0 0 1 776 1953)">Margins</text>
  <text style="stroke:none;fill:black;font-family:sans-serif;font-size:13;" transform="matrix(1 0 0 1 776 1971)">Leading and trailing margins on the left and right side of each symbol</text>
  <text style="stroke:none;fill:black;font-family:sans-serif;font-size:13;" transform="matrix(1 0 0 1 776 1989)">can be adjusted by modifying the x-location of the margin guidelines.</text>
  <text style="stroke:none;fill:black;font-family:sans-serif;font-size:13;" transform="matrix(1 0 0 1 776 2007)">Modifications are automatically applied proportionally to all</text>
  <text style="stroke:none;fill:black;font-family:sans-serif;font-size:13;" transform="matrix(1 0 0 1 776 2025)">scales and weights.</text>
  <g transform="matrix(1 0 0 1 1289 1933)">
   <path d="M2.8418 1.86523L4.54102 3.57422C5.40039 4.44336 6.38672 4.38477 7.31445 3.35938L18.0078-8.42773L17.041-9.4043L6.42578 2.27539C6.07422 2.67578 5.74219 2.77344 5.27344 2.30469L4.10156 1.14258C3.63281 0.683594 3.74023 0.341797 4.14062-0.0195312L15.6152-10.8203L14.6387-11.7871L3.04688-0.898438C2.06055 0.0195312 1.98242 0.996094 2.8418 1.86523ZM9.25781-16.3281C8.83789-15.918 8.80859-15.3418 9.04297-14.9512C9.27734-14.5898 9.73633-14.3555 10.3809-14.5215C11.8457-14.8633 13.3691-14.9219 14.7949-13.9844L14.209-12.5293C13.8672-11.6992 14.043-11.1133 14.5801-10.5664L16.875-8.25195C17.3633-7.76367 17.7734-7.74414 18.3398-7.8418L19.4043-8.03711L20.0684-7.36328L20.0293-6.80664C19.9902-6.30859 20.1172-5.92773 20.6055-5.44922L21.3672-4.70703C21.8457-4.22852 22.4609-4.19922 22.9297-4.66797L25.8398-7.58789C26.3086-8.05664 26.2891-8.65234 25.8105-9.13086L25.0391-9.89258C24.5605-10.3711 24.1895-10.5273 23.7109-10.4883L23.1348-10.4395L22.4902-11.0742L22.7344-12.1973C22.8613-12.7637 22.7051-13.2031 22.1191-13.7891L19.9219-15.9766C16.582-19.2969 12.1484-19.2188 9.25781-16.3281ZM10.752-15.957C13.1836-17.7344 16.4746-17.4316 18.7012-15.2051L21.1328-12.793C21.3672-12.5586 21.4062-12.373 21.3379-12.0312L21.0156-10.5469L22.5195-9.0625L23.5059-9.12109C23.7598-9.13086 23.8379-9.11133 24.0332-8.91602L24.6094-8.33984L22.168-5.89844L21.5918-6.47461C21.3965-6.66992 21.3672-6.74805 21.377-7.01172L21.4453-7.98828L19.9512-9.47266L18.4277-9.21875C18.1055-9.15039 17.959-9.17969 17.7148-9.41406L15.7129-11.416C15.459-11.6504 15.4297-11.8164 15.5859-12.1875L16.4648-14.2773C14.9023-15.7324 12.8711-16.3574 10.8398-15.7617C10.6836-15.7227 10.625-15.8496 10.752-15.957Z"/>
  </g>
  <text style="stroke:none;fill:black;font-family:sans-serif;font-size:13;font-weight:bold;" transform="matrix(1 0 0 1 1289 1953)">Exporting</text>
  <text style="stroke:none;fill:black;font-family:sans-serif;font-size:13;" transform="matrix(1 0 0 1 1289 1971)">Symbols should be outlined when exporting to ensure the</text>
  <text style="stroke:none;fill:black;font-family:sans-serif;font-size:13;" transform="matrix(1 0 0 1 1289 1989)">design is preserved when submitting to Xcode.</text>
  <text id="template-version" style="stroke:none;fill:black;font-family:sans-serif;font-size:13;text-anchor:end;" transform="matrix(1 0 0 1 3036 1933)">Template v.4.0</text>
  <text style="stroke:none;fill:black;font-family:sans-serif;font-size:13;text-anchor:end;" transform="matrix(1 0 0 1 3036 1951)">Requires Xcode 14 or greater</text>
  <text id="descriptive-name" style="stroke:none;fill:black;font-family:sans-serif;font-size:13;text-anchor:end;" transform="matrix(1 0 0 1 3036 1969)">Generated from custom.router</text>
  <text style="stroke:none;fill:black;font-family:sans-serif;font-size:13;text-anchor:end;" transform="matrix(1 0 0 1 3036 1987)">Typeset at 100 points</text>
  <text style="stroke:none;fill:black;font-family:sans-serif;font-size:13;" transform="matrix(1 0 0 1 263 726)">Small</text>
  <text style="stroke:none;fill:black;font-family:sans-serif;font-size:13;" transform="matrix(1 0 0 1 263 1156)">Medium</text>
  <text style="stroke:none;fill:black;font-family:sans-serif;font-size:13;" transform="matrix(1 0 0 1 263 1586)">Large</text>
 </g>
 <g id="Guides">
  <g id="H-reference" style="fill:#27AAE1;stroke:none;" transform="matrix(1 0 0 1 339 696)">
   <path d="M0.993654 0L3.63775 0L29.3281-67.1323L30.0303-67.1323L30.0303-70.459L28.1226-70.459ZM11.6885-24.4799L46.9815-24.4799L46.2315-26.7285L12.4385-26.7285ZM55.1196 0L57.7637 0L30.6382-70.459L29.4326-70.459L29.4326-67.1323Z"/>
  </g>
  <line id="Baseline-S" style="fill:none;stroke:#27AAE1;opacity:1;stroke-width:0.5;" x1="263" x2="3036" y1="696" y2="696"/>
  <line id="Capline-S" style="fill:none;stroke:#27AAE1;opacity:1;stroke-width:0.5;" x1="263" x2="3036" y1="625.541" y2="625.541"/>
  <g id="H-reference" style="fill:#27AAE1;stroke:none;" transform="matrix(1 0 0 1 339 1126)">
   <path d="M0.993654 0L3.63775 0L29.3281-67.1323L30.0303-67.1323L30.0303-70.459L28.1226-70.459ZM11.6885-24.4799L46.9815-24.4799L46.2315-26.7285L12.4385-26.7285ZM55.1196 0L57.7637 0L30.6382-70.459L29.4326-70.459L29.4326-67.1323Z"/>
  </g>
  <line id="Baseline-M" style="fill:none;stroke:#27AAE1;opacity:1;stroke-width:0.5;" x1="263" x2="3036" y1="1126" y2="1126"/>
  <line id="Capline-M" style="fill:none;stroke:#27AAE1;opacity:1;stroke-width:0.5;" x1="263" x2="3036" y1="1055.54" y2="1055.54"/>
  <g id="H-reference" style="fill:#27AAE1;stroke:none;" transform="matrix(1 0 0 1 339 1556)">
   <path d="M0.993654 0L3.63775 0L29.3281-67.1323L30.0303-67.1323L30.0303-70.459L28.1226-70.459ZM11.6885-24.4799L46.9815-24.4799L46.2315-26.7285L12.4385-26.7285ZM55.1196 0L57.7637 0L30.6382-70.459L29.4326-70.459L29.4326-67.1323Z"/>
  </g>
  <line id="Baseline-L" style="fill:none;stroke:#27AAE1;opacity:1;stroke-width:0.5;" x1="263" x2="3036" y1="1556" y2="1556"/>
  <line id="Capline-L" style="fill:none;stroke:#27AAE1;opacity:1;stroke-width:0.5;" x1="263" x2="3036" y1="1485.54" y2="1485.54"/>
  <line id="left-margin-Ultralight-S" style="fill:none;stroke:#00AEEF;stroke-width:0.5;opacity:1.0;" x1="515.649" x2="515.649" y1="600.785" y2="720.121"/>
  <line id="right-margin-Ultralight-S" style="fill:none;stroke:#00AEEF;stroke-width:0.5;opacity:1.0;" x1="603.773" x2="603.773" y1="600.785" y2="720.121"/>
  <line id="left-margin-Regular-S" style="fill:none;stroke:#00AEEF;stroke-width:0.5;opacity:1.0;" x1="1403.58" x2="1403.58" y1="600.785" y2="720.121"/>
  <line id="right-margin-Regular-S" style="fill:none;stroke:#00AEEF;stroke-width:0.5;opacity:1.0;" x1="1496.11" x2="1496.11" y1="600.785" y2="720.121"/>
  <line id="left-margin-Black-S" style="fill:none;stroke:#00AEEF;stroke-width:0.5;opacity:1.0;" x1="2884.57" x2="2884.57" y1="600.785" y2="720.121"/>
  <line id="right-margin-Black-S" style="fill:none;stroke:#00AEEF;stroke-width:0.5;opacity:1.0;" x1="2982.23" x2="2982.23" y1="600.785" y2="720.121"/>
 </g>
 <g id="Symbols">
  <g id="Black-S" transform="matrix(1 0 0 1 2884.57 696)">
   <path class="monochrome-0 hierarchical-0:primary SFSymbolsPreview212121" d="M48.3359 3.8027C69.5558 3.8027 86.8359-13.4775 86.8359-34.6973C86.8359-55.917 69.5558-73.1973 48.3359-73.1973C27.1162-73.1973 9.83594-55.917 9.83594-34.6973C9.83594-13.4775 27.1162 3.8027 48.3359 3.8027Z"/>
   <path class="monochrome-1 hierarchical-1:secondary SFSymbolsPreview4D4D4D" d="M48.0609 2.2527C68.578 2.2527 85.2859-14.4552 85.2859-34.9723C85.2859-55.4893 68.578-72.1973 48.0609-72.1973C27.5439-72.1973 10.8359-55.4893 10.8359-34.9723C10.8359-14.4552 27.5439 2.2527 48.0609 2.2527Z"/>
   <path class="monochrome-2 hierarchical-2:primary SFSymbolsPreview212121" d="M24.4279-24.0563L24.4279-13.8467C24.4279-12.4834 25.3561-11.4682 26.7773-11.4682L37.0159-11.4682C39.3073-11.4682 39.8874-13.9046 38.4082-15.3839L28.3436-25.4485C26.8643-26.9277 24.4279-26.3476 24.4279-24.0563ZM32.2045-37.4682L42.4141-37.4682C43.7774-37.4682 44.7925-38.3964 44.7925-39.8176L44.7925-50.0562C44.7925-52.3476 42.3561-52.9277 40.8769-51.4485L30.8123-41.3839C29.3331-39.9047 29.9131-37.4682 32.2045-37.4682ZM70.7925-45.4099L70.7925-55.6195C70.7925-56.9828 69.8644-57.9979 68.4431-57.9979L58.2045-57.9979C55.9132-57.9979 55.3331-55.5615 56.8123-54.0823L66.8769-44.0177C68.3561-42.5385 70.7925-43.1185 70.7925-45.4099ZM63.016-31.9979L52.8064-31.9979C51.4431-31.9979 50.4279-31.0698 50.4279-29.6485L50.4279-19.4099C50.4279-17.1186 52.8643-16.5385 54.3436-18.0177L64.4082-28.0823C65.8874-29.5615 65.3073-31.9979 63.016-31.9979ZM70.1435-15.3939L59.637-25.8939C58.7308-26.7995 57.2621-26.7991 56.3564-25.8929C56.3544-25.8908 56.3523-25.8888 56.3502-25.8867C55.4436-24.9726 55.4469-23.4975 56.3575-22.5874L66.8494-12.1018C67.7592-11.1926 69.2337-11.1926 70.1435-12.1018C71.0525-13.0103 71.053-14.4838 70.1445-15.3929C70.1441-15.3932 70.1438-15.3935 70.1435-15.3939ZM25.077-54.062L35.5835-43.5619C36.4896-42.6563 37.9584-42.6567 38.864-43.5629C38.8661-43.565 38.8682-43.5671 38.8702-43.5691C39.7769-44.4832 39.7736-45.9583 38.863-46.8684L28.371-57.354C27.4613-58.2632 25.9868-58.2632 25.077-57.354C24.1679-56.4455 24.1675-54.972 25.076-54.063C25.0763-54.0626 25.0767-54.0623 25.077-54.062ZM40.8545-31.3509L30.3544-20.8445C29.4488-19.9383 29.4492-18.4695 30.3554-17.5639C30.3575-17.5618 30.3596-17.5598 30.3617-17.5577C31.2758-16.6511 32.7509-16.6543 33.661-17.565L44.1465-28.0569C45.0557-28.9667 45.0557-30.4411 44.1465-31.3509C43.238-32.26 41.7646-32.2604 40.8555-31.3519C40.8552-31.3516 40.8548-31.3513 40.8545-31.3509ZM54.366-38.1049L64.866-48.6113C65.7717-49.5175 65.7712-50.9863 64.865-51.8919C64.863-51.894 64.8609-51.896 64.8588-51.8981C63.9447-52.8047 62.4696-52.8015 61.5595-51.8908L51.074-41.3989C50.1647-40.4891 50.1647-39.0147 51.074-38.1049C51.9825-37.1958 53.4559-37.1954 54.365-38.1039C54.3653-38.1042 54.3656-38.1046 54.366-38.1049Z"/>
  </g>
  <g id="Regular-S" transform="matrix(1 0 0 1 1403.58 696)">
   <path class="monochrome-0 hierarchical-0:primary SFSymbolsPreview212121" d="M44.2461 3.22C65.2721 3.22 82.77-14.241 82.77-35.28C82.77-56.319 65.2244-73.78 44.1985-73.78C23.2201-73.78 5.77-56.319 5.77-35.28C5.77-14.241 23.2679 3.22 44.2461 3.22Z"/>
   <path class="monochrome-1 hierarchical-1:secondary SFSymbolsPreview4D4D4D" d="M44.0378 1.7918C64.3675 1.7918 81.2859-15.0909 81.2859-35.4332C81.2859-55.7755 64.3214-72.6582 43.9918-72.6582C23.7082-72.6582 6.83594-55.7755 6.83594-35.4332C6.83594-15.0909 23.7543 1.7918 44.0378 1.7918Z"/>
   <path class="monochrome-2 hierarchical-2:primary SFSymbolsPreview212121" d="M20.0554-25.0584L20.0554-14.8487C20.0554-13.4855 20.9836-12.4703 22.4048-12.4703L32.6434-12.4703C34.9348-12.4703 35.5149-14.9067 34.0357-16.3859L23.971-26.4505C22.4918-27.9298 20.0554-27.3497 20.0554-25.0584ZM27.832-38.4703L38.0416-38.4703C39.4048-38.4703 40.42-39.3985 40.42-40.8197L40.42-51.0583C40.42-53.3497 37.9836-53.9298 36.5044-52.4506L26.4398-42.3859C24.9606-40.9067 25.5406-38.4703 27.832-38.4703ZM66.42-46.4119L66.42-56.6216C66.42-57.9848 65.4919-59 64.0706-59L53.832-59C51.5407-59 50.9605-56.5636 52.4398-55.0844L62.5044-45.0198C63.9836-43.5405 66.42-44.1206 66.42-46.4119ZM58.6434-33L48.4338-33C47.0706-33 46.0554-32.0718 46.0554-30.6506L46.0554-20.412C46.0554-18.1206 48.4918-17.5405 49.971-19.0197L60.0356-29.0844C61.5149-30.5636 60.9348-33 58.6434-33ZM65.7709-16.3959L55.2645-26.896C54.3583-27.8016 52.8895-27.8012 51.9839-26.895C51.9818-26.8929 51.9798-26.8908 51.9777-26.8887C51.0711-25.9747 51.0743-24.4995 51.985-23.5895L62.4769-13.1039C63.3867-12.1947 64.8611-12.1947 65.7709-13.1039C66.68-14.0124 66.6804-15.4858 65.7719-16.3949C65.7716-16.3952 65.7713-16.3956 65.7709-16.3959ZM20.7045-55.064L31.2109-44.564C32.1171-43.6583 33.5859-43.6588 34.4915-44.565C34.4936-44.567 34.4956-44.5691 34.4977-44.5712C35.4043-45.4853 35.4011-46.9604 34.4904-47.8705L23.9985-58.356C23.0887-59.2653 21.6143-59.2653 20.7045-58.356C19.7954-57.4475 19.795-55.9741 20.7035-55.065C20.7038-55.0647 20.7041-55.0644 20.7045-55.064ZM36.482-32.353L25.9819-21.8465C25.0763-20.9404 25.0767-19.4716 25.9829-18.566C25.985-18.5639 25.9871-18.5618 25.9891-18.5598C26.9032-17.6531 28.3783-17.6564 29.2884-18.567L39.774-29.059C40.6832-29.9687 40.6832-31.4432 39.774-32.353C38.8655-33.2621 37.392-33.2625 36.483-32.354C36.4826-32.3537 36.4823-32.3533 36.482-32.353ZM49.9934-39.1069L60.4935-49.6134C61.3991-50.5196 61.3987-51.9883 60.4925-52.894C60.4904-52.896 60.4884-52.8981 60.4863-52.9002C59.5722-53.8068 58.0971-53.8035 57.187-52.8929L46.7014-42.401C45.7922-41.4912 45.7922-40.0167 46.7014-39.1069C47.6099-38.1979 49.0834-38.1974 49.9924-39.1059C49.9928-39.1063 49.9931-39.1066 49.9934-39.1069Z"/>
  </g>
  <g id="Ultralight-S" transform="matrix(1 0 0 1 515.649 696)">
   <path class="monochrome-0 hierarchical-0:primary SFSymbolsPreview212121" d="M42.8493 3.5215C63.992 3.5215 81.351-13.8347 81.351-34.9785C81.351-56.1223 63.9885-73.4785 42.8457-73.4785C21.6595-73.4785 4.351-56.1223 4.351-34.9785C4.351-13.8347 21.663 3.5215 42.8493 3.5215Z"/>
   <path class="monochrome-1 hierarchical-1:secondary SFSymbolsPreview4D4D4D" d="M42.5757 1.97072C63.019 1.97072 79.8037-14.8105 79.8037-35.2539C79.8037-55.6973 63.0156-72.4785 42.5722-72.4785C22.0869-72.4785 5.351-55.6973 5.351-35.2539C5.351-14.8105 22.0903 1.97072 42.5757 1.97072Z"/>
   <path class="monochrome-2 hierarchical-2:primary SFSymbolsPreview212121" d="M20.3489-25.0563L20.3489-14.8467C20.3489-13.4834 21.2771-12.4682 22.6983-12.4682L32.9369-12.4682C35.2283-12.4682 35.8084-14.9046 34.3292-16.3839L24.2646-26.4485C22.7853-27.9277 20.3489-27.3476 20.3489-25.0563ZM28.1255-38.4682L38.3351-38.4682C39.6984-38.4682 40.7135-39.3964 40.7135-40.8176L40.7135-51.0562C40.7135-53.3476 38.2771-53.9277 36.7979-52.4485L26.7333-42.3839C25.2541-40.9047 25.8341-38.4682 28.1255-38.4682ZM66.7135-46.4099L66.7135-56.6195C66.7135-57.9828 65.7854-58.9979 64.3641-58.9979L54.1255-58.9979C51.8342-58.9979 51.2541-56.5615 52.7333-55.0823L62.7979-45.0177C64.2771-43.5385 66.7135-44.1185 66.7135-46.4099ZM58.937-32.9979L48.7274-32.9979C47.3641-32.9979 46.3489-32.0698 46.3489-30.6485L46.3489-20.4099C46.3489-18.1186 48.7853-17.5385 50.2646-19.0177L60.3292-29.0823C61.8084-30.5615 61.2283-32.9979 58.937-32.9979ZM66.0645-16.3939L55.558-26.8939C54.6518-27.7995 53.1831-27.7991 52.2774-26.8929C52.2754-26.8908 52.2733-26.8888 52.2712-26.8867C51.3646-25.9726 51.3679-24.4975 52.2785-23.5874L62.7704-13.1018C63.6802-12.1926 65.1547-12.1926 66.0645-13.1018C66.9735-14.0103 66.974-15.4838 66.0655-16.3929C66.0651-16.3932 66.0648-16.3935 66.0645-16.3939ZM20.998-55.062L31.5045-44.5619C32.4106-43.6563 33.8794-43.6567 34.785-44.5629C34.7871-44.565 34.7892-44.5671 34.7912-44.5691C35.6979-45.4832 35.6946-46.9583 34.784-47.8684L24.292-58.354C23.3823-59.2632 21.9078-59.2632 20.998-58.354C20.0889-57.4455 20.0885-55.972 20.997-55.063C20.9973-55.0626 20.9977-55.0623 20.998-55.062ZM36.7755-32.3509L26.2754-21.8445C25.3698-20.9383 25.3702-19.4695 26.2764-18.5639C26.2785-18.5618 26.2806-18.5598 26.2827-18.5577C27.1968-17.6511 28.6719-17.6543 29.582-18.565L40.0675-29.0569C40.9767-29.9667 40.9767-31.4411 40.0675-32.3509C39.159-33.26 37.6856-33.2604 36.7765-32.3519C36.7762-32.3516 36.7758-32.3513 36.7755-32.3509ZM50.287-39.1049L60.787-49.6113C61.6927-50.5175 61.6922-51.9863 60.786-52.8919C60.784-52.894 60.7819-52.896 60.7798-52.8981C59.8657-53.8047 58.3906-53.8015 57.4805-52.8908L46.995-42.3989C46.0857-41.4891 46.0857-40.0147 46.995-39.1049C47.9035-38.1958 49.3769-38.1954 50.286-39.1039C50.2863-39.1042 50.2866-39.1046 50.287-39.1049Z"/>
  </g>
 </g>
</svg>
